<svg width="18" height="16" fill="none" xmlns="http://www.w3.org/2000/svg"><path fill-rule="evenodd" clip-rule="evenodd" d="M11.838 1.708c.857-.276 1.814-.256 2.647.134l.001.001.014.006.002.001v.001h.001c.637.303 1.15.759 1.498 1.329.16.265.286.554.37.864v.001l.004.011c.264.983.141 2.257-.672 3.717l-.003.005-.006.012-.005.007c-1.076 1.95-2.93 3.482-6.304 6.164l-.093.075-.255.201-.002.003-.04.031-.042-.033-.003-.002-.252-.2-.094-.075c-3.376-2.683-5.229-4.215-6.306-6.165l-.001-.003a5.94 5.94 0 01-.009-.015v-.002c-.807-1.46-.926-2.734-.662-3.72l.003-.011c.267-.979.933-1.751 1.857-2.194l.015-.007.004-.001.033-.015.003-.002c1.47-.661 3.284-.204 4.29.989.193.227.356.482.481.76.06.134.156.246.277.325a.741.741 0 001.087-.324 3.24 3.24 0 01.482-.761 3.68 3.68 0 011.68-1.107zM10.402.683c1.234-.693 2.741-.882 4.1-.46h.001a4.774 4.774 0 01.652.257 5.023 5.023 0 011.926 1.602c.332.464.585.992.741 1.573l.003.012c.377 1.418.156 3.069-.77 4.772l-.003.005-.032.059-.002.003-.009.016c-1.289 2.346-3.53 4.125-7.073 6.935l-.01.008-.47.374a.743.743 0 01-.923 0l-.47-.374-.01-.007C4.509 12.647 2.268 10.868.979 8.52a9.134 9.134 0 01-.01-.017v-.001l-.033-.06V8.44C.015 6.737-.2 5.085.175 3.668v-.001l.003-.012C.565 2.22 1.54 1.105 2.83.48a6.994 6.994 0 01.02-.009L2.852.47C4.37-.246 6.163-.12 7.59.682A5.071 5.071 0 018.995 1.85 5.082 5.082 0 0110.402.683z" fill="#242424" fill-opacity=".5"/><path d="M11.838 1.708c.857-.276 1.814-.256 2.647.134l.001.001.014.006.002.001v.001h.001c.637.303 1.15.759 1.498 1.329.16.265.286.554.37.864v.001l.004.011c.264.983.141 2.257-.672 3.717l-.003.005-.006.012-.005.007c-1.076 1.95-2.93 3.482-6.304 6.164l-.093.075-.255.201-.002.003-.04.031-.042-.033-.003-.002-.252-.2-.094-.075c-3.376-2.683-5.229-4.215-6.306-6.165l-.001-.003-.009-.015v-.002c-.807-1.46-.926-2.734-.662-3.72l.003-.011c.267-.979.933-1.751 1.857-2.194l.015-.007.004-.001.033-.015.003-.002c1.47-.661 3.284-.204 4.29.989.193.227.356.482.481.76.06.134.156.246.277.325a.741.741 0 001.087-.324 3.24 3.24 0 01.482-.761 3.68 3.68 0 011.68-1.107z" fill="#242424" fill-opacity=".5"/></svg>