<svg width="52" height="38" fill="none" xmlns="http://www.w3.org/2000/svg"><path fill-rule="evenodd" clip-rule="evenodd" d="M35.556 14.295l-.014-.017a.867.867 0 00-.243-.204.36.36 0 00-.083-.035H21.657l1.96 7.417c.017.068.06.135.13.187a.44.44 0 00.259.085h9.447c.224 0 .353-.145.378-.245l.002-.01 1.783-6.955.003-.012a.2.2 0 00.001-.098.227.227 0 00-.05-.096l-.014-.017zM24 23.545c-.507 0-1-.163-1.399-.461a2.157 2.157 0 01-.803-1.182l-2.89-10.943a.761.761 0 00-.246-.38.797.797 0 00-.512-.183h-2.417c-.402 0-.734-.316-.734-.698 0-.185.078-.362.216-.492A.757.757 0 0115.734 9h2.416c.508.002 1 .164 1.4.462a2.162 2.162 0 01.793 1.14l.01.041.45 1.578h14.425c.688 0 1.351.404 1.778.922.217.25.37.546.443.864a1.95 1.95 0 01-.017.96l-1.777 6.935c-.236.968-1.16 1.644-2.202 1.644H24z" fill="#fff"/><path fill-rule="evenodd" clip-rule="evenodd" d="M35.556 14.295l-.014-.017a.867.867 0 00-.243-.204.36.36 0 00-.083-.035H21.657l1.96 7.417c.017.068.06.135.13.187a.44.44 0 00.259.085h9.447c.224 0 .353-.145.378-.245l.002-.01 1.783-6.955.003-.012a.2.2 0 00.001-.098.227.227 0 00-.05-.096l-.014-.017zM24 23.545c-.507 0-1-.163-1.399-.461a2.157 2.157 0 01-.803-1.182l-2.89-10.943a.761.761 0 00-.246-.38.797.797 0 00-.512-.183h-2.417c-.402 0-.734-.316-.734-.698 0-.185.078-.362.216-.492A.757.757 0 0115.734 9h2.416c.508.002 1 .164 1.4.462a2.162 2.162 0 01.793 1.14l.01.041.45 1.578h14.425c.688 0 1.351.404 1.778.922.217.25.37.546.443.864a1.95 1.95 0 01-.017.96l-1.777 6.935c-.236.968-1.16 1.644-2.202 1.644H24z" fill="#970E0B"/><path fill-rule="evenodd" clip-rule="evenodd" d="M24.375 29c1.036 0 1.875-.813 1.875-1.818 0-1.004-.84-1.818-1.875-1.818-1.035 0-1.875.814-1.875 1.818 0 1.005.84 1.819 1.875 1.819z" fill="#fff"/><path fill-rule="evenodd" clip-rule="evenodd" d="M24.375 29c1.036 0 1.875-.813 1.875-1.818 0-1.004-.84-1.818-1.875-1.818-1.035 0-1.875.814-1.875 1.818 0 1.005.84 1.819 1.875 1.819z" fill="#970E0B"/><path fill-rule="evenodd" clip-rule="evenodd" d="M32.813 29c1.036 0 1.875-.813 1.875-1.818 0-1.004-.84-1.818-1.875-1.818-1.036 0-1.875.814-1.875 1.818 0 1.005.84 1.819 1.875 1.819z" fill="#fff"/><path fill-rule="evenodd" clip-rule="evenodd" d="M32.813 29c1.036 0 1.875-.813 1.875-1.818 0-1.004-.84-1.818-1.875-1.818-1.036 0-1.875.814-1.875 1.818 0 1.005.84 1.819 1.875 1.819z" fill="#970E0B"/></svg>