<svg width="23" height="20" fill="none" xmlns="http://www.w3.org/2000/svg"><path fill-rule="evenodd" clip-rule="evenodd" d="M16.077 1.933a4.598 4.598 0 012.454.38v.001h.001l.006.003h.002a4.504 4.504 0 011.594 1.223 4.136 4.136 0 01.79 1.535v.002c.335 1.225.18 2.812-.854 4.629l-.005.01-.004.006c-1.418 2.527-3.896 4.488-8.494 8.06l-.054.041v.001l-.02.015-.02-.015-.054-.043c-4.598-3.57-7.077-5.532-8.495-8.059l-.001-.002-.004-.006c0-.001 0-.002-.002-.003-1.023-1.818-1.176-3.406-.84-4.635v-.005c.338-1.227 1.187-2.196 2.367-2.752l.005-.002.005-.003.035-.016c.002 0 .003 0 .004-.002 1.897-.852 4.254-.269 5.541 1.254a4.064 4.064 0 01.587.92.953.953 0 00.872.556.963.963 0 00.871-.556 3.96 3.96 0 01.588-.92c.77-.907 1.922-1.481 3.125-1.617zm-4.524.312l-.059.067a6.257 6.257 0 00-1.52-1.299C8.113-.129 5.69-.352 3.655.583a7.092 7.092 0 00-.01.005h-.001L3.64.59C1.98 1.367.727 2.763.23 4.563v.002l-.002.004c-.489 1.783-.21 3.864.983 6.012v.002l.039.068.004.008.001.002c1.65 2.931 4.516 5.155 9.046 8.67l.6.467a.962.962 0 001.18 0l.601-.466c4.53-3.514 7.395-5.738 9.044-8.668l.003-.005.004-.006.039-.07.003-.005c1.2-2.145 1.485-4.225.997-6.01l-.002-.005a6.022 6.022 0 00-1.278-2.376A6.465 6.465 0 0019.335.586a6.17 6.17 0 00-.692-.272c-1.867-.606-3.97-.316-5.627.7a6.355 6.355 0 00-1.463 1.23z" fill="#fff"/><path fill-rule="evenodd" clip-rule="evenodd" d="M16.077 1.933a4.598 4.598 0 012.454.38v.001h.001l.006.003h.002a4.504 4.504 0 011.594 1.223 4.136 4.136 0 01.79 1.535v.002c.335 1.225.18 2.812-.854 4.629l-.005.01-.004.006c-1.418 2.527-3.896 4.488-8.494 8.06l-.054.041v.001l-.02.015-.02-.015-.054-.043c-4.598-3.57-7.077-5.532-8.495-8.059l-.001-.002-.004-.006c0-.001 0-.002-.002-.003-1.023-1.818-1.176-3.406-.84-4.635v-.005c.338-1.227 1.187-2.196 2.367-2.752l.005-.002.005-.003.035-.016c.002 0 .003 0 .004-.002 1.897-.852 4.254-.269 5.541 1.254a4.064 4.064 0 01.587.92.953.953 0 00.872.556.963.963 0 00.871-.556 3.96 3.96 0 01.588-.92c.77-.907 1.922-1.481 3.125-1.617zm-4.524.312l-.059.067a6.257 6.257 0 00-1.52-1.299C8.113-.129 5.69-.352 3.655.583a7.092 7.092 0 00-.01.005h-.001L3.64.59C1.98 1.367.727 2.763.23 4.563v.002l-.002.004c-.489 1.783-.21 3.864.983 6.012v.002l.039.068.004.008.001.002c1.65 2.931 4.516 5.155 9.046 8.67l.6.467a.962.962 0 001.18 0l.601-.466c4.53-3.514 7.395-5.738 9.044-8.668l.003-.005.004-.006.039-.07.003-.005c1.2-2.145 1.485-4.225.997-6.01l-.002-.005a6.022 6.022 0 00-1.278-2.376A6.465 6.465 0 0019.335.586a6.17 6.17 0 00-.692-.272c-1.867-.606-3.97-.316-5.627.7a6.355 6.355 0 00-1.463 1.23z" fill="#970E0B"/></svg>