<svg width="18" height="16" fill="none" xmlns="http://www.w3.org/2000/svg"><path fill-rule="evenodd" clip-rule="evenodd" d="M14.503 1.85c-1.742-.828-4.036-.031-4.827 1.726A.759.759 0 019.4 3.9a.741.741 0 01-1.088-.324c-.79-1.757-3.067-2.554-4.826-1.725-.928.445-1.595 1.221-1.86 2.205-.264.986-.145 2.26.662 3.72v.002c1.116 2.032 3.07 3.607 6.707 6.493 3.635-2.886 5.59-4.461 6.705-6.493l.003-.005c.813-1.46.936-2.734.672-3.717-.264-.982-.935-1.76-1.872-2.205h-.001z" fill="#fff"/><path fill-rule="evenodd" clip-rule="evenodd" d="M14.503 1.85c-1.742-.828-4.036-.031-4.827 1.726A.759.759 0 019.4 3.9a.741.741 0 01-1.088-.324c-.79-1.757-3.067-2.554-4.826-1.725-.928.445-1.595 1.221-1.86 2.205-.264.986-.145 2.26.662 3.72v.002c1.116 2.032 3.07 3.607 6.707 6.493 3.635-2.886 5.59-4.461 6.705-6.493l.003-.005c.813-1.46.936-2.734.672-3.717-.264-.982-.935-1.76-1.872-2.205h-.001z" fill="#970E0B"/><path fill-rule="evenodd" clip-rule="evenodd" d="M15.138.471C13.07-.513 10.456.091 8.995 1.85 7.537.09 4.933-.512 2.852.47L2.85.473C1.55 1.094.567 2.212.18 3.655-.208 5.097.02 6.783.98 8.52c1.29 2.349 3.534 4.129 7.083 6.944l.47.374a.743.743 0 00.924 0l.47-.374c3.55-2.814 5.793-4.594 7.083-6.943.968-1.737 1.2-3.423.813-4.867-.388-1.445-1.377-2.563-2.684-3.184zM9.676 3.576c.79-1.757 3.085-2.554 4.827-1.725h-.001.001c.937.445 1.608 1.223 1.872 2.205.264.983.141 2.257-.672 3.717l-.003.005c-1.116 2.032-3.07 3.607-6.705 6.493-3.636-2.886-5.59-4.461-6.707-6.493v-.002c-.807-1.46-.926-2.734-.662-3.72.265-.984.932-1.76 1.86-2.205 1.759-.83 4.036-.032 4.826 1.725.06.133.156.245.277.324a.741.741 0 001.087-.324z" fill="#fff"/><path fill-rule="evenodd" clip-rule="evenodd" d="M15.138.471C13.07-.513 10.456.091 8.995 1.85 7.537.09 4.933-.512 2.852.47L2.85.473C1.55 1.094.567 2.212.18 3.655-.208 5.097.02 6.783.98 8.52c1.29 2.349 3.534 4.129 7.083 6.944l.47.374a.743.743 0 00.924 0l.47-.374c3.55-2.814 5.793-4.594 7.083-6.943.968-1.737 1.2-3.423.813-4.867-.388-1.445-1.377-2.563-2.684-3.184zM9.676 3.576c.79-1.757 3.085-2.554 4.827-1.725h-.001.001c.937.445 1.608 1.223 1.872 2.205.264.983.141 2.257-.672 3.717l-.003.005c-1.116 2.032-3.07 3.607-6.705 6.493-3.636-2.886-5.59-4.461-6.707-6.493v-.002c-.807-1.46-.926-2.734-.662-3.72.265-.984.932-1.76 1.86-2.205 1.759-.83 4.036-.032 4.826 1.725.06.133.156.245.277.324a.741.741 0 001.087-.324z" fill="#970E0B"/></svg>