<svg width="13" height="18" fill="none" xmlns="http://www.w3.org/2000/svg"><path fill-rule="evenodd" clip-rule="evenodd" d="M2.263.172s2.526-.994 4.04 1.795C7.817 4.757 5.257 5.69 5.257 5.69s-3.032-.665-.395 4.195C7.5 14.746 8.53 11.722 8.53 11.722s2.546-.958 3.996 1.713c1.45 2.671-.886 4.02-.886 4.02s-4.33 3.244-9.394-6.088C-2.817 2.035 2.263.172 2.263.172z" fill="#fff"/><path fill-rule="evenodd" clip-rule="evenodd" d="M2.263.172s2.526-.994 4.04 1.795C7.817 4.757 5.257 5.69 5.257 5.69s-3.032-.665-.395 4.195C7.5 14.746 8.53 11.722 8.53 11.722s2.546-.958 3.996 1.713c1.45 2.671-.886 4.02-.886 4.02s-4.33 3.244-9.394-6.088C-2.817 2.035 2.263.172 2.263.172z" fill="#970E0B"/></svg>