<svg width="36" height="36" fill="none" xmlns="http://www.w3.org/2000/svg"><g opacity=".99"><g opacity=".99"><mask id="a" maskUnits="userSpaceOnUse" x="8" y="8" width="21" height="20"><path opacity=".99" d="M8.293 8.294h19.708V28H8.293V8.294z" fill="#fff"/></mask><g opacity=".99" fill="#242424" fill-opacity=".7" mask="url(#a)"><path fill-rule="evenodd" clip-rule="evenodd" d="M18.147 8.294c-2.677 0-3.012.011-4.062.06-1.05.048-1.766.213-2.393.457a4.829 4.829 0 00-1.745 1.136 4.83 4.83 0 00-1.137 1.747c-.243.626-.41 1.343-.458 2.392-.048 1.05-.059 1.386-.059 4.062 0 2.677.011 3.012.06 4.063.048 1.049.213 1.765.457 2.392a4.831 4.831 0 001.136 1.745 4.83 4.83 0 001.747 1.137c.626.243 1.342.41 2.392.457 1.05.049 1.386.06 4.062.06 2.677 0 3.012-.012 4.063-.06 1.049-.047 1.765-.214 2.392-.457a4.83 4.83 0 001.745-1.137 4.83 4.83 0 001.137-1.745c.243-.627.41-1.343.457-2.393.049-1.05.06-1.386.06-4.062 0-2.677-.012-3.012-.06-4.063-.047-1.05-.214-1.765-.457-2.392a4.831 4.831 0 00-1.137-1.745 4.832 4.832 0 00-1.746-1.137c-.627-.243-1.343-.41-2.393-.458-1.049-.048-1.384-.059-4.06-.059h-.001zm0 1.775c2.631 0 2.943.01 3.983.057.96.045 1.482.206 1.829.34.46.179.788.393 1.133.738.345.344.558.673.736 1.133.136.347.296.868.34 1.829.047 1.039.057 1.35.057 3.983 0 2.63-.01 2.942-.057 3.98-.044.961-.204 1.483-.34 1.83-.178.46-.391.79-.736 1.134a3.048 3.048 0 01-1.133.736c-.348.136-.87.296-1.83.34-1.039.047-1.35.057-3.982.057s-2.943-.01-3.982-.057c-.96-.044-1.482-.204-1.83-.34a3.052 3.052 0 01-1.132-.736 3.054 3.054 0 01-.738-1.133c-.134-.348-.295-.87-.339-1.83-.048-1.039-.057-1.35-.057-3.982s.01-2.943.056-3.982c.045-.96.206-1.482.34-1.83.179-.46.393-.788.738-1.133a3.05 3.05 0 011.133-.737c.347-.134.868-.295 1.829-.339 1.039-.048 1.35-.058 3.983-.058h-.001z"/><path d="M18.147 10.07c2.631 0 2.943.01 3.983.056.96.045 1.482.206 1.829.34.46.179.788.393 1.133.738.345.344.558.673.736 1.133.136.347.296.868.34 1.829.047 1.039.057 1.35.057 3.983 0 2.63-.01 2.942-.057 3.98-.044.961-.204 1.483-.34 1.83-.178.46-.391.79-.736 1.134a3.048 3.048 0 01-1.133.736c-.348.136-.87.296-1.83.34-1.039.047-1.35.057-3.982.057s-2.943-.01-3.982-.057c-.96-.044-1.482-.204-1.83-.34a3.052 3.052 0 01-1.132-.736 3.054 3.054 0 01-.738-1.133c-.134-.348-.295-.87-.339-1.83-.048-1.039-.057-1.35-.057-3.982s.01-2.943.056-3.982c.045-.96.206-1.482.34-1.83.179-.46.393-.788.738-1.133a3.05 3.05 0 011.133-.737c.347-.134.868-.295 1.829-.339 1.039-.048 1.35-.058 3.983-.058h-.001z"/></g></g><path opacity=".99" fill-rule="evenodd" clip-rule="evenodd" d="M18.146 21.432a3.285 3.285 0 110-6.57 3.285 3.285 0 010 6.57zm0-8.345a5.06 5.06 0 100 10.12 5.06 5.06 0 000-10.12zm6.442-.199a1.184 1.184 0 01-2.283.462 1.182 1.182 0 01-.081-.462 1.182 1.182 0 112.364 0z" fill="#fff"/></g></svg>