<svg width="24" height="24" fill="none" xmlns="http://www.w3.org/2000/svg"><g clip-path="url(#clip0)"><path opacity=".99" d="M16.86 2.032h0c1.19.055 1.848.256 2.29.427h0c.586.228 1.01.504 1.45.943.439.44.714.864.941 1.45.173.442.373 1.098.427 2.29h0c.058 1.27.07 1.654.07 4.86 0 3.205-.012 3.588-.07 4.858h0c-.054 1.192-.254 1.85-.427 2.292a3.914 3.914 0 01-.942 1.45c-.44.439-.863.714-1.449.941L16.86 2.032zm0 0c-1.272-.058-1.655-.07-4.86-.07-3.206 0-3.588.012-4.858.07-1.193.055-1.848.256-2.291.427h0a3.914 3.914 0 00-1.45.943c-.439.44-.715.862-.942 1.45-.172.442-.372 1.099-.427 2.29h0c-.058 1.27-.07 1.654-.07 4.86 0 3.205.012 3.589.07 4.858.055 1.19.255 1.848.426 2.29a3.92 3.92 0 00.944 1.451c.407.419.903.74 1.45.943.443.172 1.1.372 2.29.426h0c1.27.058 1.653.07 4.858.07 3.205 0 3.59-.012 4.858-.07h0m.001-19.938V21.97m0 0c1.19-.054 1.848-.254 2.291-.427l-2.292.427zM4.208.817h.003c.74-.289 1.59-.487 2.85-.545C8.337.214 8.742.2 12 .2s3.664.014 4.937.072l.009-.2-.01.2c1.26.057 2.11.257 2.852.545h.002a5.678 5.678 0 012.054 1.338h0l.003.002a5.684 5.684 0 011.337 2.053v.002c.288.74.487 1.591.544 2.85.058 1.276.072 1.68.072 4.94 0 3.257-.013 3.663-.072 4.937h0c-.057 1.26-.256 2.11-.544 2.852v.002a5.682 5.682 0 01-1.338 2.053h0l-.003.003a5.682 5.682 0 01-2.052 1.337h-.002c-.741.288-1.592.487-2.85.544-1.276.058-1.68.072-4.939.072-3.258 0-3.663-.012-4.938-.072h0c-1.26-.057-2.11-.256-2.85-.543l-.002-.001a5.682 5.682 0 01-2.054-1.338l-.001-.001A5.685 5.685 0 01.817 19.79h0c-.289-.74-.487-1.592-.545-2.85C.214 15.664.2 15.26.2 12c0-3.258.014-3.663.072-4.937.057-1.26.257-2.11.545-2.85h0v-.002a5.682 5.682 0 011.337-2.056h0l.003-.002A5.681 5.681 0 014.209.817zm15.613 4.827h0v.006a1.254 1.254 0 11-2.505 0h0v-.006a1.253 1.253 0 112.505 0zm-9.353 10.394a4.236 4.236 0 001.64.303 4.234 4.234 0 000-8.471 4.236 4.236 0 00-1.64 8.168zM7.853 7.85a6.017 6.017 0 118.509 8.509 6.017 6.017 0 01-8.51-8.51z" fill="#242424" stroke="#FFFCF8" stroke-width=".4"/></g><defs><clipPath id="clip0"><path fill="#fff" d="M0 0h24v24H0z"/></clipPath></defs></svg>