<svg width="255" height="34" fill="none" xmlns="http://www.w3.org/2000/svg"><path fill-rule="evenodd" clip-rule="evenodd" d="M18.088 6.94c5.578 0 9.211 4.522 9.211 10.067s-3.802 10.152-9.126 10.066c-5.408 0-9.211-4.52-9.211-10.066 0-5.545 3.465-10.152 9.126-10.066zM18.004.202c9.802 0 17.746 7.507 17.746 16.806 0 9.299-7.944 16.806-17.746 16.806C8.2 33.813.258 26.306.258 17.007S8.2.201 18.004.201z" fill="#fff"/><path fill-rule="evenodd" clip-rule="evenodd" d="M18.088 6.94c5.578 0 9.211 4.522 9.211 10.067s-3.802 10.152-9.126 10.066c-5.408 0-9.211-4.52-9.211-10.066 0-5.545 3.465-10.152 9.126-10.066zM18.004.202c9.802 0 17.746 7.507 17.746 16.806 0 9.299-7.944 16.806-17.746 16.806C8.2 33.813.258 26.306.258 17.007S8.2.201 18.004.201z" fill="#970E0B"/><path fill-rule="evenodd" clip-rule="evenodd" d="M55.356 7.452l-6.422-.085v8.957h5.915c6-1.194 4.817-8.104.507-8.872zM43.78.97c-1.775.17-2.958 1.109-3.127 2.9v27.129c1.521 3.668 7.014 3.497 8.197 0v-8.19c3.38.085 6.76-.085 10.225-.256 4.056-.768 7.86-3.754 8.45-9.981C67.44 3.955 61.188 1.225 56.37 1.054 52.145.97 47.92.97 43.78.97z" fill="#fff"/><path fill-rule="evenodd" clip-rule="evenodd" d="M55.356 7.452l-6.422-.085v8.957h5.915c6-1.194 4.817-8.104.507-8.872zM43.78.97c-1.775.17-2.958 1.109-3.127 2.9v27.129c1.521 3.668 7.014 3.497 8.197 0v-8.19c3.38.085 6.76-.085 10.225-.256 4.056-.768 7.86-3.754 8.45-9.981C67.44 3.955 61.188 1.225 56.37 1.054 52.145.97 47.92.97 43.78.97z" fill="#970E0B"/><path fill-rule="evenodd" clip-rule="evenodd" d="M75.553 7.623h5.662v23.29c.253 1.62 2.112 2.73 4.056 2.644 1.605-.085 3.972-.512 4.14-2.645l.085-23.289c2.282 0 4.479-.085 6.76-.085 2.198-.597 2.282-2.218 2.282-3.327 0-1.024-.76-2.9-2.62-3.071-6.845 0-13.351.085-20.196 0-2.789-.171-3.296 2.218-3.296 3.241-.169 1.11.17 2.986 3.127 3.242z" fill="#fff"/><path fill-rule="evenodd" clip-rule="evenodd" d="M75.553 7.623h5.662v23.29c.253 1.62 2.112 2.73 4.056 2.644 1.605-.085 3.972-.512 4.14-2.645l.085-23.289c2.282 0 4.479-.085 6.76-.085 2.198-.597 2.282-2.218 2.282-3.327 0-1.024-.76-2.9-2.62-3.071-6.845 0-13.351.085-20.196 0-2.789-.171-3.296 2.218-3.296 3.241-.169 1.11.17 2.986 3.127 3.242z" fill="#970E0B"/><path fill-rule="evenodd" clip-rule="evenodd" d="M111.296 3.7c-.084-2.475-2.873-3.072-4.31-3.072-1.267 0-3.549.597-3.802 3.071v27.384c.591 1.792 2.45 2.304 3.802 2.39 1.268.084 2.789-.342 3.972-1.707l16.056-17.574c0 5.46.084 11.005.084 16.465.507 2.474 2.62 2.73 3.972 2.73 1.352.085 3.127 0 4.225-2.303V3.529c-.929-2.645-2.619-2.9-3.971-2.9-1.353-.086-2.789.596-4.226 2.217L111.634 20.25c-.169-5.46-.253-11.005-.338-16.55z" fill="#fff"/><path fill-rule="evenodd" clip-rule="evenodd" d="M111.296 3.7c-.084-2.475-2.873-3.072-4.31-3.072-1.267 0-3.549.597-3.802 3.071v27.384c.591 1.792 2.45 2.304 3.802 2.39 1.268.084 2.789-.342 3.972-1.707l16.056-17.574c0 5.46.084 11.005.084 16.465.507 2.474 2.62 2.73 3.972 2.73 1.352.085 3.127 0 4.225-2.303V3.529c-.929-2.645-2.619-2.9-3.971-2.9-1.353-.086-2.789.596-4.226 2.217L111.634 20.25c-.169-5.46-.253-11.005-.338-16.55z" fill="#970E0B"/><path fill-rule="evenodd" clip-rule="evenodd" d="M144.675 4.637c-1.605 8.36-3.042 16.72-4.647 25.081-.169 2.9 2.366 3.668 3.718 3.668 1.436.086 3.718-.511 4.478-3.327l2.874-15.952c2.028 5.545 3.971 11.005 5.999 16.55 1.184 2.644 2.874 2.73 4.226 2.815 1.436.085 3.464-.683 4.394-2.474l5.746-16.891c1.099 5.715 2.197 11.346 3.296 17.061 1.098 2.304 2.62 2.474 3.887 2.39 1.352-.086 3.803-.428 4.141-3.584-1.521-8.787-3.211-16.806-4.901-25.507-.761-2.645-3.381-3.669-5.155-3.754-1.775-.085-3.972.17-5.409 3.412l-5.83 15.868c-1.859-5.033-3.719-10.067-5.578-15.185-2.281-4.436-4.056-4.18-5.999-4.18-1.86 0-4.31.682-5.24 4.01z" fill="#fff"/><path fill-rule="evenodd" clip-rule="evenodd" d="M144.675 4.637c-1.605 8.36-3.042 16.72-4.647 25.081-.169 2.9 2.366 3.668 3.718 3.668 1.436.086 3.718-.511 4.478-3.327l2.874-15.952c2.028 5.545 3.971 11.005 5.999 16.55 1.184 2.644 2.874 2.73 4.226 2.815 1.436.085 3.464-.683 4.394-2.474l5.746-16.891c1.099 5.715 2.197 11.346 3.296 17.061 1.098 2.304 2.62 2.474 3.887 2.39 1.352-.086 3.803-.428 4.141-3.584-1.521-8.787-3.211-16.806-4.901-25.507-.761-2.645-3.381-3.669-5.155-3.754-1.775-.085-3.972.17-5.409 3.412l-5.83 15.868c-1.859-5.033-3.719-10.067-5.578-15.185-2.281-4.436-4.056-4.18-5.999-4.18-1.86 0-4.31.682-5.24 4.01z" fill="#970E0B"/><path fill-rule="evenodd" clip-rule="evenodd" d="M190.817 1.053c-2.197.086-3.043 1.963-3.043 3.242-.084 8.531-.084 17.147-.169 25.678.423 2.389 1.775 3.242 4.31 3.327 4.732-.085 9.549-.085 14.281-.17 2.451-.683 2.62-2.304 2.62-3.413s-.253-2.9-2.62-3.156l-10.478-.085v-6.228h9.126c2.62-.256 3.296-2.303 3.212-3.327-.085-1.194-.169-2.9-2.789-3.327l-9.549-.256.084-5.801c3.465-.085 7.014-.085 10.479-.17 1.859-.342 2.535-2.219 2.366-3.242-.169-1.11-.253-2.986-3.211-3.242-4.986.256-9.634.085-14.619.17z" fill="#fff"/><path fill-rule="evenodd" clip-rule="evenodd" d="M190.817 1.053c-2.197.086-3.043 1.963-3.043 3.242-.084 8.531-.084 17.147-.169 25.678.423 2.389 1.775 3.242 4.31 3.327 4.732-.085 9.549-.085 14.281-.17 2.451-.683 2.62-2.304 2.62-3.413s-.253-2.9-2.62-3.156l-10.478-.085v-6.228h9.126c2.62-.256 3.296-2.303 3.212-3.327-.085-1.194-.169-2.9-2.789-3.327l-9.549-.256.084-5.801c3.465-.085 7.014-.085 10.479-.17 1.859-.342 2.535-2.219 2.366-3.242-.169-1.11-.253-2.986-3.211-3.242-4.986.256-9.634.085-14.619.17z" fill="#970E0B"/><path fill-rule="evenodd" clip-rule="evenodd" d="M228.757 26.135l5.408-13.052 5.408 13.052h-10.816zm-8.958-.085c-.845 0-1.605 0-2.45.085-3.043 0-3.55 2.218-3.634 3.498 0 1.023.929 3.412 3.38 3.497 11.239 0 22.394 0 33.633.086 3.549-.427 3.718-2.56 3.718-3.669 0-1.194-.338-3.156-3.803-3.327l-2.366-.085c-3.549-7.678-7.014-15.356-10.563-23.033-.676-1.877-2.62-2.39-3.803-2.39-1.352 0-2.957.427-3.887 2.56L219.799 26.05z" fill="#fff"/><path fill-rule="evenodd" clip-rule="evenodd" d="M228.757 26.135l5.408-13.052 5.408 13.052h-10.816zm-8.958-.085c-.845 0-1.605 0-2.45.085-3.043 0-3.55 2.218-3.634 3.498 0 1.023.929 3.412 3.38 3.497 11.239 0 22.394 0 33.633.086 3.549-.427 3.718-2.56 3.718-3.669 0-1.194-.338-3.156-3.803-3.327l-2.366-.085c-3.549-7.678-7.014-15.356-10.563-23.033-.676-1.877-2.62-2.39-3.803-2.39-1.352 0-2.957.427-3.887 2.56L219.799 26.05z" fill="#970E0B"/></svg>