<svg width="747" height="177" fill="none" xmlns="http://www.w3.org/2000/svg"><path fill-rule="evenodd" clip-rule="evenodd" d="M137.372 61.827c12.71 0 20.881 9.986 20.881 22.696 0 12.483-8.625 22.696-20.654 22.696-12.256 0-20.881-9.986-20.881-22.696 0-12.483 7.944-22.923 20.654-22.696zm0-15.207c22.243 0 40.4 16.795 40.4 37.676s-18.157 37.676-40.4 37.676c-22.242 0-40.4-16.795-40.4-37.676 0-20.654 18.158-37.676 40.4-37.676z" fill="#fff"/><path fill-rule="evenodd" clip-rule="evenodd" d="M137.372 61.827c12.71 0 20.881 9.986 20.881 22.696 0 12.483-8.625 22.696-20.654 22.696-12.256 0-20.881-9.986-20.881-22.696 0-12.483 7.944-22.923 20.654-22.696zm0-15.207c22.243 0 40.4 16.795 40.4 37.676s-18.157 37.676-40.4 37.676c-22.242 0-40.4-16.795-40.4-37.676 0-20.654 18.158-37.676 40.4-37.676z" fill="#970E0B"/><path fill-rule="evenodd" clip-rule="evenodd" d="M222.028 62.96l-14.526-.226v20.2h13.391c13.618-2.497 10.894-18.385 1.135-19.973zM195.7 48.436c-3.858.454-6.809 2.497-7.036 6.582v60.826c3.405 8.398 15.888 7.944 18.611 0V97.459c7.717.227 15.434-.227 23.15-.454 9.306-1.815 17.931-8.397 19.292-22.47-.227-19.291-14.298-25.646-25.42-25.873-9.532-.227-19.065-.227-28.597-.227z" fill="#fff"/><path fill-rule="evenodd" clip-rule="evenodd" d="M222.028 62.96l-14.526-.226v20.2h13.391c13.618-2.497 10.894-18.385 1.135-19.973zM195.7 48.436c-3.858.454-6.809 2.497-7.036 6.582v60.826c3.405 8.398 15.888 7.944 18.611 0V97.459c7.717.227 15.434-.227 23.15-.454 9.306-1.815 17.931-8.397 19.292-22.47-.227-19.291-14.298-25.646-25.42-25.873-9.532-.227-19.065-.227-28.597-.227z" fill="#970E0B"/><path d="M267.873 63.417h12.71v52.202c.453 3.631 4.766 6.128 9.078 5.901 3.632 0 8.852-1.135 9.306-5.901l.227-52.202c5.22 0 10.213-.227 15.433-.227 4.993-1.362 5.22-4.993 5.22-7.49 0-2.27-1.588-6.582-6.128-6.809-15.66 0-30.413.227-45.846 0-6.355-.227-7.49 4.994-7.49 7.263 0 2.497.908 6.81 7.49 7.263z" fill="#fff"/><path d="M267.873 63.417h12.71v52.202c.453 3.631 4.766 6.128 9.078 5.901 3.632 0 8.852-1.135 9.306-5.901l.227-52.202c5.22 0 10.213-.227 15.433-.227 4.993-1.362 5.22-4.993 5.22-7.49 0-2.27-1.588-6.582-6.128-6.809-15.66 0-30.413.227-45.846 0-6.355-.227-7.49 4.994-7.49 7.263 0 2.497.908 6.81 7.49 7.263z" fill="#970E0B"/><path fill-rule="evenodd" clip-rule="evenodd" d="M267.873 63.417h12.71v52.202c.453 3.631 4.766 6.128 9.078 5.901 3.632 0 8.852-1.135 9.306-5.901l.227-52.202c5.22 0 10.213-.227 15.433-.227 4.993-1.362 5.22-4.993 5.22-7.49 0-2.27-1.588-6.582-6.128-6.809-15.66 0-30.413.227-45.846 0-6.355-.227-7.49 4.994-7.49 7.263 0 2.497.908 6.81 7.49 7.263z" fill="#fff"/><path fill-rule="evenodd" clip-rule="evenodd" d="M267.873 63.417h12.71v52.202c.453 3.631 4.766 6.128 9.078 5.901 3.632 0 8.852-1.135 9.306-5.901l.227-52.202c5.22 0 10.213-.227 15.433-.227 4.993-1.362 5.22-4.993 5.22-7.49 0-2.27-1.588-6.582-6.128-6.809-15.66 0-30.413.227-45.846 0-6.355-.227-7.49 4.994-7.49 7.263 0 2.497.908 6.81 7.49 7.263z" fill="#970E0B"/><path d="M349.134 54.565c-.227-5.674-6.582-6.808-9.759-6.808-2.951 0-8.171 1.361-8.625 6.808v61.508c1.362 4.085 5.674 5.22 8.625 5.447 2.95.227 6.355-.908 9.078-3.859l36.541-39.491c0 12.256.227 24.739.227 36.995 1.135 5.674 5.901 6.128 8.852 6.128 2.95.227 7.036 0 9.532-5.22V54.112c-2.042-5.902-5.901-6.355-9.078-6.583-2.951-.226-6.355 1.362-9.533 4.994l-35.633 39.264c0-12.483-.227-24.739-.227-37.222z" fill="#fff"/><path d="M349.134 54.565c-.227-5.674-6.582-6.808-9.759-6.808-2.951 0-8.171 1.361-8.625 6.808v61.508c1.362 4.085 5.674 5.22 8.625 5.447 2.95.227 6.355-.908 9.078-3.859l36.541-39.491c0 12.256.227 24.739.227 36.995 1.135 5.674 5.901 6.128 8.852 6.128 2.95.227 7.036 0 9.532-5.22V54.112c-2.042-5.902-5.901-6.355-9.078-6.583-2.951-.226-6.355 1.362-9.533 4.994l-35.633 39.264c0-12.483-.227-24.739-.227-37.222z" fill="#970E0B"/><path fill-rule="evenodd" clip-rule="evenodd" d="M349.134 54.565c-.227-5.674-6.582-6.808-9.759-6.808-2.951 0-8.171 1.361-8.625 6.808v61.508c1.362 4.085 5.674 5.22 8.625 5.447 2.95.227 6.355-.908 9.078-3.859l36.541-39.491c0 12.256.227 24.739.227 36.995 1.135 5.674 5.901 6.128 8.852 6.128 2.95.227 7.036 0 9.532-5.22V54.112c-2.042-5.902-5.901-6.355-9.078-6.583-2.951-.226-6.355 1.362-9.533 4.994l-35.633 39.264c0-12.483-.227-24.739-.227-37.222z" fill="#fff"/><path fill-rule="evenodd" clip-rule="evenodd" d="M349.134 54.565c-.227-5.674-6.582-6.808-9.759-6.808-2.951 0-8.171 1.361-8.625 6.808v61.508c1.362 4.085 5.674 5.22 8.625 5.447 2.95.227 6.355-.908 9.078-3.859l36.541-39.491c0 12.256.227 24.739.227 36.995 1.135 5.674 5.901 6.128 8.852 6.128 2.95.227 7.036 0 9.532-5.22V54.112c-2.042-5.902-5.901-6.355-9.078-6.583-2.951-.226-6.355 1.362-9.533 4.994l-35.633 39.264c0-12.483-.227-24.739-.227-37.222z" fill="#970E0B"/><path d="M424.711 56.837c-3.631 18.838-6.809 37.676-10.44 56.514-.454 6.582 5.447 8.171 8.397 8.398 3.178.227 8.398-1.135 10.214-7.49l6.582-35.86c4.539 12.483 9.078 24.739 13.618 37.222 2.723 5.901 6.355 6.128 9.532 6.355 3.178.227 7.944-1.362 9.986-5.674l12.937-37.903c2.497 12.71 4.994 25.42 7.49 38.357 2.497 5.22 5.901 5.447 8.852 5.22 3.177-.227 8.624-.908 9.532-7.944-3.404-19.746-7.49-37.903-11.121-57.422-1.589-5.9-7.717-8.397-11.802-8.397-4.085-.227-9.079.454-12.256 7.49l-13.391 35.406c-4.085-11.348-8.398-22.697-12.483-34.045-5.22-9.986-9.305-9.305-13.618-9.305-4.312 0-9.986 1.362-12.029 9.078z" fill="#fff"/><path d="M424.711 56.837c-3.631 18.838-6.809 37.676-10.44 56.514-.454 6.582 5.447 8.171 8.397 8.398 3.178.227 8.398-1.135 10.214-7.49l6.582-35.86c4.539 12.483 9.078 24.739 13.618 37.222 2.723 5.901 6.355 6.128 9.532 6.355 3.178.227 7.944-1.362 9.986-5.674l12.937-37.903c2.497 12.71 4.994 25.42 7.49 38.357 2.497 5.22 5.901 5.447 8.852 5.22 3.177-.227 8.624-.908 9.532-7.944-3.404-19.746-7.49-37.903-11.121-57.422-1.589-5.9-7.717-8.397-11.802-8.397-4.085-.227-9.079.454-12.256 7.49l-13.391 35.406c-4.085-11.348-8.398-22.697-12.483-34.045-5.22-9.986-9.305-9.305-13.618-9.305-4.312 0-9.986 1.362-12.029 9.078z" fill="#970E0B"/><path fill-rule="evenodd" clip-rule="evenodd" d="M424.711 56.837c-3.631 18.838-6.809 37.676-10.44 56.514-.454 6.582 5.447 8.171 8.397 8.398 3.178.227 8.398-1.135 10.214-7.49l6.582-35.86c4.539 12.483 9.078 24.739 13.618 37.222 2.723 5.901 6.355 6.128 9.532 6.355 3.178.227 7.944-1.362 9.986-5.674l12.937-37.903c2.497 12.71 4.994 25.42 7.49 38.357 2.497 5.22 5.901 5.447 8.852 5.22 3.177-.227 8.624-.908 9.532-7.944-3.404-19.746-7.49-37.903-11.121-57.422-1.589-5.9-7.717-8.397-11.802-8.397-4.085-.227-9.079.454-12.256 7.49l-13.391 35.406c-4.085-11.348-8.398-22.697-12.483-34.045-5.22-9.986-9.305-9.305-13.618-9.305-4.312 0-9.986 1.362-12.029 9.078z" fill="#fff"/><path fill-rule="evenodd" clip-rule="evenodd" d="M424.711 56.837c-3.631 18.838-6.809 37.676-10.44 56.514-.454 6.582 5.447 8.171 8.397 8.398 3.178.227 8.398-1.135 10.214-7.49l6.582-35.86c4.539 12.483 9.078 24.739 13.618 37.222 2.723 5.901 6.355 6.128 9.532 6.355 3.178.227 7.944-1.362 9.986-5.674l12.937-37.903c2.497 12.71 4.994 25.42 7.49 38.357 2.497 5.22 5.901 5.447 8.852 5.22 3.177-.227 8.624-.908 9.532-7.944-3.404-19.746-7.49-37.903-11.121-57.422-1.589-5.9-7.717-8.397-11.802-8.397-4.085-.227-9.079.454-12.256 7.49l-13.391 35.406c-4.085-11.348-8.398-22.697-12.483-34.045-5.22-9.986-9.305-9.305-13.618-9.305-4.312 0-9.986 1.362-12.029 9.078z" fill="#970E0B"/><path d="M529.564 48.664c-4.994.227-7.036 4.54-6.809 7.263-.227 19.292-.227 38.584-.454 57.649.908 5.22 4.085 7.263 9.759 7.49 10.894-.227 21.562-.227 32.456-.454 5.674-1.589 5.901-5.22 5.901-7.717s-.681-6.582-5.901-7.036l-23.831-.227V91.56h20.653c6.128-.453 7.49-5.22 7.263-7.49-.227-2.723-.227-6.581-6.355-7.49l-21.561-.453.227-12.937c7.943-.227 15.887-.227 23.831-.454 4.312-.68 5.674-4.993 5.22-7.263-.454-2.496-.681-6.809-7.263-7.263-11.348.454-21.788.227-33.136.454z" fill="#fff"/><path d="M529.564 48.664c-4.994.227-7.036 4.54-6.809 7.263-.227 19.292-.227 38.584-.454 57.649.908 5.22 4.085 7.263 9.759 7.49 10.894-.227 21.562-.227 32.456-.454 5.674-1.589 5.901-5.22 5.901-7.717s-.681-6.582-5.901-7.036l-23.831-.227V91.56h20.653c6.128-.453 7.49-5.22 7.263-7.49-.227-2.723-.227-6.581-6.355-7.49l-21.561-.453.227-12.937c7.943-.227 15.887-.227 23.831-.454 4.312-.68 5.674-4.993 5.22-7.263-.454-2.496-.681-6.809-7.263-7.263-11.348.454-21.788.227-33.136.454z" fill="#970E0B"/><path fill-rule="evenodd" clip-rule="evenodd" d="M529.564 48.664c-4.994.227-7.036 4.54-6.809 7.263-.227 19.292-.227 38.584-.454 57.649.908 5.22 4.085 7.263 9.759 7.49 10.894-.227 21.562-.227 32.456-.454 5.674-1.589 5.901-5.22 5.901-7.717s-.681-6.582-5.901-7.036l-23.831-.227V91.56h20.653c6.128-.453 7.49-5.22 7.263-7.49-.227-2.723-.227-6.581-6.355-7.49l-21.561-.453.227-12.937c7.943-.227 15.887-.227 23.831-.454 4.312-.68 5.674-4.993 5.22-7.263-.454-2.496-.681-6.809-7.263-7.263-11.348.454-21.788.227-33.136.454z" fill="#fff"/><path fill-rule="evenodd" clip-rule="evenodd" d="M529.564 48.664c-4.994.227-7.036 4.54-6.809 7.263-.227 19.292-.227 38.584-.454 57.649.908 5.22 4.085 7.263 9.759 7.49 10.894-.227 21.562-.227 32.456-.454 5.674-1.589 5.901-5.22 5.901-7.717s-.681-6.582-5.901-7.036l-23.831-.227V91.56h20.653c6.128-.453 7.49-5.22 7.263-7.49-.227-2.723-.227-6.581-6.355-7.49l-21.561-.453.227-12.937c7.943-.227 15.887-.227 23.831-.454 4.312-.68 5.674-4.993 5.22-7.263-.454-2.496-.681-6.809-7.263-7.263-11.348.454-21.788.227-33.136.454z" fill="#970E0B"/><path d="M615.58 104.952l12.256-29.278 12.256 29.278H615.58zm-20.427 0h-5.447c-6.809 0-8.171 4.994-8.171 7.717 0 2.27 2.043 7.717 7.717 7.717h76.26c7.943-.908 8.397-5.674 8.397-8.398 0-2.496-.907-7.036-8.624-7.49l-5.447-.227c-7.944-17.249-15.888-34.498-24.058-51.747-1.589-4.313-5.902-5.447-8.625-5.447-2.951 0-6.582 1.135-8.852 5.674l-23.15 52.201z" fill="#fff"/><path d="M615.58 104.952l12.256-29.278 12.256 29.278H615.58zm-20.427 0h-5.447c-6.809 0-8.171 4.994-8.171 7.717 0 2.27 2.043 7.717 7.717 7.717h76.26c7.943-.908 8.397-5.674 8.397-8.398 0-2.496-.907-7.036-8.624-7.49l-5.447-.227c-7.944-17.249-15.888-34.498-24.058-51.747-1.589-4.313-5.902-5.447-8.625-5.447-2.951 0-6.582 1.135-8.852 5.674l-23.15 52.201z" fill="#970E0B"/><path fill-rule="evenodd" clip-rule="evenodd" d="M615.58 104.952l12.256-29.278 12.256 29.278H615.58zm-20.427 0h-5.447c-6.809 0-8.171 4.994-8.171 7.717 0 2.27 2.043 7.717 7.717 7.717h76.26c7.943-.908 8.397-5.674 8.397-8.398 0-2.496-.907-7.036-8.624-7.49l-5.447-.227c-7.944-17.249-15.888-34.498-24.058-51.747-1.589-4.313-5.902-5.447-8.625-5.447-2.951 0-6.582 1.135-8.852 5.674l-23.15 52.201z" fill="#fff"/><path fill-rule="evenodd" clip-rule="evenodd" d="M615.58 104.952l12.256-29.278 12.256 29.278H615.58zm-20.427 0h-5.447c-6.809 0-8.171 4.994-8.171 7.717 0 2.27 2.043 7.717 7.717 7.717h76.26c7.943-.908 8.397-5.674 8.397-8.398 0-2.496-.907-7.036-8.624-7.49l-5.447-.227c-7.944-17.249-15.888-34.498-24.058-51.747-1.589-4.313-5.902-5.447-8.625-5.447-2.951 0-6.582 1.135-8.852 5.674l-23.15 52.201z" fill="#970E0B"/><path d="M730.213 14.848h5.448l-2.724-8.624-2.724 8.624zm-2.95 8.398h-4.766l7.716-22.015h5.221l7.716 22.015h-4.993l-1.362-4.54h-7.943l-1.589 4.54zm-8.171 0h-4.539V5.09h-6.582V1.231h17.703v3.858h-6.582v18.157zm-20.2-11.802c1.362 0 2.27-.454 2.724-1.135.454-.68.681-1.589.681-2.496 0-1.135-.227-1.816-.908-2.27-.681-.454-1.589-.68-2.95-.68h-3.632v6.354h4.085v.227zm-4.085 11.802h-4.539V1.231h9.986c1.362 0 2.497.227 3.632.908.908.68 1.815 1.361 2.269 2.496.454 1.135.908 2.27.908 3.632 0 .907-.227 1.815-.681 2.95-.454 1.135-1.135 2.043-2.042 2.95-1.135.909-2.497 1.135-4.313 1.135h-5.22v7.944zm-18.157-3.404c.681 0 1.362-.227 2.043-.454a4.931 4.931 0 001.815-1.135c.681-.68 1.135-1.362 1.362-2.497.454-.908.454-2.27.454-3.631a15.78 15.78 0 00-.454-3.631c-.454-.908-.908-1.816-1.362-2.497-.68-.681-1.134-.908-1.815-1.135-.681-.227-1.362-.454-2.043-.454s-1.362.227-2.043.454a4.939 4.939 0 00-1.815 1.135c-.681.68-1.135 1.362-1.362 2.27-.454.907-.454 2.27-.454 3.631 0 1.362.227 2.723.454 3.631.454.908.908 1.816 1.362 2.27.681.68 1.134.908 1.815 1.135.681.908 1.362.908 2.043.908zm0-19.292c.908 0 2.043.227 3.178.454 1.134.227 2.269.908 3.404 1.588 1.135.908 2.043 2.043 2.724 3.632.68 1.589 1.134 3.631 1.134 5.9 0 2.497-.454 4.313-1.134 5.902-.681 1.589-1.589 2.724-2.724 3.631a7.72 7.72 0 01-3.404 1.59c-1.135.226-2.043.453-3.178.453-.908 0-2.043-.227-3.177-.454-1.135-.227-2.27-.908-3.405-1.589-1.135-.907-2.043-2.042-2.723-3.631-.681-1.589-1.135-3.631-1.135-5.901 0-2.497.454-4.312 1.135-5.901.68-1.589 1.588-2.724 2.723-3.632a7.718 7.718 0 013.405-1.588c1.134-.227 2.269-.454 3.177-.454zm-26.328 4.54v18.156h-4.539V1.231h17.476v22.015h-4.539V5.09h-8.398zM638.52 8.493c-.227-1.135-.681-2.043-1.362-2.724-.681-.68-1.815-1.135-3.404-1.135-1.362 0-2.724.681-3.631 1.816-1.135 1.135-1.589 3.177-1.589 5.9 0 1.363.227 2.724.454 3.86.454 1.134.908 2.042 1.815 2.723.908.68 1.816.908 2.951.908.908 0 1.589-.227 2.269-.454.681-.227 1.135-.681 1.589-1.362.454-.68.681-1.362.908-2.27h4.539c-.227 1.59-.907 2.95-1.588 4.313-.908 1.134-1.816 2.27-3.178 2.95-1.362.681-2.95.908-4.539.908-2.043 0-3.632-.454-5.22-1.362-1.589-.908-2.724-2.27-3.405-3.858-.908-1.816-1.361-3.859-1.361-6.355 0-2.497.453-4.54 1.361-6.355.908-1.816 2.043-2.95 3.632-3.858 1.588-.908 3.177-1.362 5.22-1.362 1.589 0 2.95.227 4.085.68 1.135.455 2.043 1.135 2.951 1.816.681.681 1.361 1.59 1.815 2.497.454.908.681 1.816.681 2.724h-4.993zm-58.103 7.943l8.625-15.206h4.766v22.015h-4.312V7.586l-8.852 15.66h-4.539V1.231h4.312v15.206zm-39.718-5.674v-5.9h-5.674c-.681 0-1.362.226-1.816.453a2.73 2.73 0 00-1.135 1.135c-.227.454-.227.908-.227 1.362 0 .907.227 1.815.908 2.27.681.453 1.362.907 2.724.907h5.22v-.227zm4.539 12.483h-4.539v-8.624h-2.951l-5.447 8.624h-5.674l6.128-8.624c-1.589-.227-2.723-1.135-3.858-2.27-1.135-1.135-1.589-2.724-1.589-4.312 0-1.135.227-2.27.908-3.178.454-.908 1.362-1.816 2.496-2.496 1.135-.681 2.27-.908 3.632-.908h10.894v21.788zm-30.64-10.44v6.355h3.631c1.362 0 2.497-.227 2.951-.681.681-.454.908-1.135.908-2.27 0-.908-.227-1.589-.681-2.496-.454-.681-1.362-1.135-2.724-1.135h-4.085v.227zm0-3.632h5.22c1.816 0 3.178.454 4.312 1.135 1.135.908 1.816 1.816 2.043 2.95.454 1.136.681 2.043.681 2.951 0 1.362-.227 2.724-.908 3.632-.454 1.135-1.362 1.815-2.269 2.496-.908.681-2.27.908-3.632.908h-9.986V1.231h4.539v7.943zm-21.562.681h5.221c.908 0 1.815-.227 2.269-.68.681-.455.908-.908.908-1.816s-.227-1.362-.908-1.816c-.454-.454-1.361-.454-2.496-.454h-5.22v4.766h.226zm0 9.533h5.675c2.269 0 3.404-1.135 3.404-3.178 0-.908-.227-1.589-.908-2.042-.681-.454-1.362-.681-2.269-.681h-5.675v5.9h-.227zM488.724 1.23h10.667c1.589 0 2.951.227 3.859.908.908.68 1.816 1.361 2.043 2.27.453.907.68 1.815.68 2.496 0 1.362-.227 2.27-.68 2.95-.454.681-1.135 1.135-1.816 1.59 2.269.907 3.404 2.723 3.404 5.22 0 .907-.227 1.588-.454 2.496-.227.68-.681 1.362-1.361 2.042-.454.454-.908.908-1.362 1.135-.454.227-1.135.454-2.043.681-.908.227-2.043.227-3.404.227h-9.306V1.231h-.227zm-13.391 18.61c.681 0 1.362-.226 2.043-.453a4.944 4.944 0 001.816-1.135c.681-.68 1.135-1.362 1.361-2.497.454-.908.454-2.27.454-3.631a15.78 15.78 0 00-.454-3.631c-.453-.908-.907-1.816-1.361-2.497-.681-.681-1.135-.908-1.816-1.135-.681-.227-1.362-.454-2.043-.454s-1.361.227-2.042.454a4.943 4.943 0 00-1.816 1.135c-.681.68-1.135 1.362-1.362 2.27-.454.907-.454 2.27-.454 3.631 0 1.362.227 2.723.454 3.631.454.908.908 1.816 1.362 2.27.681.68 1.135.908 1.816 1.135.681.908 1.361.908 2.042.908zm0-19.291c.908 0 2.043.227 3.178.454 1.135.227 2.269.908 3.404 1.588 1.135.908 2.043 2.043 2.724 3.632s1.135 3.631 1.135 5.9c0 2.497-.454 4.313-1.135 5.902-.681 1.589-1.589 2.724-2.724 3.631a7.715 7.715 0 01-3.404 1.59c-1.135.226-2.043.453-3.178.453-.908 0-2.042-.227-3.177-.454-1.135-.227-2.27-.908-3.405-1.589-1.134-.907-2.042-2.042-2.723-3.631s-1.135-3.631-1.135-5.901c0-2.497.454-4.312 1.135-5.901.681-1.589 1.589-2.724 2.723-3.632a7.718 7.718 0 013.405-1.588c1.135-.227 2.269-.454 3.177-.454zm-20.426 10.894c1.361 0 2.269-.454 2.723-1.135.454-.68.681-1.589.681-2.496 0-1.135-.227-1.816-.908-2.27-.681-.454-1.589-.68-2.95-.68h-3.632v6.354h4.086v.227zm-4.086 11.802h-4.539V1.231h9.986c1.362 0 2.497.227 3.632.908.908.68 1.816 1.361 2.269 2.496.454 1.135.908 2.27.908 3.632 0 .907-.227 1.815-.681 2.95-.454 1.135-1.134 2.043-2.042 2.95-1.135.909-2.497 1.135-4.313 1.135h-5.22v7.944zm-18.157-3.404c.681 0 1.362-.227 2.043-.454a4.944 4.944 0 001.816-1.135c.68-.68 1.134-1.362 1.361-2.497.454-.908.454-2.27.454-3.631a15.78 15.78 0 00-.454-3.631c-.454-.908-.908-1.816-1.361-2.497-.681-.681-1.135-.908-1.816-1.135-.681-.227-1.362-.454-2.043-.454s-1.362.227-2.043.454a4.947 4.947 0 00-1.815 1.135c-.681.68-1.135 1.362-1.362 2.27-.454.907-.454 2.27-.454 3.631 0 1.362.227 2.723.454 3.631.454.908.908 1.816 1.362 2.27.681.68 1.135.908 1.815 1.135.681.908 1.362.908 2.043.908zm0-19.292c.908 0 2.043.227 3.178.454 1.135.227 2.269.908 3.404 1.588 1.135.908 2.043 2.043 2.724 3.632s1.134 3.631 1.134 5.9c0 2.497-.453 4.313-1.134 5.902-.681 1.589-1.589 2.724-2.724 3.631a7.715 7.715 0 01-3.404 1.59c-1.135.226-2.043.453-3.178.453-.908 0-2.043-.227-3.177-.454-1.135-.227-2.27-.908-3.405-1.589-1.135-.907-2.042-2.042-2.723-3.631s-1.135-3.631-1.135-5.901c0-2.497.454-4.312 1.135-5.901.681-1.589 1.588-2.724 2.723-3.632a7.718 7.718 0 013.405-1.588c1.361-.227 2.269-.454 3.177-.454zm-17.703 18.838V5.089h-6.128v7.036c0 2.043-.227 3.631-.454 4.54-.227.907-.681 1.815-1.362 2.496h7.944v.227zm-10.44-7.263V1.23H419.5v18.157h2.043v7.943h-4.312v-4.085h-12.029v4.085h-4.313v-7.943c.681 0 1.362-.227 1.816-.681.454-.454.908-1.135 1.135-2.27.454-1.135.681-2.496.681-4.312zm-7.49-.68c.681 0 1.362.453 2.27.68a6.92 6.92 0 011.815 1.816c.454.68.681 1.588.681 2.723 0 1.135-.227 2.27-.908 3.405-.681 1.134-1.588 1.815-2.723 2.496-1.362.681-2.951.908-4.993.908-1.816 0-3.405-.227-4.767-.68a7.309 7.309 0 01-2.95-1.816c-.681-.681-1.135-1.59-1.362-2.27-.227-.908-.454-1.589-.454-2.497h4.312c0 .454.227 1.135.454 1.589.227.454.681.908 1.589 1.362.681.454 1.589.68 2.951.68 1.134 0 2.042-.226 2.95-.907.908-.681 1.135-1.362 1.135-2.27 0-.68-.227-1.362-.681-1.816-.454-.453-.908-.907-1.589-1.134-.681-.227-1.362-.454-2.042-.454h-3.405V9.628h3.405c1.134 0 2.042-.227 2.723-.68.681-.454 1.135-1.135 1.135-2.043 0-.454-.227-1.135-.454-1.362-.227-.454-.908-.68-1.362-.908-.681-.227-1.362-.227-2.042-.227-1.135 0-2.043.227-2.724.681-.681.454-1.135.908-1.135 1.362-.227.454-.227.908-.227 1.362h-4.312c0-1.135.227-2.043.908-3.178.454-1.135 1.362-2.043 2.723-2.723 1.362-.681 2.951-1.135 4.994-1.135 2.042 0 3.858.454 4.993 1.135 1.362.68 2.042 1.588 2.723 2.496.454.908.681 2.043.681 2.95 0 1.362-.454 2.27-1.135 2.951-.907.454-2.042.908-3.177 1.135zm-47.435-.682v-5.9h-5.675c-.68 0-1.361.226-1.815.453a2.73 2.73 0 00-1.135 1.135c-.227.454-.227.908-.227 1.362 0 .907.227 1.815.908 2.27.681.453 1.362.907 2.723.907h5.221v-.227zm4.539 12.483h-4.539v-8.624h-2.951l-5.447 8.624h-5.674l6.128-8.624c-1.589-.227-2.724-1.135-3.859-2.27-1.134-1.135-1.588-2.724-1.588-4.312 0-1.135.227-2.27.908-3.178.453-.908 1.361-1.816 2.496-2.496 1.135-.681 2.27-.908 3.632-.908h10.894v21.788zM322.36 5.09v11.12c0 2.497-.681 4.313-1.816 5.674-1.135 1.362-2.95 1.816-5.22 1.816v-3.858c1.135 0 1.816-.227 2.27-.908.454-.681.681-1.589.681-2.497V1.457h14.979v22.016h-4.539V5.316h-6.355v-.227zm-13.391 14.299v-14.3h-6.128v7.036c0 2.043-.227 3.631-.454 4.54-.227.907-.681 1.815-1.362 2.496h7.944v.227zm-10.44-7.263V1.23h14.979v18.157h2.043v7.943h-4.312v-4.085H299.21v4.085h-4.313v-7.943c.681 0 1.362-.227 1.816-.681.454-.454.908-1.135 1.135-2.27.454-1.135.681-2.496.681-4.312zm-44.939-2.27h5.22c.908 0 1.816-.227 2.27-.68.681-.455.908-.908.908-1.816s-.227-1.362-.908-1.816c-.454-.454-1.362-.454-2.497-.454h-5.22v4.766h.227zm0 9.533h5.674c2.27 0 3.404-1.135 3.404-3.178 0-.908-.227-1.589-.907-2.042-.681-.454-1.362-.681-2.27-.681h-5.674v5.9h-.227zM249.278 1.23h10.667c1.589 0 2.95.227 3.858.908.908.68 1.816 1.361 2.043 2.27.454.907.681 1.815.681 2.496 0 1.362-.227 2.27-.681 2.95-.454.681-1.135 1.135-1.816 1.59 2.27.907 3.405 2.723 3.405 5.22 0 .907-.227 1.588-.454 2.496-.227.68-.681 1.362-1.362 2.042-.454.454-.908.908-1.362 1.135-.454.227-1.135.454-2.042.681-.908.227-2.043.227-3.405.227h-9.305V1.231h-.227zM235.66 19.84c.681 0 1.362-.226 2.042-.453a4.944 4.944 0 001.816-1.135c.681-.68 1.135-1.362 1.362-2.497.454-.908.454-2.27.454-3.631a15.78 15.78 0 00-.454-3.631c-.454-.908-.908-1.816-1.362-2.497-.681-.681-1.135-.908-1.816-1.135-.68-.227-1.361-.454-2.042-.454-.681 0-1.362.227-2.043.454a4.943 4.943 0 00-1.816 1.135c-.68.68-1.134 1.362-1.361 2.27-.454.907-.454 2.27-.454 3.631 0 1.362.227 2.723.454 3.631.454.908.907 1.816 1.361 2.27.681.68 1.135.908 1.816 1.135.681.908 1.362.908 2.043.908zm0-19.291c.908 0 2.042.227 3.177.454 1.135.227 2.27.908 3.405 1.588 1.135.908 2.042 2.043 2.723 3.632s1.135 3.631 1.135 5.9c0 2.497-.454 4.313-1.135 5.902-.681 1.589-1.588 2.724-2.723 3.631a7.718 7.718 0 01-3.405 1.59c-1.135.226-2.042.453-3.177.453-.908 0-2.043-.227-3.178-.454-1.135-.227-2.269-.908-3.404-1.589-1.135-.907-2.043-2.042-2.724-3.631s-1.135-3.631-1.135-5.901c0-2.497.454-4.312 1.135-5.901.681-1.589 1.589-2.724 2.724-3.632a7.715 7.715 0 013.404-1.588c1.362-.227 2.27-.454 3.178-.454zm-26.328 12.71v9.76h-4.539V1.003h4.539V9.4h8.398V1.004h4.539v22.015h-4.539v-9.76h-8.398zm-17.703 6.582c.681 0 1.362-.227 2.043-.454a4.948 4.948 0 001.815-1.135c.681-.68 1.135-1.362 1.362-2.497.454-.908.454-2.27.454-3.631a15.78 15.78 0 00-.454-3.631c-.454-.908-.908-1.816-1.362-2.497-.681-.681-1.135-.908-1.815-1.135-.681-.227-1.362-.454-2.043-.454s-1.362.227-2.043.454a4.943 4.943 0 00-1.816 1.135c-.68.68-1.134 1.362-1.361 2.27-.454.907-.454 2.27-.454 3.631 0 1.362.227 2.723.454 3.631.454.908.908 1.816 1.361 2.27.681.68 1.135.908 1.816 1.135.681.908 1.362.908 2.043.908zm0-19.292c.908 0 2.043.227 3.177.454 1.135.227 2.27.908 3.405 1.588 1.135.908 2.042 2.043 2.723 3.632s1.135 3.631 1.135 5.9c0 2.497-.454 4.313-1.135 5.902-.681 1.589-1.588 2.724-2.723 3.631a7.718 7.718 0 01-3.405 1.59c-1.134.226-2.042.453-3.177.453-.908 0-2.043-.227-3.178-.454-1.134-.227-2.269-.908-3.404-1.589-1.135-.907-2.043-2.042-2.724-3.631s-1.134-3.631-1.134-5.901c0-2.497.453-4.312 1.134-5.901.681-1.589 1.589-2.724 2.724-3.632a7.72 7.72 0 013.404-1.588c1.135-.227 2.27-.454 3.178-.454zm-24.058 4.54v11.12c0 2.497-.681 4.313-1.816 5.674-1.135 1.362-2.951 1.816-5.22 1.816v-3.858c1.135 0 1.816-.227 2.269-.908.454-.681.681-1.589.681-2.497V1.457h14.98v22.016h-4.539V5.316h-6.355v-.227zm-20.427 9.758h5.447l-2.723-8.624-2.724 8.624zm-2.724 8.398h-4.766l7.717-22.015h5.22l7.717 22.015h-4.993l-1.362-4.54h-7.944l-1.589 4.54zm-9.532-14.752c-.227-1.135-.681-2.043-1.362-2.724-.681-.68-1.816-1.135-3.404-1.135-1.362 0-2.724.681-3.632 1.816-1.135 1.135-1.588 3.177-1.588 5.9 0 1.363.227 2.724.453 3.86.454 1.134.908 2.042 1.816 2.723.908.68 1.816.908 2.951.908.908 0 1.588-.227 2.269-.454s1.135-.681 1.589-1.362c.454-.68.681-1.362.908-2.27h4.539c-.227 1.59-.908 2.95-1.589 4.313-.907 1.134-1.815 2.27-3.177 2.95-1.362.681-2.951.908-4.539.908-2.043 0-3.632-.454-5.22-1.362-1.589-.908-2.724-2.27-3.405-3.858-.908-1.816-1.362-3.859-1.362-6.355 0-2.497.454-4.54 1.362-6.355.908-1.816 2.043-2.95 3.632-3.858 1.588-.908 3.177-1.362 5.22-1.362 1.588 0 2.95.227 4.085.68 1.135.455 2.043 1.135 2.951 1.816A10.1 10.1 0 01139.2 5.77c.454.908.681 1.816.681 2.724h-4.993zm-56.06 4.312v6.355h3.631c1.362 0 2.497-.227 2.95-.681.682-.454.909-1.135.909-2.27 0-.908-.227-1.589-.681-2.496-.454-.681-1.362-1.135-2.724-1.135h-4.085v.227zm0-3.632h5.22c1.816 0 3.178.454 4.312 1.135 1.135.908 1.816 1.816 2.043 2.95.454 1.136.681 2.043.681 2.951 0 1.362-.227 2.724-.908 3.632-.454 1.135-1.362 1.815-2.27 2.496-.907.681-2.27.908-3.63.908h-9.987V1.231h4.539v7.943zM65.664 23.246h-4.54V5.09h-6.581V1.231h17.703v3.858h-6.582v18.157zM52.954 5.09H41.38v4.54h10.667v3.858H41.38v5.674h12.029v3.858H36.84V1.004h15.887v4.085h.227zM29.577 8.494c-.227-1.135-.681-2.043-1.362-2.724-.68-.68-1.816-1.135-3.404-1.135-1.362 0-2.724.681-3.632 1.816-1.135 1.135-1.588 3.177-1.588 5.9 0 1.363.226 2.724.453 3.86.454 1.134.908 2.042 1.816 2.723.908.68 1.816.908 2.95.908.909 0 1.59-.227 2.27-.454.681-.227 1.135-.681 1.589-1.362.454-.68.68-1.362.908-2.27h4.54c-.228 1.59-.909 2.95-1.59 4.313-.908 1.134-1.815 2.27-3.177 2.95-1.362.681-2.95.908-4.54.908-2.042 0-3.63-.454-5.22-1.362-1.588-.908-2.723-2.27-3.404-3.858-.908-1.816-1.362-3.859-1.362-6.355 0-2.497.454-4.54 1.362-6.355.908-1.816 2.043-2.95 3.631-3.858 1.59-.908 3.178-1.362 5.22-1.362 1.59 0 2.951.227 4.086.68 1.135.455 2.043 1.135 2.95 1.816A10.08 10.08 0 0133.89 5.77c.454.908.681 1.816.681 2.724h-4.993z" fill="#fff"/><path d="M730.213 14.848h5.448l-2.724-8.624-2.724 8.624zm-2.95 8.398h-4.766l7.716-22.015h5.221l7.716 22.015h-4.993l-1.362-4.54h-7.943l-1.589 4.54zm-8.171 0h-4.539V5.09h-6.582V1.231h17.703v3.858h-6.582v18.157zm-20.2-11.802c1.362 0 2.27-.454 2.724-1.135.454-.68.681-1.589.681-2.496 0-1.135-.227-1.816-.908-2.27-.681-.454-1.589-.68-2.95-.68h-3.632v6.354h4.085v.227zm-4.085 11.802h-4.539V1.231h9.986c1.362 0 2.497.227 3.632.908.908.68 1.815 1.361 2.269 2.496.454 1.135.908 2.27.908 3.632 0 .907-.227 1.815-.681 2.95-.454 1.135-1.135 2.043-2.042 2.95-1.135.909-2.497 1.135-4.313 1.135h-5.22v7.944zm-18.157-3.404c.681 0 1.362-.227 2.043-.454a4.931 4.931 0 001.815-1.135c.681-.68 1.135-1.362 1.362-2.497.454-.908.454-2.27.454-3.631a15.78 15.78 0 00-.454-3.631c-.454-.908-.908-1.816-1.362-2.497-.68-.681-1.134-.908-1.815-1.135-.681-.227-1.362-.454-2.043-.454s-1.362.227-2.043.454a4.939 4.939 0 00-1.815 1.135c-.681.68-1.135 1.362-1.362 2.27-.454.907-.454 2.27-.454 3.631 0 1.362.227 2.723.454 3.631.454.908.908 1.816 1.362 2.27.681.68 1.134.908 1.815 1.135.681.908 1.362.908 2.043.908zm0-19.292c.908 0 2.043.227 3.178.454 1.134.227 2.269.908 3.404 1.588 1.135.908 2.043 2.043 2.724 3.632.68 1.589 1.134 3.631 1.134 5.9 0 2.497-.454 4.313-1.134 5.902-.681 1.589-1.589 2.724-2.724 3.631a7.72 7.72 0 01-3.404 1.59c-1.135.226-2.043.453-3.178.453-.908 0-2.043-.227-3.177-.454-1.135-.227-2.27-.908-3.405-1.589-1.135-.907-2.043-2.042-2.723-3.631-.681-1.589-1.135-3.631-1.135-5.901 0-2.497.454-4.312 1.135-5.901.68-1.589 1.588-2.724 2.723-3.632a7.718 7.718 0 013.405-1.588c1.134-.227 2.269-.454 3.177-.454zm-26.328 4.54v18.156h-4.539V1.231h17.476v22.015h-4.539V5.09h-8.398zM638.52 8.493c-.227-1.135-.681-2.043-1.362-2.724-.681-.68-1.815-1.135-3.404-1.135-1.362 0-2.724.681-3.631 1.816-1.135 1.135-1.589 3.177-1.589 5.9 0 1.363.227 2.724.454 3.86.454 1.134.908 2.042 1.815 2.723.908.68 1.816.908 2.951.908.908 0 1.589-.227 2.269-.454.681-.227 1.135-.681 1.589-1.362.454-.68.681-1.362.908-2.27h4.539c-.227 1.59-.907 2.95-1.588 4.313-.908 1.134-1.816 2.27-3.178 2.95-1.362.681-2.95.908-4.539.908-2.043 0-3.632-.454-5.22-1.362-1.589-.908-2.724-2.27-3.405-3.858-.908-1.816-1.361-3.859-1.361-6.355 0-2.497.453-4.54 1.361-6.355.908-1.816 2.043-2.95 3.632-3.858 1.588-.908 3.177-1.362 5.22-1.362 1.589 0 2.95.227 4.085.68 1.135.455 2.043 1.135 2.951 1.816.681.681 1.361 1.59 1.815 2.497.454.908.681 1.816.681 2.724h-4.993zm-58.103 7.943l8.625-15.206h4.766v22.015h-4.312V7.586l-8.852 15.66h-4.539V1.231h4.312v15.206zm-39.718-5.674v-5.9h-5.674c-.681 0-1.362.226-1.816.453a2.73 2.73 0 00-1.135 1.135c-.227.454-.227.908-.227 1.362 0 .907.227 1.815.908 2.27.681.453 1.362.907 2.724.907h5.22v-.227zm4.539 12.483h-4.539v-8.624h-2.951l-5.447 8.624h-5.674l6.128-8.624c-1.589-.227-2.723-1.135-3.858-2.27-1.135-1.135-1.589-2.724-1.589-4.312 0-1.135.227-2.27.908-3.178.454-.908 1.362-1.816 2.496-2.496 1.135-.681 2.27-.908 3.632-.908h10.894v21.788zm-30.64-10.44v6.355h3.631c1.362 0 2.497-.227 2.951-.681.681-.454.908-1.135.908-2.27 0-.908-.227-1.589-.681-2.496-.454-.681-1.362-1.135-2.724-1.135h-4.085v.227zm0-3.632h5.22c1.816 0 3.178.454 4.312 1.135 1.135.908 1.816 1.816 2.043 2.95.454 1.136.681 2.043.681 2.951 0 1.362-.227 2.724-.908 3.632-.454 1.135-1.362 1.815-2.269 2.496-.908.681-2.27.908-3.632.908h-9.986V1.231h4.539v7.943zm-21.562.681h5.221c.908 0 1.815-.227 2.269-.68.681-.455.908-.908.908-1.816s-.227-1.362-.908-1.816c-.454-.454-1.361-.454-2.496-.454h-5.22v4.766h.226zm0 9.533h5.675c2.269 0 3.404-1.135 3.404-3.178 0-.908-.227-1.589-.908-2.042-.681-.454-1.362-.681-2.269-.681h-5.675v5.9h-.227zM488.724 1.23h10.667c1.589 0 2.951.227 3.859.908.908.68 1.816 1.361 2.043 2.27.453.907.68 1.815.68 2.496 0 1.362-.227 2.27-.68 2.95-.454.681-1.135 1.135-1.816 1.59 2.269.907 3.404 2.723 3.404 5.22 0 .907-.227 1.588-.454 2.496-.227.68-.681 1.362-1.361 2.042-.454.454-.908.908-1.362 1.135-.454.227-1.135.454-2.043.681-.908.227-2.043.227-3.404.227h-9.306V1.231h-.227zm-13.391 18.61c.681 0 1.362-.226 2.043-.453a4.944 4.944 0 001.816-1.135c.681-.68 1.135-1.362 1.361-2.497.454-.908.454-2.27.454-3.631a15.78 15.78 0 00-.454-3.631c-.453-.908-.907-1.816-1.361-2.497-.681-.681-1.135-.908-1.816-1.135-.681-.227-1.362-.454-2.043-.454s-1.361.227-2.042.454a4.943 4.943 0 00-1.816 1.135c-.681.68-1.135 1.362-1.362 2.27-.454.907-.454 2.27-.454 3.631 0 1.362.227 2.723.454 3.631.454.908.908 1.816 1.362 2.27.681.68 1.135.908 1.816 1.135.681.908 1.361.908 2.042.908zm0-19.291c.908 0 2.043.227 3.178.454 1.135.227 2.269.908 3.404 1.588 1.135.908 2.043 2.043 2.724 3.632s1.135 3.631 1.135 5.9c0 2.497-.454 4.313-1.135 5.902-.681 1.589-1.589 2.724-2.724 3.631a7.715 7.715 0 01-3.404 1.59c-1.135.226-2.043.453-3.178.453-.908 0-2.042-.227-3.177-.454-1.135-.227-2.27-.908-3.405-1.589-1.134-.907-2.042-2.042-2.723-3.631s-1.135-3.631-1.135-5.901c0-2.497.454-4.312 1.135-5.901.681-1.589 1.589-2.724 2.723-3.632a7.718 7.718 0 013.405-1.588c1.135-.227 2.269-.454 3.177-.454zm-20.426 10.894c1.361 0 2.269-.454 2.723-1.135.454-.68.681-1.589.681-2.496 0-1.135-.227-1.816-.908-2.27-.681-.454-1.589-.68-2.95-.68h-3.632v6.354h4.086v.227zm-4.086 11.802h-4.539V1.231h9.986c1.362 0 2.497.227 3.632.908.908.68 1.816 1.361 2.269 2.496.454 1.135.908 2.27.908 3.632 0 .907-.227 1.815-.681 2.95-.454 1.135-1.134 2.043-2.042 2.95-1.135.909-2.497 1.135-4.313 1.135h-5.22v7.944zm-18.157-3.404c.681 0 1.362-.227 2.043-.454a4.944 4.944 0 001.816-1.135c.68-.68 1.134-1.362 1.361-2.497.454-.908.454-2.27.454-3.631a15.78 15.78 0 00-.454-3.631c-.454-.908-.908-1.816-1.361-2.497-.681-.681-1.135-.908-1.816-1.135-.681-.227-1.362-.454-2.043-.454s-1.362.227-2.043.454a4.947 4.947 0 00-1.815 1.135c-.681.68-1.135 1.362-1.362 2.27-.454.907-.454 2.27-.454 3.631 0 1.362.227 2.723.454 3.631.454.908.908 1.816 1.362 2.27.681.68 1.135.908 1.815 1.135.681.908 1.362.908 2.043.908zm0-19.292c.908 0 2.043.227 3.178.454 1.135.227 2.269.908 3.404 1.588 1.135.908 2.043 2.043 2.724 3.632s1.134 3.631 1.134 5.9c0 2.497-.453 4.313-1.134 5.902-.681 1.589-1.589 2.724-2.724 3.631a7.715 7.715 0 01-3.404 1.59c-1.135.226-2.043.453-3.178.453-.908 0-2.043-.227-3.177-.454-1.135-.227-2.27-.908-3.405-1.589-1.135-.907-2.042-2.042-2.723-3.631s-1.135-3.631-1.135-5.901c0-2.497.454-4.312 1.135-5.901.681-1.589 1.588-2.724 2.723-3.632a7.718 7.718 0 013.405-1.588c1.361-.227 2.269-.454 3.177-.454zm-17.703 18.838V5.089h-6.128v7.036c0 2.043-.227 3.631-.454 4.54-.227.907-.681 1.815-1.362 2.496h7.944v.227zm-10.44-7.263V1.23H419.5v18.157h2.043v7.943h-4.312v-4.085h-12.029v4.085h-4.313v-7.943c.681 0 1.362-.227 1.816-.681.454-.454.908-1.135 1.135-2.27.454-1.135.681-2.496.681-4.312zm-7.49-.68c.681 0 1.362.453 2.27.68a6.92 6.92 0 011.815 1.816c.454.68.681 1.588.681 2.723 0 1.135-.227 2.27-.908 3.405-.681 1.134-1.588 1.815-2.723 2.496-1.362.681-2.951.908-4.993.908-1.816 0-3.405-.227-4.767-.68a7.309 7.309 0 01-2.95-1.816c-.681-.681-1.135-1.59-1.362-2.27-.227-.908-.454-1.589-.454-2.497h4.312c0 .454.227 1.135.454 1.589.227.454.681.908 1.589 1.362.681.454 1.589.68 2.951.68 1.134 0 2.042-.226 2.95-.907.908-.681 1.135-1.362 1.135-2.27 0-.68-.227-1.362-.681-1.816-.454-.453-.908-.907-1.589-1.134-.681-.227-1.362-.454-2.042-.454h-3.405V9.628h3.405c1.134 0 2.042-.227 2.723-.68.681-.454 1.135-1.135 1.135-2.043 0-.454-.227-1.135-.454-1.362-.227-.454-.908-.68-1.362-.908-.681-.227-1.362-.227-2.042-.227-1.135 0-2.043.227-2.724.681-.681.454-1.135.908-1.135 1.362-.227.454-.227.908-.227 1.362h-4.312c0-1.135.227-2.043.908-3.178.454-1.135 1.362-2.043 2.723-2.723 1.362-.681 2.951-1.135 4.994-1.135 2.042 0 3.858.454 4.993 1.135 1.362.68 2.042 1.588 2.723 2.496.454.908.681 2.043.681 2.95 0 1.362-.454 2.27-1.135 2.951-.907.454-2.042.908-3.177 1.135zm-47.435-.682v-5.9h-5.675c-.68 0-1.361.226-1.815.453a2.73 2.73 0 00-1.135 1.135c-.227.454-.227.908-.227 1.362 0 .907.227 1.815.908 2.27.681.453 1.362.907 2.723.907h5.221v-.227zm4.539 12.483h-4.539v-8.624h-2.951l-5.447 8.624h-5.674l6.128-8.624c-1.589-.227-2.724-1.135-3.859-2.27-1.134-1.135-1.588-2.724-1.588-4.312 0-1.135.227-2.27.908-3.178.453-.908 1.361-1.816 2.496-2.496 1.135-.681 2.27-.908 3.632-.908h10.894v21.788zM322.36 5.09v11.12c0 2.497-.681 4.313-1.816 5.674-1.135 1.362-2.95 1.816-5.22 1.816v-3.858c1.135 0 1.816-.227 2.27-.908.454-.681.681-1.589.681-2.497V1.457h14.979v22.016h-4.539V5.316h-6.355v-.227zm-13.391 14.299v-14.3h-6.128v7.036c0 2.043-.227 3.631-.454 4.54-.227.907-.681 1.815-1.362 2.496h7.944v.227zm-10.44-7.263V1.23h14.979v18.157h2.043v7.943h-4.312v-4.085H299.21v4.085h-4.313v-7.943c.681 0 1.362-.227 1.816-.681.454-.454.908-1.135 1.135-2.27.454-1.135.681-2.496.681-4.312zm-44.939-2.27h5.22c.908 0 1.816-.227 2.27-.68.681-.455.908-.908.908-1.816s-.227-1.362-.908-1.816c-.454-.454-1.362-.454-2.497-.454h-5.22v4.766h.227zm0 9.533h5.674c2.27 0 3.404-1.135 3.404-3.178 0-.908-.227-1.589-.907-2.042-.681-.454-1.362-.681-2.27-.681h-5.674v5.9h-.227zM249.278 1.23h10.667c1.589 0 2.95.227 3.858.908.908.68 1.816 1.361 2.043 2.27.454.907.681 1.815.681 2.496 0 1.362-.227 2.27-.681 2.95-.454.681-1.135 1.135-1.816 1.59 2.27.907 3.405 2.723 3.405 5.22 0 .907-.227 1.588-.454 2.496-.227.68-.681 1.362-1.362 2.042-.454.454-.908.908-1.362 1.135-.454.227-1.135.454-2.042.681-.908.227-2.043.227-3.405.227h-9.305V1.231h-.227zM235.66 19.84c.681 0 1.362-.226 2.042-.453a4.944 4.944 0 001.816-1.135c.681-.68 1.135-1.362 1.362-2.497.454-.908.454-2.27.454-3.631a15.78 15.78 0 00-.454-3.631c-.454-.908-.908-1.816-1.362-2.497-.681-.681-1.135-.908-1.816-1.135-.68-.227-1.361-.454-2.042-.454-.681 0-1.362.227-2.043.454a4.943 4.943 0 00-1.816 1.135c-.68.68-1.134 1.362-1.361 2.27-.454.907-.454 2.27-.454 3.631 0 1.362.227 2.723.454 3.631.454.908.907 1.816 1.361 2.27.681.68 1.135.908 1.816 1.135.681.908 1.362.908 2.043.908zm0-19.291c.908 0 2.042.227 3.177.454 1.135.227 2.27.908 3.405 1.588 1.135.908 2.042 2.043 2.723 3.632s1.135 3.631 1.135 5.9c0 2.497-.454 4.313-1.135 5.902-.681 1.589-1.588 2.724-2.723 3.631a7.718 7.718 0 01-3.405 1.59c-1.135.226-2.042.453-3.177.453-.908 0-2.043-.227-3.178-.454-1.135-.227-2.269-.908-3.404-1.589-1.135-.907-2.043-2.042-2.724-3.631s-1.135-3.631-1.135-5.901c0-2.497.454-4.312 1.135-5.901.681-1.589 1.589-2.724 2.724-3.632a7.715 7.715 0 013.404-1.588c1.362-.227 2.27-.454 3.178-.454zm-26.328 12.71v9.76h-4.539V1.003h4.539V9.4h8.398V1.004h4.539v22.015h-4.539v-9.76h-8.398zm-17.703 6.582c.681 0 1.362-.227 2.043-.454a4.948 4.948 0 001.815-1.135c.681-.68 1.135-1.362 1.362-2.497.454-.908.454-2.27.454-3.631a15.78 15.78 0 00-.454-3.631c-.454-.908-.908-1.816-1.362-2.497-.681-.681-1.135-.908-1.815-1.135-.681-.227-1.362-.454-2.043-.454s-1.362.227-2.043.454a4.943 4.943 0 00-1.816 1.135c-.68.68-1.134 1.362-1.361 2.27-.454.907-.454 2.27-.454 3.631 0 1.362.227 2.723.454 3.631.454.908.908 1.816 1.361 2.27.681.68 1.135.908 1.816 1.135.681.908 1.362.908 2.043.908zm0-19.292c.908 0 2.043.227 3.177.454 1.135.227 2.27.908 3.405 1.588 1.135.908 2.042 2.043 2.723 3.632s1.135 3.631 1.135 5.9c0 2.497-.454 4.313-1.135 5.902-.681 1.589-1.588 2.724-2.723 3.631a7.718 7.718 0 01-3.405 1.59c-1.134.226-2.042.453-3.177.453-.908 0-2.043-.227-3.178-.454-1.134-.227-2.269-.908-3.404-1.589-1.135-.907-2.043-2.042-2.724-3.631s-1.134-3.631-1.134-5.901c0-2.497.453-4.312 1.134-5.901.681-1.589 1.589-2.724 2.724-3.632a7.72 7.72 0 013.404-1.588c1.135-.227 2.27-.454 3.178-.454zm-24.058 4.54v11.12c0 2.497-.681 4.313-1.816 5.674-1.135 1.362-2.951 1.816-5.22 1.816v-3.858c1.135 0 1.816-.227 2.269-.908.454-.681.681-1.589.681-2.497V1.457h14.98v22.016h-4.539V5.316h-6.355v-.227zm-20.427 9.758h5.447l-2.723-8.624-2.724 8.624zm-2.724 8.398h-4.766l7.717-22.015h5.22l7.717 22.015h-4.993l-1.362-4.54h-7.944l-1.589 4.54zm-9.532-14.752c-.227-1.135-.681-2.043-1.362-2.724-.681-.68-1.816-1.135-3.404-1.135-1.362 0-2.724.681-3.632 1.816-1.135 1.135-1.588 3.177-1.588 5.9 0 1.363.227 2.724.453 3.86.454 1.134.908 2.042 1.816 2.723.908.68 1.816.908 2.951.908.908 0 1.588-.227 2.269-.454s1.135-.681 1.589-1.362c.454-.68.681-1.362.908-2.27h4.539c-.227 1.59-.908 2.95-1.589 4.313-.907 1.134-1.815 2.27-3.177 2.95-1.362.681-2.951.908-4.539.908-2.043 0-3.632-.454-5.22-1.362-1.589-.908-2.724-2.27-3.405-3.858-.908-1.816-1.362-3.859-1.362-6.355 0-2.497.454-4.54 1.362-6.355.908-1.816 2.043-2.95 3.632-3.858 1.588-.908 3.177-1.362 5.22-1.362 1.588 0 2.95.227 4.085.68 1.135.455 2.043 1.135 2.951 1.816A10.1 10.1 0 01139.2 5.77c.454.908.681 1.816.681 2.724h-4.993zm-56.06 4.312v6.355h3.631c1.362 0 2.497-.227 2.95-.681.682-.454.909-1.135.909-2.27 0-.908-.227-1.589-.681-2.496-.454-.681-1.362-1.135-2.724-1.135h-4.085v.227zm0-3.632h5.22c1.816 0 3.178.454 4.312 1.135 1.135.908 1.816 1.816 2.043 2.95.454 1.136.681 2.043.681 2.951 0 1.362-.227 2.724-.908 3.632-.454 1.135-1.362 1.815-2.27 2.496-.907.681-2.27.908-3.63.908h-9.987V1.231h4.539v7.943zM65.664 23.246h-4.54V5.09h-6.581V1.231h17.703v3.858h-6.582v18.157zM52.954 5.09H41.38v4.54h10.667v3.858H41.38v5.674h12.029v3.858H36.84V1.004h15.887v4.085h.227zM29.577 8.494c-.227-1.135-.681-2.043-1.362-2.724-.68-.68-1.816-1.135-3.404-1.135-1.362 0-2.724.681-3.632 1.816-1.135 1.135-1.588 3.177-1.588 5.9 0 1.363.226 2.724.453 3.86.454 1.134.908 2.042 1.816 2.723.908.68 1.816.908 2.95.908.909 0 1.59-.227 2.27-.454.681-.227 1.135-.681 1.589-1.362.454-.68.68-1.362.908-2.27h4.54c-.228 1.59-.909 2.95-1.59 4.313-.908 1.134-1.815 2.27-3.177 2.95-1.362.681-2.95.908-4.54.908-2.042 0-3.63-.454-5.22-1.362-1.588-.908-2.723-2.27-3.404-3.858-.908-1.816-1.362-3.859-1.362-6.355 0-2.497.454-4.54 1.362-6.355.908-1.816 2.043-2.95 3.631-3.858 1.59-.908 3.178-1.362 5.22-1.362 1.59 0 2.951.227 4.086.68 1.135.455 2.043 1.135 2.95 1.816A10.08 10.08 0 0133.89 5.77c.454.908.681 1.816.681 2.724h-4.993z" fill="#970E0B"/><path d="M734.064 164.19h5.447l-2.724-8.625-2.723 8.625zm-2.497 8.397h-4.766l7.49-22.015h5.22l7.49 22.015h-4.767l-1.361-4.539h-7.944l-1.362 4.539zm-17.93 0h-4.539v-22.015h4.539v8.852l8.171-8.852h5.674l-8.625 9.079 9.079 12.936h-5.674l-6.582-9.532-2.043 2.27v7.262zm-22.242-6.808l8.397-15.207h4.767v22.015h-4.086v-15.66l-8.624 15.66h-4.54v-22.015h4.086v15.207zm-12.937 6.808h-4.54V154.43h-6.355v-3.858h17.25v3.858h-6.355v18.157zm-23.831 0h-4.54v-22.015h4.54v8.852l8.17-8.852h5.674l-8.624 9.079 9.078 12.936h-5.674l-6.582-9.532-2.042 2.27v7.262zM634.2 164.19h5.447l-2.724-8.625-2.723 8.625zm-2.724 8.397h-4.766l7.49-22.015h5.22l7.49 22.015h-4.766l-1.362-4.539h-7.717l-1.589 4.539zm-17.703-18.157v11.122c0 2.496-.681 4.312-1.816 5.674-1.134 1.361-2.95 1.815-5.22 1.815v-4.085c1.135 0 1.816-.227 2.27-.908.454-.681.681-1.589.681-2.496v-14.98h14.525v22.015h-4.539V154.43h-5.901zm-22.469 11.349l8.397-15.207h4.767v22.015h-4.086v-15.66l-8.624 15.66h-4.54v-22.015h4.086v15.207zm-21.335.907v-10.213c-1.362 0-2.723.454-3.631 1.135-1.135.681-1.589 2.043-1.589 3.858 0 1.816.454 3.178 1.589 3.859.908.907 2.042 1.361 3.631 1.361zm4.312-10.213v10.213c.908 0 1.589-.227 2.497-.454.908-.226 1.362-.907 2.043-1.588.454-.681.908-1.816.908-2.951 0-1.362-.227-2.269-.908-2.95-.454-.681-1.135-1.362-2.043-1.589-.681-.681-1.589-.681-2.497-.681zm0-3.631c1.362 0 2.951.227 4.313.907 1.362.454 2.723 1.362 3.631 2.724.908 1.362 1.589 2.951 1.589 4.993 0 1.589-.227 2.951-.908 4.086-.681 1.134-1.362 2.042-2.27 2.723-.907.681-2.042 1.135-3.177 1.362-1.135.227-2.27.454-3.178.454v2.269h-4.539v-2.269c-1.135 0-2.042-.227-3.177-.454-1.135-.227-2.27-.681-3.178-1.362-.908-.681-1.815-1.589-2.496-2.723-.681-1.135-.908-2.497-.908-4.086 0-1.588.227-2.95.908-4.085.681-1.135 1.361-2.043 2.496-2.724.908-.681 2.043-1.134 3.178-1.361 1.135-.227 2.269-.454 3.177-.454v-2.27h4.539v2.27zM547.5 169.183c.681 0 1.362-.227 2.042-.454a4.943 4.943 0 001.816-1.135c.681-.681 1.135-1.362 1.362-2.496.454-.908.454-2.27.454-3.632s-.227-2.723-.454-3.631c-.454-.908-.908-1.816-1.362-2.497-.681-.681-1.135-.908-1.816-1.135-.68-.227-1.361-.454-2.042-.454-.681 0-1.362.227-2.043.454a4.943 4.943 0 00-1.816 1.135c-.681.681-1.134 1.362-1.361 2.27-.454.908-.454 2.27-.454 3.631 0 1.362.227 2.724.454 3.632.454.908.907 1.815 1.361 2.269.681.681 1.135.908 1.816 1.135.681.681 1.362.908 2.043.908zm0-19.292c.908 0 2.042.227 2.95.454 1.135.227 2.27.908 3.178 1.589 1.135.908 2.042 2.042 2.723 3.631s1.135 3.632 1.135 5.901c0 2.497-.454 4.313-1.135 5.901-.681 1.589-1.588 2.724-2.723 3.632a7.704 7.704 0 01-3.405 1.588c-1.134.227-2.042.454-2.95.454-.908 0-1.816-.227-2.951-.454-1.135-.226-2.269-.907-3.404-1.588-1.135-.908-2.043-2.043-2.724-3.632-.681-1.588-1.135-3.631-1.135-5.901 0-2.496.454-4.312 1.135-5.901.681-1.589 1.589-2.723 2.724-3.631a7.714 7.714 0 013.404-1.589c1.135-.227 2.27-.454 3.178-.454zm-20.427 10.894c1.362 0 2.27-.454 2.724-1.134.453-.681.68-1.589.68-2.497 0-1.135-.227-1.816-.907-2.27-.681-.454-1.589-.681-2.951-.681h-3.404v6.355h3.858v.227zm-4.085 11.802h-4.54v-22.015h9.76c1.362 0 2.496.227 3.404.908.908.681 1.816 1.362 2.27 2.496.454 1.135.681 2.27.681 3.632 0 .908-.227 1.816-.681 2.95-.454 1.135-1.135 2.043-2.043 2.951-.908.908-2.269 1.135-4.085 1.135h-4.993v7.943h.227zm-21.562-18.157v18.157h-4.539v-22.015h17.022v22.015h-4.539V154.43h-7.944zm-57.422 5.674v-5.901h-5.447c-.681 0-1.362.227-1.816.454a2.739 2.739 0 00-1.134 1.135c-.227.454-.227.908-.227 1.362 0 .908.227 1.816.908 2.27.68.454 1.361.907 2.496.907h5.22v-.227zm4.54 12.483h-4.313v-8.624h-2.95l-5.447 8.624h-5.447l5.901-8.624c-1.362-.227-2.724-1.135-3.859-2.27-1.135-1.135-1.589-2.723-1.589-4.312 0-1.135.227-2.27.908-3.178.454-.907 1.362-1.815 2.27-2.496.908-.681 2.27-.908 3.404-.908h10.668v21.788h.454zm-34.272-6.808l8.398-15.207h4.766v22.015h-4.085v-15.66l-8.625 15.66h-4.539v-22.015h4.085v15.207zm-10.44 6.808h-14.98v-22.015h4.539v18.157h8.171v-18.157h4.539v18.157h2.043v7.944h-4.312v-4.086zm-30.413-8.397h5.447l-2.724-8.625-2.723 8.625zm-2.724 8.397h-4.766l7.49-22.015h5.22l7.49 22.015h-4.767l-1.361-4.539h-7.944l-1.362 4.539zm-8.851 0h-4.54V154.43h-6.355v-3.858h17.25v3.858h-6.355v18.157zm-26.328-6.808l8.397-15.207h4.767v22.015h-4.086v-15.66l-8.624 15.66h-4.54v-22.015h4.086v15.207zm-18.611-11.349v11.122c0 2.496-.681 4.312-1.816 5.674-1.135 1.361-2.951 1.815-5.22 1.815v-4.085c1.135 0 1.816-.227 2.269-.908.454-.681.681-1.589.681-2.496v-14.98h14.526v22.015h-4.539V154.43h-5.901zm-22.47 11.349l8.398-15.207h4.766v22.015h-4.085v-15.66l-8.625 15.66h-4.539v-22.015h4.085v15.207zm-20.88-2.951v5.901h5.674c.908 0 1.815-.227 2.269-.681.681-.454.908-1.135.908-2.042 0-.908-.227-1.589-.908-2.27-.68-.454-1.361-.908-2.269-.908h-5.674zm0-3.858h5.674c1.362 0 2.723.227 3.858.681 1.135.453 2.043 1.361 2.724 2.269.681.908.908 2.27.908 3.632 0 1.361-.227 2.496-.908 3.631-.681.908-1.589 1.816-2.724 2.27-1.135.454-2.496.681-3.858.681h-9.76v-22.016h15.888v3.858h-11.802v4.994zm-19.973 5.22h5.447l-2.724-8.625-2.723 8.625zm-2.724 8.397h-4.766l7.49-22.015h5.22l7.49 22.015h-4.766l-1.362-4.539h-7.717l-1.589 4.539zm-7.036-18.157h-11.348v4.54h10.441v3.858h-10.441v5.674h11.802v3.858h-16.114v-22.015h15.66v4.085zm-26.781 6.355c1.362 0 2.269-.454 2.723-1.134.454-.681.681-1.589.681-2.497 0-1.135-.227-1.816-.908-2.27-.681-.454-1.588-.681-2.95-.681h-3.405v6.355h3.859v.227zm-4.086 11.802h-4.539v-22.015h9.76c1.361 0 2.496.227 3.404.908.908.681 1.816 1.362 2.27 2.496.454 1.135.681 2.27.681 3.632 0 .908-.227 1.816-.681 2.95-.454 1.135-1.135 2.043-2.043 2.951-.908.908-2.27 1.135-4.085 1.135h-4.994v7.943h.227zm-52.882-18.157h-11.348v4.54h10.44v3.858h-10.44v5.674h11.802v3.858h-16.115v-22.015h15.661v4.085zm-32.91 11.349l8.398-15.207h4.766v22.015h-4.312v-15.66l-8.625 15.66h-4.539v-22.015h4.085v15.207h.227zm-21.107-3.178v9.759h-4.54v-22.015h4.54v8.398h8.17v-8.398h4.54v22.015h-4.54v-9.759h-8.17zm-8.398-8.171H86.31v4.54h10.44v3.858H86.31v5.674h11.802v3.858H81.997v-22.015h15.66v4.085zm-36.995 3.178v-7.036h4.54v7.036c0 .908.226 1.816.907 2.269.68.454 1.362.681 2.27.681.907 0 1.588-.227 2.496-.454.908-.226 1.816-.68 2.497-1.134v-8.398h4.54v22.015h-4.54v-9.759c-2.043 1.135-4.313 1.816-6.355 1.816-1.816 0-3.405-.454-4.54-1.589-1.134-1.362-1.815-3.178-1.815-5.447zm-3.858-3.178H45.456v4.54h10.44v3.858h-10.44v5.674h11.802v3.858H41.144v-22.015h15.66v4.085zm-30.414 0v11.122c0 2.496-.68 4.312-1.815 5.674-1.135 1.361-2.95 1.815-5.22 1.815v-4.085c1.134 0 1.815-.227 2.27-.908.453-.681.68-1.589.68-2.496v-14.98h14.526v22.015h-4.54V154.43h-5.9z" fill="#fff"/><path d="M734.064 164.19h5.447l-2.724-8.625-2.723 8.625zm-2.497 8.397h-4.766l7.49-22.015h5.22l7.49 22.015h-4.767l-1.361-4.539h-7.944l-1.362 4.539zm-17.93 0h-4.539v-22.015h4.539v8.852l8.171-8.852h5.674l-8.625 9.079 9.079 12.936h-5.674l-6.582-9.532-2.043 2.27v7.262zm-22.242-6.808l8.397-15.207h4.767v22.015h-4.086v-15.66l-8.624 15.66h-4.54v-22.015h4.086v15.207zm-12.937 6.808h-4.54V154.43h-6.355v-3.858h17.25v3.858h-6.355v18.157zm-23.831 0h-4.54v-22.015h4.54v8.852l8.17-8.852h5.674l-8.624 9.079 9.078 12.936h-5.674l-6.582-9.532-2.042 2.27v7.262zM634.2 164.19h5.447l-2.724-8.625-2.723 8.625zm-2.724 8.397h-4.766l7.49-22.015h5.22l7.49 22.015h-4.766l-1.362-4.539h-7.717l-1.589 4.539zm-17.703-18.157v11.122c0 2.496-.681 4.312-1.816 5.674-1.134 1.361-2.95 1.815-5.22 1.815v-4.085c1.135 0 1.816-.227 2.27-.908.454-.681.681-1.589.681-2.496v-14.98h14.525v22.015h-4.539V154.43h-5.901zm-22.469 11.349l8.397-15.207h4.767v22.015h-4.086v-15.66l-8.624 15.66h-4.54v-22.015h4.086v15.207zm-21.335.907v-10.213c-1.362 0-2.723.454-3.631 1.135-1.135.681-1.589 2.043-1.589 3.858 0 1.816.454 3.178 1.589 3.859.908.907 2.042 1.361 3.631 1.361zm4.312-10.213v10.213c.908 0 1.589-.227 2.497-.454.908-.226 1.362-.907 2.043-1.588.454-.681.908-1.816.908-2.951 0-1.362-.227-2.269-.908-2.95-.454-.681-1.135-1.362-2.043-1.589-.681-.681-1.589-.681-2.497-.681zm0-3.631c1.362 0 2.951.227 4.313.907 1.362.454 2.723 1.362 3.631 2.724.908 1.362 1.589 2.951 1.589 4.993 0 1.589-.227 2.951-.908 4.086-.681 1.134-1.362 2.042-2.27 2.723-.907.681-2.042 1.135-3.177 1.362-1.135.227-2.27.454-3.178.454v2.269h-4.539v-2.269c-1.135 0-2.042-.227-3.177-.454-1.135-.227-2.27-.681-3.178-1.362-.908-.681-1.815-1.589-2.496-2.723-.681-1.135-.908-2.497-.908-4.086 0-1.588.227-2.95.908-4.085.681-1.135 1.361-2.043 2.496-2.724.908-.681 2.043-1.134 3.178-1.361 1.135-.227 2.269-.454 3.177-.454v-2.27h4.539v2.27zM547.5 169.183c.681 0 1.362-.227 2.042-.454a4.943 4.943 0 001.816-1.135c.681-.681 1.135-1.362 1.362-2.496.454-.908.454-2.27.454-3.632s-.227-2.723-.454-3.631c-.454-.908-.908-1.816-1.362-2.497-.681-.681-1.135-.908-1.816-1.135-.68-.227-1.361-.454-2.042-.454-.681 0-1.362.227-2.043.454a4.943 4.943 0 00-1.816 1.135c-.681.681-1.134 1.362-1.361 2.27-.454.908-.454 2.27-.454 3.631 0 1.362.227 2.724.454 3.632.454.908.907 1.815 1.361 2.269.681.681 1.135.908 1.816 1.135.681.681 1.362.908 2.043.908zm0-19.292c.908 0 2.042.227 2.95.454 1.135.227 2.27.908 3.178 1.589 1.135.908 2.042 2.042 2.723 3.631s1.135 3.632 1.135 5.901c0 2.497-.454 4.313-1.135 5.901-.681 1.589-1.588 2.724-2.723 3.632a7.704 7.704 0 01-3.405 1.588c-1.134.227-2.042.454-2.95.454-.908 0-1.816-.227-2.951-.454-1.135-.226-2.269-.907-3.404-1.588-1.135-.908-2.043-2.043-2.724-3.632-.681-1.588-1.135-3.631-1.135-5.901 0-2.496.454-4.312 1.135-5.901.681-1.589 1.589-2.723 2.724-3.631a7.714 7.714 0 013.404-1.589c1.135-.227 2.27-.454 3.178-.454zm-20.427 10.894c1.362 0 2.27-.454 2.724-1.134.453-.681.68-1.589.68-2.497 0-1.135-.227-1.816-.907-2.27-.681-.454-1.589-.681-2.951-.681h-3.404v6.355h3.858v.227zm-4.085 11.802h-4.54v-22.015h9.76c1.362 0 2.496.227 3.404.908.908.681 1.816 1.362 2.27 2.496.454 1.135.681 2.27.681 3.632 0 .908-.227 1.816-.681 2.95-.454 1.135-1.135 2.043-2.043 2.951-.908.908-2.269 1.135-4.085 1.135h-4.993v7.943h.227zm-21.562-18.157v18.157h-4.539v-22.015h17.022v22.015h-4.539V154.43h-7.944zm-57.422 5.674v-5.901h-5.447c-.681 0-1.362.227-1.816.454a2.739 2.739 0 00-1.134 1.135c-.227.454-.227.908-.227 1.362 0 .908.227 1.816.908 2.27.68.454 1.361.907 2.496.907h5.22v-.227zm4.54 12.483h-4.313v-8.624h-2.95l-5.447 8.624h-5.447l5.901-8.624c-1.362-.227-2.724-1.135-3.859-2.27-1.135-1.135-1.589-2.723-1.589-4.312 0-1.135.227-2.27.908-3.178.454-.907 1.362-1.815 2.27-2.496.908-.681 2.27-.908 3.404-.908h10.668v21.788h.454zm-34.272-6.808l8.398-15.207h4.766v22.015h-4.085v-15.66l-8.625 15.66h-4.539v-22.015h4.085v15.207zm-10.44 6.808h-14.98v-22.015h4.539v18.157h8.171v-18.157h4.539v18.157h2.043v7.944h-4.312v-4.086zm-30.413-8.397h5.447l-2.724-8.625-2.723 8.625zm-2.724 8.397h-4.766l7.49-22.015h5.22l7.49 22.015h-4.767l-1.361-4.539h-7.944l-1.362 4.539zm-8.851 0h-4.54V154.43h-6.355v-3.858h17.25v3.858h-6.355v18.157zm-26.328-6.808l8.397-15.207h4.767v22.015h-4.086v-15.66l-8.624 15.66h-4.54v-22.015h4.086v15.207zm-18.611-11.349v11.122c0 2.496-.681 4.312-1.816 5.674-1.135 1.361-2.951 1.815-5.22 1.815v-4.085c1.135 0 1.816-.227 2.269-.908.454-.681.681-1.589.681-2.496v-14.98h14.526v22.015h-4.539V154.43h-5.901zm-22.47 11.349l8.398-15.207h4.766v22.015h-4.085v-15.66l-8.625 15.66h-4.539v-22.015h4.085v15.207zm-20.88-2.951v5.901h5.674c.908 0 1.815-.227 2.269-.681.681-.454.908-1.135.908-2.042 0-.908-.227-1.589-.908-2.27-.68-.454-1.361-.908-2.269-.908h-5.674zm0-3.858h5.674c1.362 0 2.723.227 3.858.681 1.135.453 2.043 1.361 2.724 2.269.681.908.908 2.27.908 3.632 0 1.361-.227 2.496-.908 3.631-.681.908-1.589 1.816-2.724 2.27-1.135.454-2.496.681-3.858.681h-9.76v-22.016h15.888v3.858h-11.802v4.994zm-19.973 5.22h5.447l-2.724-8.625-2.723 8.625zm-2.724 8.397h-4.766l7.49-22.015h5.22l7.49 22.015h-4.766l-1.362-4.539h-7.717l-1.589 4.539zm-7.036-18.157h-11.348v4.54h10.441v3.858h-10.441v5.674h11.802v3.858h-16.114v-22.015h15.66v4.085zm-26.781 6.355c1.362 0 2.269-.454 2.723-1.134.454-.681.681-1.589.681-2.497 0-1.135-.227-1.816-.908-2.27-.681-.454-1.588-.681-2.95-.681h-3.405v6.355h3.859v.227zm-4.086 11.802h-4.539v-22.015h9.76c1.361 0 2.496.227 3.404.908.908.681 1.816 1.362 2.27 2.496.454 1.135.681 2.27.681 3.632 0 .908-.227 1.816-.681 2.95-.454 1.135-1.135 2.043-2.043 2.951-.908.908-2.27 1.135-4.085 1.135h-4.994v7.943h.227zm-52.882-18.157h-11.348v4.54h10.44v3.858h-10.44v5.674h11.802v3.858h-16.115v-22.015h15.661v4.085zm-32.91 11.349l8.398-15.207h4.766v22.015h-4.312v-15.66l-8.625 15.66h-4.539v-22.015h4.085v15.207h.227zm-21.107-3.178v9.759h-4.54v-22.015h4.54v8.398h8.17v-8.398h4.54v22.015h-4.54v-9.759h-8.17zm-8.398-8.171H86.31v4.54h10.44v3.858H86.31v5.674h11.802v3.858H81.997v-22.015h15.66v4.085zm-36.995 3.178v-7.036h4.54v7.036c0 .908.226 1.816.907 2.269.68.454 1.362.681 2.27.681.907 0 1.588-.227 2.496-.454.908-.226 1.816-.68 2.497-1.134v-8.398h4.54v22.015h-4.54v-9.759c-2.043 1.135-4.313 1.816-6.355 1.816-1.816 0-3.405-.454-4.54-1.589-1.134-1.362-1.815-3.178-1.815-5.447zm-3.858-3.178H45.456v4.54h10.44v3.858h-10.44v5.674h11.802v3.858H41.144v-22.015h15.66v4.085zm-30.414 0v11.122c0 2.496-.68 4.312-1.815 5.674-1.135 1.361-2.95 1.815-5.22 1.815v-4.085c1.134 0 1.815-.227 2.27-.908.453-.681.68-1.589.68-2.496v-14.98h14.526v22.015h-4.54V154.43h-5.9z" fill="#970E0B"/><path fill-rule="evenodd" clip-rule="evenodd" d="M.738 161.02l5.22-5.22 4.994 5.22-4.994 5.447-5.22-5.447z" fill="#fff"/><path fill-rule="evenodd" clip-rule="evenodd" d="M.738 161.02l5.22-5.22 4.994 5.22-4.994 5.447-5.22-5.447z" fill="#970E0B"/><path fill-rule="evenodd" clip-rule="evenodd" d="M188.66 161.02l4.993-5.22 5.221 5.22-5.221 5.447-4.993-5.447z" fill="#fff"/><path fill-rule="evenodd" clip-rule="evenodd" d="M188.66 161.02l4.993-5.22 5.221 5.22-5.221 5.447-4.993-5.447z" fill="#970E0B"/><path fill-rule="evenodd" clip-rule="evenodd" d="M476.219 161.02l4.993-5.22 5.22 5.22-5.22 5.447-4.993-5.447z" fill="#fff"/><path fill-rule="evenodd" clip-rule="evenodd" d="M476.219 161.02l4.993-5.22 5.22 5.22-5.22 5.447-4.993-5.447z" fill="#970E0B"/></svg>