<svg width="187" height="188" fill="none" xmlns="http://www.w3.org/2000/svg"><path d="M102.39.318L0 102.708l84.416 84.416 102.39-102.39L102.39.318z" fill="#fff"/><path d="M102.39.318L0 102.708l84.416 84.416 102.39-102.39L102.39.318z" fill="#970E0B"/><path d="M155.833 63.66l-2.27 2.269.681.68 2.27-2.269-.681-.68zm-3.631 4.993l1.361-1.362 3.178 3.177c0 .227.227.227.227.454l.227.227v-.454l-.908-5.674 2.27-2.27 4.539 4.54-1.362 1.362-3.177-3.178s0-.227-.227-.454l-.227-.227v.454l.908 5.674-2.27 2.27-4.539-4.54zm-7.49 7.716l1.362-1.362 3.177 3.178c0 .227.227.227.227.454l.227.227v-.454l-1.135-5.901 2.27-2.27 4.539 4.54-1.362 1.361-3.177-3.177s0-.227-.227-.454l-.227-.227v.454l.908 5.674-2.27 2.27-4.312-4.313zm-6.809 6.81l1.362-1.363 1.589 1.59.68-.682v-3.177l1.816-1.816v4.312l4.993-.227-2.042 2.043h-3.632l-.681.681 1.816 1.816-1.362 1.362-4.539-4.54zm-4.085 3.858c1.361-1.362 2.269-2.043 2.723-2.043.454 0 1.135.227 1.816 1.135l-1.362 1.361c-.227-.227-.454-.453-.681-.227-.227 0-.681.454-1.362 1.135-.68.681-1.134 1.135-1.134 1.362 0 .227.227.681.907 1.135.454.454.908.908 1.135.908.227 0 .681-.454 1.362-1.135.681-.68.908-1.135 1.135-1.362 0-.227 0-.454-.227-.68l1.362-1.363c.908.908 1.135 1.362 1.135 1.816 0 .454-.681 1.362-2.043 2.724s-2.27 2.043-2.724 2.043c-.454 0-1.361-.454-2.496-1.59-1.135-1.134-1.589-1.815-1.589-2.269 0-.68.681-1.589 2.043-2.95zm-4.313 13.617l-4.539-4.539 4.993-4.993 1.135 1.135-3.631 3.404.681.681 3.404-3.404 1.135 1.134-3.405 3.405.681.68 3.405-3.404 1.135 1.135-4.994 4.766zm-9.305.227l1.589 1.589c.227.227.227.227.454.227.226 0 .453 0 .453-.227l2.043-2.043-2.27-2.27 1.362-1.361 4.54 4.539-1.362 1.362-1.135-1.135-2.043 2.043c-.681.681-1.362 1.135-1.815 1.135-.681 0-1.135-.227-1.816-.908l-1.589-1.589 1.589-1.362zm-8.852 8.852l1.362-1.362 3.178 3.178c0 .227.226.227.226.454l.227.227v-.454l-.907-5.674 2.269-2.27 4.54 4.539-1.362 1.362-3.178-3.178s0-.227-.227-.453l-.227-.227v.453l.908 5.675-2.269 2.269-4.54-4.539zm-4.085 6.355l2.497-2.497 2.269 2.27-2.723 2.724c0-.227-.227-.454-.454-.908l-1.589-1.589zm-2.497.227c1.362 1.362 2.27 2.27 2.497 2.723.454.454.454.908.454.908l-.227.227 1.589 1.589 1.361-1.362-.227-.227-.227-.227s0-.227.227-.227l2.724-2.723.227-.227s.227 0 .227.227l.227.227 1.362-1.362-1.589-1.589-.454.454-2.951-3.631-5.22 5.22zm-2.269 11.348l-4.54-4.539 4.994-4.993 1.134 1.134-3.631 3.632.681.681 3.404-3.405 1.135 1.135-3.404 3.405.681.68 3.404-3.404 1.135 1.135-4.993 4.539zm-11.576 2.497l5.902-5.901 4.539 4.539L100 130.16l-3.404-3.405-3.178 3.178 3.405 3.404-1.362 1.362-4.54-4.539zm-3.404 7.943c.681.681.908.908 1.135.908.227 0 .68-.454 1.589-1.362.907-.907 1.135-1.361 1.361-1.588 0-.227-.227-.681-.907-1.135-.681-.681-.908-.908-1.135-.908-.227 0-.681.454-1.589 1.362-.908.908-1.135 1.362-1.362 1.589 0 .227.227.68.908 1.134zm4.54-4.539c1.134 1.135 1.588 1.816 1.588 2.27 0 .454-.908 1.588-2.27 2.95-1.134 1.135-1.815 1.816-2.27 2.043-.453.227-.907.454-1.361.227-.227-.227-.908-.681-1.816-1.362-1.135-1.135-1.588-1.816-1.588-2.27 0-.453.907-1.588 2.27-2.95 1.361-1.362 2.496-2.27 2.95-2.27.68-.227 1.361.227 2.496 1.362zm-13.392 11.348l-1.134-1.135 5.447-5.447 1.135 1.135-2.043 2.043 3.404 3.404-1.361 1.362-3.632-3.404-1.816 2.042zm-3.858 5.901l2.043-2.042c.227-.227.227-.227.227-.454s0-.454-.227-.681c-.227-.227-.454-.227-.681-.227-.227 0-.227 0-.454.227l-2.043 2.043 1.135 1.134zm-3.631-.908l3.404-3.404c.681-.681 1.362-1.135 1.816-1.135.454 0 1.135.227 1.816.908.68.681 1.134 1.362.907 1.816 0 .454-.454.908-1.134 1.815l-2.043 2.043 1.135 1.135-1.362 1.362-4.54-4.54zm-3.405 7.944c.681.681.908.908 1.135.908.227 0 .68-.454 1.589-1.362.908-.908 1.135-1.361 1.362-1.588 0-.227-.227-.681-.908-1.135-.681-.681-.908-.908-1.135-.908-.227 0-.681.454-1.589 1.362-.908.907-1.135 1.361-1.362 1.588 0 .227.227.681.908 1.135zm4.54-4.539c1.134 1.135 1.588 1.816 1.588 2.27 0 .454-.908 1.588-2.27 2.95-1.134 1.135-1.815 1.816-2.269 2.043-.454.227-.908.454-1.362.227-.227-.227-.908-.681-1.816-1.362-1.134-1.135-1.588-1.816-1.588-2.27 0-.454.908-1.588 2.27-2.95 1.361-1.362 2.496-2.27 2.95-2.27.68-.227 1.362.227 2.497 1.362zm81.461-70.58l4.766 4.765 8.398-8.397-4.767-4.766 3.859-3.859 13.618 13.618-3.859 3.631-5.22-5.22-8.398 8.398 5.221 5.22-3.859 3.858-13.618-13.617 3.859-3.632zm-12.937 26.327c1.815 1.816 2.95 2.497 3.631 2.497.681 0 2.043-1.135 4.312-3.405 2.27-2.27 3.405-3.631 3.632-4.312 0-.681-.681-1.816-2.497-3.632-1.815-1.815-2.95-2.496-3.631-2.496-.681 0-2.043 1.362-4.312 3.631-2.27 2.27-3.405 3.632-3.632 4.313 0 .453.681 1.815 2.497 3.404zm12.937-12.71c3.177 3.178 4.993 5.674 4.766 7.036-.227 1.589-2.27 4.312-6.355 8.398-2.951 2.95-4.993 4.766-6.128 5.447-1.362.907-2.724.907-4.085.227-.908-.454-2.724-2.043-4.994-4.313-3.177-3.177-4.993-5.674-4.766-7.036 0-1.588 2.27-4.312 6.355-8.397 4.085-4.086 6.809-6.128 8.398-6.355 1.135 0 3.404 1.588 6.809 4.993zm-27.463 13.845l13.618 13.618-3.858 3.858-10.214-10.213-6.809 7.035c3.859 3.859 6.355 6.809 7.036 9.079.681 1.816.454 3.631-.908 4.993l-1.815 1.816-3.405-3.405c.908-.907 1.135-1.815.454-2.95-.681-.908-3.631-4.085-8.625-9.079l14.526-14.752zm-24.739 30.867l-.681.681 2.497 6.809 4.766-4.767-6.582-2.723zm-6.809.681l6.809-6.809 19.746 7.263-4.539 4.539-3.405-1.135-7.944 7.944 1.135 3.404-4.539 4.54-7.263-19.746zM78.647 157.4c3.631-3.631 6.128-5.447 7.716-5.674 1.362-.227 3.178.908 5.448 3.405l-3.859 3.858c-.68-.681-1.588-1.135-2.042-.908-.681.227-2.043 1.135-3.632 2.951-1.816 1.815-2.95 3.177-2.95 3.858s.907 1.816 2.496 3.404c1.589 1.589 2.724 2.497 3.405 2.497.68 0 1.815-.908 3.858-2.95 1.816-1.816 2.724-2.951 2.95-3.632.228-.681 0-1.362-.907-2.27l3.858-3.858c2.497 2.497 3.632 4.312 3.405 5.447-.227 1.589-2.043 4.086-5.901 7.717-3.632 3.631-6.129 5.447-7.717 5.674-1.589 0-3.859-1.589-7.036-4.766-3.178-3.178-4.766-5.447-4.766-7.036.227-1.589 2.042-4.085 5.674-7.717z" fill="#fff"/><path fill-rule="evenodd" clip-rule="evenodd" d="M75.481 72.284L51.65 96.115c-7.717-8.852-2.95-20.88 4.312-27.916l7.036-7.036-2.497-2.497 28.825-4.993-8.398 8.398 8.625 8.624-14.072 1.589zm30.409 15.435L74.569 119.04l-12.483-12.483L75.93 92.712l29.959-4.993zM85.469 84.32l39.945-7.263s1.589 1.135 2.497 2.724l1.816 3.631 1.815-.227c-2.496-5.447-7.943-14.525-21.334-14.071-13.618.68-24.74 15.206-24.74 15.206z" fill="#fff"/><path fill-rule="evenodd" clip-rule="evenodd" d="M133.812 46.64l2.043 2.042-4.766 4.767c-.227.227-.454.227-.681.454l-.227.227h.227c.227 0 .227 0 .454-.227l8.625-1.362 3.404 3.404-6.809 6.81-2.043-2.043 4.767-4.767s.227-.227.681-.453l.227-.227h-.227c-.227 0-.227 0-.454.227l-8.625 1.361-3.404-3.404 6.808-6.81zm-11.348-7.944l1.816-1.816 7.944 7.944-1.816 2.043-2.951-2.95-4.993 4.992-2.042-2.042 4.993-4.993-2.951-3.178zm-8.851-5.447l2.95 2.95c.227.227.454.455.681.455.227 0 .681-.228.908-.455.227-.226.454-.68.454-.907 0-.227-.227-.454-.454-.681l-2.951-2.95-1.588 1.588zm1.135-5.447l4.993 4.993c1.135 1.135 1.815 2.043 1.815 2.497 0 .68-.454 1.815-1.588 2.723-1.135 1.135-2.043 1.589-2.724 1.589s-1.589-.68-2.723-1.816l-2.951-2.95-1.362 1.816-2.042-2.27 6.582-6.582zm-11.803-5.22c-.907.908-1.361 1.361-1.134 1.815 0 .454.68 1.135 1.815 2.27 1.135 1.135 2.043 1.816 2.27 1.816.227 0 .908-.454 1.816-1.135.907-.908 1.361-1.589 1.134-1.816 0-.227-.68-1.135-1.815-2.27-1.135-1.134-2.043-1.815-2.27-1.815-.227-.227-.908.227-1.816 1.135zm6.809 6.809c-1.588 1.588-2.723 2.496-3.631 2.27-.681 0-2.27-1.136-4.312-3.405-1.589-1.589-2.497-2.724-2.95-3.178-.455-.68-.455-1.361-.228-2.042.227-.454.908-1.362 2.27-2.497 1.588-1.589 2.723-2.497 3.631-2.27.681 0 2.27 1.135 4.312 3.405 2.043 2.043 3.178 3.631 3.405 4.312 0 .681-.908 1.816-2.497 3.405zM54.602 129.709l4.766 4.766-4.312 4.312-5.22-5.22c.227 0 .908-.227 1.816-.908l2.95-2.95zm-.454-4.994c-2.496 2.497-4.312 4.313-5.447 4.994-.908.68-1.589.907-1.816.68l-.453-.453-3.178 3.177 2.724 2.724.453-.454c.227-.227.454-.227.454-.227.227 0 .454 0 .681.227l5.447 5.447c.227.227.227.454.227.681 0 .227 0 .454-.227.454l-.453.454 2.723 2.723 3.178-3.177-.681-.681 6.582-6.582-10.214-9.987zm-22.015-4.312l8.851-8.852 9.533 9.533-2.043 2.043-6.809-6.809-1.135 1.135 6.355 6.355-2.042 2.042-6.355-6.355-1.135 1.135 6.809 6.809-2.497 2.27-9.532-9.306zm-7.717-25.42l-8.852 8.852 2.724 2.723 6.128-6.128.227-.227c.227-.227.227-.454.227-.454h.227v.227c0 .227 0 .227-.227.454l-3.178 9.987 2.27 2.269 9.76-3.404s.227 0 .453-.227h.227v.227s-.227 0-.453.227c-.227.227-.454.227-.454.227l-6.128 6.128 2.723 2.723 8.852-8.851-4.54-4.54-7.262 2.724c-.454.227-.681.454-.908.681-.227.227-.454.227-.454.227s0-.227.454-.681c.227-.454.454-.681.454-.681l2.723-7.263-4.993-5.22zM7.848 102.7l94.87-94.87 49.479 49.25-20.427 20.427-.908-1.589 6.355-6.355L90.235 22.81l-67.18 67.18 46.754 46.755 56.287-56.287.681 2.043-69.451 69.678L7.848 102.7z" fill="#fff"/></svg>