<svg width="40" height="30" fill="none" xmlns="http://www.w3.org/2000/svg"><path d="M7.645 29.551v-1.937a1.109 1.109 0 00-.071-.48 1.146 1.146 0 00-.272-.409 1.203 1.203 0 00-.422-.265 1.243 1.243 0 00-.498-.074 1.286 1.286 0 00-.643.127 1.227 1.227 0 00-.486.422 1.16 1.16 0 00-.453-.414 1.219 1.219 0 00-.61-.135 1.097 1.097 0 00-.533.11c-.165.08-.306.2-.407.349v-.381h-.7v3.087h.707v-1.698a.697.697 0 01.192-.588.78.78 0 01.594-.232c.464 0 .699.29.699.813v1.718h.706v-1.711a.7.7 0 01.193-.587.782.782 0 01.593-.233c.477 0 .706.29.706.813v1.718l.705-.013zm10.442-3.087h-1.15v-.937h-.705v.937h-.639v.614h.652v1.42c0 .717.29 1.144 1.116 1.144a1.69 1.69 0 00.874-.24l-.202-.574a1.33 1.33 0 01-.618.174c-.336 0-.464-.206-.464-.516v-1.409h1.142l-.006-.613zm5.961-.078a.98.98 0 00-.488.114.931.931 0 00-.358.338v-.374h-.693v3.087h.7v-1.73c0-.511.228-.795.671-.795.15-.002.298.024.437.077l.215-.646a1.55 1.55 0 00-.497-.084l.013.013zm-9.013.323a2.479 2.479 0 00-1.31-.323c-.813 0-1.345.375-1.345.989 0 .503.39.814 1.11.91l.335.046c.384.051.565.148.565.323 0 .239-.255.374-.732.374-.384.01-.76-.103-1.07-.323l-.335.524c.407.273.895.413 1.391.4.928 0 1.465-.42 1.465-1.008 0-.587-.423-.826-1.122-.923l-.336-.046c-.303-.038-.545-.097-.545-.303 0-.207.229-.362.612-.362.354.004.701.095 1.008.265l.31-.543zm18.722-.323a.98.98 0 00-.488.114.932.932 0 00-.359.338v-.374h-.692v3.087h.699v-1.73c0-.511.228-.795.672-.795.15-.002.298.024.437.077l.215-.646a1.55 1.55 0 00-.497-.084l.013.013zm-9.006 1.615c-.009.217.03.433.114.635s.21.384.372.537c.16.152.353.27.565.346.211.076.437.11.663.097.42.02.832-.11 1.156-.368l-.336-.543a1.449 1.449 0 01-.84.278 1.05 1.05 0 01-.676-.316.971.971 0 01-.273-.672c0-.25.098-.49.273-.672.176-.184.417-.297.676-.317.303.004.598.101.84.278l.336-.542a1.725 1.725 0 00-1.156-.369 1.682 1.682 0 00-.663.098 1.633 1.633 0 00-.566.346 1.558 1.558 0 00-.371.536 1.507 1.507 0 00-.114.635v.013zm6.546 0v-1.537h-.699v.375a1.212 1.212 0 00-.447-.343 1.264 1.264 0 00-.561-.11c-.446 0-.873.17-1.188.473a1.584 1.584 0 00-.492 1.142c0 .428.177.84.492 1.142.315.303.742.473 1.188.473.193.007.386-.03.56-.11.176-.078.33-.195.448-.342v.374h.7v-1.537zm-2.6 0a.91.91 0 01.19-.502.969.969 0 01.446-.32c.178-.062.37-.073.555-.031a.983.983 0 01.483.266c.13.132.217.298.25.477a.9.9 0 01-.062.532.943.943 0 01-.356.41 1 1 0 01-.532.157.998.998 0 01-.713-.29.893.893 0 01-.262-.699zm-8.436-1.615a1.71 1.71 0 00-1.181.49c-.31.306-.482.72-.476 1.148.006.428.19.836.51 1.135.319.299.748.463 1.194.457.484.024.96-.126 1.334-.42l-.336-.497a1.568 1.568 0 01-.934.323.915.915 0 01-.64-.19.848.848 0 01-.321-.566h2.386v-.258c0-.97-.625-1.615-1.526-1.615l-.01-.007zm0 .601a.824.824 0 01.568.213.74.74 0 01.245.537h-1.68a.782.782 0 01.268-.542c.16-.14.37-.215.586-.208h.013zm17.512 1.02v-2.783h-.672v1.614a1.212 1.212 0 00-.447-.343 1.263 1.263 0 00-.561-.109c-.446 0-.873.17-1.188.473a1.584 1.584 0 00-.492 1.142c0 .428.177.84.492 1.142.315.303.742.473 1.188.473.193.007.385-.03.56-.11.176-.078.33-.195.448-.342v.374h.672v-1.53zm1.166 1.095a.34.34 0 01.232.087.32.32 0 01.07.098.29.29 0 01-.07.335.338.338 0 01-.104.065.329.329 0 01-.307-.026.294.294 0 01-.052-.472.34.34 0 01.241-.087h-.01zm0 .546a.248.248 0 00.175-.07.234.234 0 000-.324.25.25 0 00-.272-.051.247.247 0 00-.081.051.234.234 0 000 .323.258.258 0 00.188.071h-.01zm.02-.384a.138.138 0 01.088.026.078.078 0 01.03.068c0 .01-.001.021-.005.031a.077.077 0 01-.019.027.12.12 0 01-.07.029l.097.106h-.077l-.09-.106h-.031v.106h-.064v-.284l.141-.003zm-.074.055v.077h.074a.073.073 0 00.04 0 .03.03 0 000-.029.03.03 0 000-.029.073.073 0 00-.04 0l-.074-.02zm-3.696-1.311a.912.912 0 01.19-.503.97.97 0 01.446-.32c.178-.062.371-.073.556-.031a.981.981 0 01.482.267.9.9 0 01.188 1.009.943.943 0 01-.355.41 1 1 0 01-.533.156.999.999 0 01-.712-.29.895.895 0 01-.262-.7zm-23.602 0v-1.544h-.699v.375a1.213 1.213 0 00-.447-.343 1.264 1.264 0 00-.56-.11c-.446 0-.874.17-1.189.473a1.584 1.584 0 00-.492 1.142c0 .428.177.84.492 1.142.315.303.743.473 1.188.473a1.243 1.243 0 001.008-.452v.374h.7v-1.53zm-2.6 0a.911.911 0 01.19-.503.97.97 0 01.446-.32c.178-.062.371-.073.555-.031a.981.981 0 01.483.267.9.9 0 01.188 1.009.943.943 0 01-.356.41 1 1 0 01-.532.156.997.997 0 01-.717-.287.894.894 0 01-.265-.701h.007z" fill="#242424" fill-opacity=".7"/><path d="M25.39 2.936H14.805v18.283H25.39V2.936z" fill="#FF5F00"/><path d="M15.476 12.08c-.002-1.761.413-3.5 1.214-5.084a11.708 11.708 0 013.407-4.06A12.37 12.37 0 0013.912.518 12.528 12.528 0 007.334 1.62a11.947 11.947 0 00-4.968 4.29 11.295 11.295 0 00-1.843 6.168c0 2.182.64 4.32 1.843 6.169a11.947 11.947 0 004.968 4.289 12.528 12.528 0 006.578 1.103 12.37 12.37 0 006.185-2.42 11.708 11.708 0 01-3.406-4.058 11.236 11.236 0 01-1.215-5.081z" fill="#EB001B"/><path d="M39.673 12.08c0 2.18-.639 4.318-1.843 6.168a11.947 11.947 0 01-4.968 4.289 12.528 12.528 0 01-6.58 1.102 12.37 12.37 0 01-6.184-2.42 11.728 11.728 0 003.405-4.06 11.254 11.254 0 001.217-5.081c0-1.761-.416-3.499-1.217-5.082a11.727 11.727 0 00-3.405-4.06 12.37 12.37 0 016.185-2.42 12.528 12.528 0 016.579 1.102 11.947 11.947 0 014.968 4.29 11.294 11.294 0 011.843 6.168v.003zm-1.158 7.201v-.374h.158v-.078h-.4v.078h.172v.374h.07zm.777 0v-.452h-.121l-.141.323-.142-.323h-.107v.452h.087v-.339l.131.294h.091l.131-.294v.343l.07-.004z" fill="#F79E1B"/></svg>