<svg width="61" height="16" fill="none" xmlns="http://www.w3.org/2000/svg"><path fill-rule="evenodd" clip-rule="evenodd" d="M16.438 0v.007c-.008 0-2.383-.007-3.016 2.096a2176.59 2176.59 0 01-2.263 7.4h-.452S9.033 4.058 8.445 2.095C7.812-.007 5.429 0 5.429 0H0v16h5.429V6.498h.452L9.048 16h3.77l3.167-9.495h.453V16h5.428V0h-5.428zm19.829 0s-1.59.133-2.337 1.677l-3.846 7.825h-.452V0h-5.429v16h5.127s1.667-.14 2.413-1.677l3.77-7.825h.453V16h5.429V0h-5.128zm7.542 7.267V16h5.428v-5.1h5.882c2.563 0 4.735-1.516 5.542-3.633H43.809z" fill="#79B753"/><path fill-rule="evenodd" clip-rule="evenodd" d="M55.119 0H43.047c.603 3.046 3.069 5.492 6.258 6.288a9.31 9.31 0 002.27.28h9.304c.083-.364.121-.734.121-1.118C61 2.438 58.368 0 55.119 0z" fill="url(#paint0_linear)"/><defs><linearGradient id="paint0_linear" x1="43.048" y1="3.284" x2="61" y2="3.284" gradientUnits="userSpaceOnUse"><stop offset=".3" stop-color="#00B4E6"/><stop offset="1" stop-color="#088CCB"/></linearGradient></defs></svg>