<svg width="77" height="14" fill="none" xmlns="http://www.w3.org/2000/svg"><path fill-rule="evenodd" clip-rule="evenodd" d="M32.705 10.976a8.49 8.49 0 004.352-1.056c.072-.04.148-.068.25-.114a5.1 5.1 0 01.543 2.353c.012.914 0 .933-.86 1.215a13.098 13.098 0 01-4.477.588c-1.613-.033-3.137-.343-4.525-1.192-1.65-.998-2.572-2.493-2.858-4.378a8.04 8.04 0 01.46-4.464C26.454 1.894 28.054.76 30.14.289a11.05 11.05 0 017.353.828c.117.054.283.187.283.283a6.282 6.282 0 01-.767 3.172c-.784-.4-1.524-.824-2.306-1.167a4.709 4.709 0 00-2.95-.282c-1.62.371-2.594 1.556-2.649 3.329a7.091 7.091 0 00.194 1.924c.408 1.59 1.729 2.565 3.41 2.61l-.003-.01zm40.319-2.432a1.06 1.06 0 00-.362-.48 1.041 1.041 0 00-.56-.204c-1.029-.035-2.06 0-3.108 0v3.049c1.058 0 2.09.042 3.117-.026a1.266 1.266 0 00.809-.553 1.77 1.77 0 00.097-1.775l.007-.011zm3.388 2.953c-.691 1.488-1.969 2.18-3.548 2.215-2.383.056-4.767.017-7.146.019-.332 0-.528-.154-.528-.485V5.715a6.544 6.544 0 01-.037-.61 5.232 5.232 0 00-.09-.986c-.027-.26-.15-.5-.347-.67a1.01 1.01 0 00-.706-.249c-.692-.023-1.404 0-2.137 0 0 .7.012 1.4 0 2.1-.03 1.7-.134 3.393-.606 5.035-.385 1.339-1.012 2.528-2.377 3.097a5.11 5.11 0 01-1.63.369c-.818.047-1.643-.023-2.48-.044a5.876 5.876 0 01.037-3.032c.365.018.731.018 1.097 0a2.078 2.078 0 001.163-.435c.335-.26.585-.617.716-1.023.275-.777.454-1.584.535-2.405.09-1.15.023-2.311.023-3.569h-2.42c-.098-.811-.167-.97-.167-1.443A4.623 4.623 0 0155.93.306h.498c2.766 0 5.533-.021 8.31.014a6.129 6.129 0 012.015.333c1.344.49 1.902 1.633 2.119 2.967.06.41.09.822.09 1.236v.133a.15.15 0 01.018.05c1.084 0 2.116-.017 3.147 0 .59-.003 1.18.047 1.763.148 1.485.304 2.43 1.216 2.796 2.699a5.319 5.319 0 01-.267 3.601l-.007.01zM49.591 6.155c-.12-1.611-.922-2.992-2.997-3.1-1.554-.079-2.748.481-3.255 2.186a8.773 8.773 0 00-.23 1.763c0 .288.018.575.05.861.175 1.549.82 2.869 2.7 3.083 1.648.187 3.174-.377 3.614-2.332.16-.809.2-1.637.122-2.458l-.004-.003zm2.4 5.677a6.297 6.297 0 01-3.567 1.943c-2.146.413-4.248.315-6.203-.786-1.796-1.014-2.727-2.63-3.036-4.63a8.032 8.032 0 01.422-4.27C40.384 2.15 41.822.924 43.814.385c2.06-.555 4.121-.504 6.1.362 2.097.914 3.259 2.586 3.653 4.814.083.466.097.96.143 1.439-.03 1.812-.477 3.468-1.724 4.837" fill="#242424" fill-opacity=".7"/><path fill="#242424" fill-opacity=".7" d="M0 5h20v1H0zm0 3h20v1H0z"/></svg>