<svg width="19" height="17" fill="none" xmlns="http://www.w3.org/2000/svg"><path fill-rule="evenodd" clip-rule="evenodd" d="M15.138.907c-2.068-.984-4.682-.38-6.143 1.378C7.537.526 4.933-.077 2.852.906L2.85.908C1.55 1.53.567 2.648.18 4.09c-.387 1.443-.16 3.128.8 4.866 1.29 2.35 3.534 4.13 7.083 6.945l.47.373a.742.742 0 00.924 0l.47-.373c3.55-2.815 5.793-4.595 7.083-6.943.968-1.737 1.2-3.424.813-4.868-.388-1.444-1.377-2.562-2.684-3.183zM9.676 4.011c.79-1.757 3.085-2.553 4.827-1.725h-.001.001c.937.446 1.608 1.223 1.872 2.206.264.983.141 2.257-.672 3.717l-.003.004c-1.116 2.033-3.07 3.607-6.705 6.494-3.636-2.887-5.59-4.462-6.707-6.494v-.001c-.807-1.46-.926-2.735-.662-3.72.265-.984.932-1.76 1.86-2.205 1.759-.83 4.036-.032 4.826 1.724.06.133.156.246.277.325a.741.741 0 001.087-.325z" fill="#fff"/><path fill-rule="evenodd" clip-rule="evenodd" d="M12.838 2.144c.857-.277 1.814-.256 2.647.134h.001l.014.007a.046.046 0 00.002 0v.002h.001c.637.302 1.15.759 1.498 1.328a3.353 3.353 0 01.37.866l.004.011c.264.983.141 2.257-.672 3.717l-.003.004a.701.701 0 01-.01.02c-1.077 1.949-2.93 3.481-6.305 6.164l-.094.074-.254.202-.002.002-.04.032-.042-.033-.003-.003-.252-.2-.094-.074c-3.376-2.683-5.229-4.216-6.306-6.165l-.001-.003a4.663 4.663 0 01-.009-.016v-.001c-.807-1.46-.926-2.735-.662-3.72l.003-.012c.267-.978.933-1.75 1.857-2.193a2.987 2.987 0 01.052-.024l.003-.001c1.47-.662 3.284-.204 4.29.988.193.228.356.483.481.761.06.133.156.246.277.325a.741.741 0 001.087-.325c.126-.278.289-.533.482-.76a3.68 3.68 0 011.68-1.107zm-1.436-1.025c1.234-.693 2.741-.882 4.1-.46h.001a4.774 4.774 0 01.652.256 5.023 5.023 0 011.925 1.602c.333.464.586.993.742 1.573l.003.012c.377 1.419.156 3.07-.77 4.773l-.003.004-.032.06-.002.003-.009.016c-1.289 2.346-3.53 4.125-7.073 6.935l-.01.008-.47.373a.742.742 0 01-.923 0l-.47-.373-.01-.008c-3.544-2.81-5.785-4.59-7.074-6.937a6.848 6.848 0 01-.01-.016v-.002l-.033-.06v-.001C1.015 7.172.8 5.52 1.175 4.103l.003-.013C1.565 2.655 2.54 1.54 3.83.917a9.324 9.324 0 01.02-.01h.002C5.37.19 7.163.315 8.59 1.117a5.072 5.072 0 011.405 1.167 5.081 5.081 0 011.407-1.167z" fill="#242424" fill-opacity=".5"/><path d="M12.838 2.144c.857-.277 1.814-.256 2.647.134h.001l.014.007h.002v.002h.001c.637.302 1.15.759 1.498 1.328a3.353 3.353 0 01.37.866l.004.011c.264.983.141 2.257-.672 3.717l-.003.004-.006.012-.005.008c-1.076 1.949-2.93 3.481-6.304 6.164l-.094.074-.254.202-.002.002-.04.032-.042-.033-.003-.003-.252-.2-.094-.074c-3.376-2.683-5.229-4.216-6.306-6.165l-.001-.003-.009-.016v-.001c-.807-1.46-.926-2.735-.662-3.72l.003-.012c.267-.978.933-1.75 1.857-2.193l.015-.007.004-.002.033-.015.003-.001c1.47-.662 3.284-.204 4.29.988.193.228.356.483.481.761.06.133.156.246.277.325a.741.741 0 001.087-.325c.126-.278.289-.533.482-.76a3.68 3.68 0 011.68-1.107z" fill="#242424" fill-opacity=".5"/></svg>