<svg width="42" height="52" fill="none" xmlns="http://www.w3.org/2000/svg"><path fill-rule="evenodd" clip-rule="evenodd" d="M40.87 16.93c.13.615.13 1.258.13 2.546V38.2c0 4.48 0 6.72-.872 8.432a8 8 0 01-3.496 3.496C34.92 51 32.68 51 28.2 51H13.8c-4.48 0-6.72 0-8.432-.872a8 8 0 01-3.496-3.496C1 44.92 1 42.68 1 38.2V13.8c0-4.48 0-6.72.872-8.432a8 8 0 013.496-3.496C7.08 1 9.32 1 13.8 1h10.204c1.652 0 2.479 0 3.245.206a6 6 0 011.894.887c.648.457 1.177 1.092 2.235 2.361l7.397 8.876c.824.989 1.236 1.483 1.53 2.038.26.492.45 1.018.565 1.563zM35 41.8c0 1.12 0 1.68-.218 2.108a2 2 0 01-.874.874C33.48 45 32.92 45 31.8 45H10.2c-1.12 0-1.68 0-2.108-.218a2 2 0 01-.874-.874C7 43.48 7 42.92 7 41.8V10.2c0-1.12 0-1.68.218-2.108a2 2 0 01.874-.874C8.52 7 9.08 7 10.2 7h14.3v6.267c0 2.24 0 3.36.436 4.216a4 4 0 001.748 1.748c.856.436 1.976.436 4.216.436H35V41.8zM12 26a3 3 0 100 6h18a3 3 0 100-6H12zm0 10a3 3 0 100 6h18a3 3 0 100-6H12z" fill="#242424" fill-opacity=".5"/><path d="M40.87 16.93l-.978.208.978-.207zm-.742 29.702l-.891-.454.891.454zm-3.496 3.496l-.454-.891.454.891zm-31.264 0l.454-.891-.454.891zm-3.496-3.496l.89-.454h.001l-.891.454zm0-41.264l-.891-.454.891.454zm3.496-3.496L4.914.981l.454.891zm21.88-.666l-.26.966.26-.966zm1.895.887l-.576.818.576-.818zm2.235 2.361l-.768.64.004.004.764-.644zm0 0l.769-.64-.004-.004-.765.644zm7.397 8.876l.832-.555-.03-.044-.034-.041-.768.64zm0 0l-.832.555.03.044.034.041.768-.64zm1.53 2.038l.883-.467-.884.467zm-5.523 28.54l.891.454-.891-.454zm-.874.874l.454.891-.454-.891zm-25.816 0l.454-.891-.454.891zm-.874-.874l-.891.454.891-.454zm0-35.816l.891.454-.891-.454zm.874-.874l.454.891-.454-.891zM24.5 7h1V6h-1v1zm.436 10.483l-.891.454.891-.454zm1.748 1.748l.454-.891-.454.89zm8.316.436h1v-1h-1v1zm7-.191c0-1.246.005-2.012-.151-2.752l-1.957.414c.103.488.108 1.009.108 2.338h2zM42 38.2V19.476h-2V38.2h2zm-.98 8.886c.519-1.02.754-2.154.868-3.55C42 42.152 42 40.424 42 38.2h-2c0 2.257 0 3.89-.106 5.173-.104 1.272-.305 2.114-.657 2.805l1.782.908zm-3.934 3.933a9 9 0 003.933-3.933l-1.782-.908a7 7 0 01-3.06 3.059l.909 1.782zM28.2 52c2.224 0 3.952 0 5.336-.112 1.396-.114 2.53-.35 3.55-.869l-.908-1.782c-.691.352-1.533.553-2.805.657C32.089 50 30.457 50 28.2 50v2zm-14.4 0h14.4v-2H13.8v2zm-8.886-.98c1.02.519 2.154.754 3.55.868C9.848 52 11.576 52 13.8 52v-2c-2.257 0-3.89 0-5.173-.106-1.272-.104-2.114-.305-2.805-.657l-.908 1.782zM.981 47.085a9 9 0 003.933 3.933l.908-1.782a7 7 0 01-3.059-3.06l-1.782.909zM0 38.2c0 2.224 0 3.952.112 5.336.114 1.396.35 2.53.869 3.55l1.782-.908c-.352-.691-.553-1.533-.657-2.805C2 42.089 2 40.457 2 38.2H0zm0-24.4v24.4h2V13.8H0zm.98-8.886C.462 5.934.227 7.068.113 8.464 0 9.848 0 11.576 0 13.8h2c0-2.257 0-3.89.106-5.173.104-1.272.305-2.114.657-2.805L.981 4.914zM4.915.981A9 9 0 00.981 4.914l1.782.908a7 7 0 013.06-3.059L4.913.981zM13.8 0c-2.224 0-3.952 0-5.336.112-1.396.114-2.53.35-3.55.869l.908 1.782c.691-.352 1.533-.553 2.805-.657C9.911 2 11.543 2 13.8 2V0zm10.204 0H13.8v2h10.204V0zm3.504.24C26.585-.008 25.602 0 24.004 0v2c1.706 0 2.377.008 2.985.172l.52-1.932zm2.21 1.035A7 7 0 0027.508.24l-.52 1.932a5 5 0 011.58.74l1.15-1.637zm2.429 2.539c-1.024-1.228-1.647-1.988-2.429-2.539l-1.15 1.636c.514.363.95.872 2.042 2.183l1.537-1.28zm-.004-.004l-1.53 1.288 1.53-1.288zm7.4 8.88l-7.396-8.876-1.537 1.28 7.397 8.876 1.536-1.28zm.064.085l-1.664 1.11 1.664-1.11zm1.581 2.126c-.353-.669-.847-1.254-1.645-2.211l-1.536 1.28c.85 1.02 1.18 1.425 1.413 1.865l1.768-.934zm.66 1.823a7 7 0 00-.66-1.823l-1.768.934c.217.41.376.849.472 1.303l1.956-.414zm-6.175 27.638c.193-.378.264-.772.296-1.167.032-.384.031-.852.031-1.395h-2c0 .577 0 .949-.024 1.232-.022.272-.06.373-.085.422l1.782.908zm-1.311 1.311a3 3 0 001.311-1.311l-1.782-.908a1 1 0 01-.437.437l.908 1.782zM31.8 46c.544 0 1.011 0 1.395-.03.395-.033.789-.104 1.167-.297l-.908-1.782c-.05.025-.15.063-.422.085C32.75 44 32.377 44 31.8 44v2zm-21.6 0h21.6v-2H10.2v2zm-2.562-.327c.378.193.772.264 1.167.296.384.032.851.031 1.395.031v-2c-.577 0-.949 0-1.232-.024-.272-.022-.373-.06-.422-.085l-.908 1.782zm-1.311-1.311a3 3 0 001.311 1.311l.908-1.782a1 1 0 01-.437-.437l-1.782.908zM6 41.8c0 .544 0 1.011.03 1.395.033.395.104.789.297 1.167l1.782-.908c-.025-.05-.063-.15-.085-.422C8 42.75 8 42.377 8 41.8H6zm0-31.6v31.6h2V10.2H6zm.327-2.562c-.193.378-.264.772-.296 1.167C5.999 9.189 6 9.656 6 10.2h2c0-.577 0-.949.024-1.232.022-.272.06-.373.085-.422l-1.782-.908zm1.311-1.311a3 3 0 00-1.311 1.311l1.782.908a1 1 0 01.437-.437l-.908-1.782zM10.2 6c-.544 0-1.011 0-1.395.03-.395.033-.789.104-1.167.297l.908 1.782c.05-.025.15-.063.422-.085C9.25 8 9.623 8 10.2 8V6zm14.3 0H10.2v2h14.3V6zm1 7.267V7h-2v6.267h2zm.327 3.762c-.134-.264-.226-.611-.276-1.217-.05-.616-.051-1.409-.051-2.545h-2c0 1.103 0 1.991.058 2.708.06.73.185 1.37.487 1.962l1.782-.908zm1.311 1.31a3 3 0 01-1.311-1.31l-1.782.908a5 5 0 002.185 2.185l.908-1.782zm3.762.328c-1.137 0-1.929-.001-2.546-.052-.605-.049-.953-.141-1.216-.275l-.908 1.782c.592.302 1.232.427 1.961.487.718.058 1.605.058 2.709.058v-2zm4.1 0h-4.1v2H35v-2zM36 41.8V19.667h-2V41.8h2zM10 29a2 2 0 012-2v-2a4 4 0 00-4 4h2zm2 2a2 2 0 01-2-2H8a4 4 0 004 4v-2zm18 0H12v2h18v-2zm2-2a2 2 0 01-2 2v2a4 4 0 004-4h-2zm-2-2a2 2 0 012 2h2a4 4 0 00-4-4v2zm-18 0h18v-2H12v2zm-2 12a2 2 0 012-2v-2a4 4 0 00-4 4h2zm2 2a2 2 0 01-2-2H8a4 4 0 004 4v-2zm18 0H12v2h18v-2zm2-2a2 2 0 01-2 2v2a4 4 0 004-4h-2zm-2-2a2 2 0 012 2h2a4 4 0 00-4-4v2zm-18 0h18v-2H12v2z" fill="#fff"/></svg>