<svg width="376" height="79" fill="none" xmlns="http://www.w3.org/2000/svg"><path d="M42.871.574L0 43.445l35.345 35.346 42.872-42.872L42.87.574z" fill="#fff"/><path d="M42.871.574L0 43.445l35.345 35.346 42.872-42.872L42.87.574z" fill="#970E0B"/><path d="M65.25 27.095l-.95.95.284.285.95-.95-.285-.285zm-1.521 2.09l.57-.57 1.33 1.33c0 .096.096.096.096.191l.095.095v-.19l-.38-2.376.95-.95 1.9 1.9-.57.57-1.33-1.33s0-.095-.095-.19l-.095-.095v.19l.38 2.376-.95.95-1.901-1.9zm-3.136 3.232l.57-.57 1.33 1.33c0 .095.096.095.096.19l.095.095v-.19l-.476-2.47.95-.951 1.901 1.9-.57.57-1.33-1.33s0-.095-.095-.19l-.095-.095v.19l.38 2.376-.95.95-1.806-1.805zm-2.851 2.85l.57-.57.665.666.286-.285v-1.33l.76-.761v1.805l2.09-.095-.855.856h-1.52l-.285.285.76.76-.57.57-1.901-1.9zm-1.71 1.616c.57-.57.95-.855 1.14-.855.19 0 .475.095.76.475l-.57.57c-.095-.095-.19-.19-.285-.095-.095 0-.285.19-.57.475s-.476.475-.476.57c0 .096.095.286.38.476.19.19.38.38.476.38.095 0 .285-.19.57-.475s.38-.476.475-.57c0-.096 0-.19-.095-.286l.57-.57c.38.38.475.57.475.76 0 .19-.285.57-.855 1.14-.57.571-.95.856-1.14.856-.19 0-.57-.19-1.046-.665-.475-.475-.665-.76-.665-.95 0-.285.285-.666.855-1.236zm-1.806 5.702l-1.9-1.9 2.09-2.091.475.475-1.52 1.425.285.285 1.425-1.425.475.475-1.425 1.426.285.285 1.425-1.426.475.475-2.09 1.996zm-3.896.095l.665.665c.095.095.095.095.19.095s.19 0 .19-.095l.855-.855-.95-.95.57-.57 1.9 1.9-.57.57-.475-.475-.855.855c-.285.286-.57.476-.76.476-.285 0-.475-.095-.76-.38l-.666-.666.666-.57zm-3.707 3.706l.57-.57 1.33 1.33c0 .096.096.096.096.19l.095.096v-.19l-.38-2.376.95-.95 1.9 1.9-.57.57-1.33-1.33s0-.095-.095-.19l-.095-.095v.19l.38 2.376-.95.95-1.9-1.9zm-1.71 2.661l1.045-1.045.95.95-1.14 1.14c0-.094-.095-.19-.19-.38l-.665-.665zm-1.046.095c.57.57.95.95 1.046 1.14.19.19.19.38.19.38l-.095.096.665.665.57-.57-.095-.095-.095-.095s0-.095.095-.095l1.14-1.14.096-.096s.095 0 .095.095l.095.095.57-.57-.665-.665-.19.19-1.236-1.52-2.186 2.185zm-.95 4.752l-1.9-1.9 2.09-2.091.475.475-1.52 1.52.285.285 1.425-1.425.476.475-1.426 1.425.285.285 1.426-1.425.475.475-2.09 1.9zm-4.846 1.045l2.47-2.47 1.9 1.9-.57.57-1.425-1.425-1.33 1.33 1.425 1.426-.57.57-1.9-1.9zm-1.426 3.326c.285.285.38.38.475.38.095 0 .285-.19.665-.57.38-.38.476-.57.57-.665 0-.095-.094-.285-.38-.475-.285-.285-.38-.38-.475-.38-.095 0-.285.19-.665.57-.38.38-.475.57-.57.665 0 .095.095.285.38.475zm1.9-1.9c.476.475.666.76.666.95 0 .19-.38.665-.95 1.235-.476.476-.76.76-.95.856-.19.095-.38.19-.57.095-.096-.095-.381-.285-.761-.57-.475-.476-.665-.76-.665-.95 0-.19.38-.666.95-1.236s1.045-.95 1.235-.95c.285-.096.57.094 1.046.57zm-5.606 4.751l-.475-.475 2.28-2.28.476.474-.856.856 1.426 1.425-.57.57-1.52-1.425-.761.855zm-1.616 2.471l.856-.855c.095-.095.095-.095.095-.19s0-.19-.095-.285c-.096-.096-.19-.096-.286-.096-.095 0-.095 0-.19.096l-.855.855.475.475zm-1.52-.38l1.425-1.426c.285-.285.57-.475.76-.475.19 0 .476.095.76.38.286.285.476.57.38.76 0 .19-.19.38-.474.76l-.856.856.476.475-.57.57-1.901-1.9zm-1.426 3.326c.285.285.38.38.476.38.095 0 .285-.19.665-.57.38-.38.475-.57.57-.665 0-.095-.095-.285-.38-.475-.285-.286-.38-.38-.475-.38-.095 0-.285.19-.666.57-.38.38-.475.57-.57.665 0 .095.095.285.38.475zm1.9-1.9c.476.475.666.76.666.95 0 .19-.38.665-.95 1.235-.475.475-.76.76-.95.855-.19.095-.38.19-.57.095-.096-.095-.38-.285-.76-.57-.476-.475-.666-.76-.666-.95 0-.19.38-.665.95-1.236.57-.57 1.046-.95 1.236-.95.285-.095.57.095 1.045.57zM64.386 35.08l1.996 1.996 3.516-3.517-1.996-1.995 1.615-1.616 5.702 5.702-1.615 1.52-2.186-2.185-3.516 3.516 2.186 2.186-1.616 1.615L62.77 36.6l1.616-1.52zm-5.417 11.024c.76.76 1.235 1.045 1.52 1.045.286 0 .856-.475 1.806-1.426.95-.95 1.426-1.52 1.52-1.805 0-.285-.284-.76-1.045-1.52-.76-.76-1.235-1.046-1.52-1.046-.285 0-.855.57-1.806 1.52-.95.95-1.425 1.521-1.52 1.806 0 .19.285.76 1.045 1.426zm5.417-5.322c1.33 1.33 2.09 2.376 1.996 2.946-.096.665-.95 1.805-2.661 3.516-1.236 1.235-2.091 1.996-2.566 2.28-.57.38-1.14.38-1.71.096-.38-.19-1.141-.856-2.092-1.806-1.33-1.33-2.09-2.376-1.995-2.946 0-.665.95-1.805 2.66-3.516 1.711-1.71 2.852-2.566 3.517-2.66.475 0 1.425.664 2.85 2.09zm-11.499 5.797l5.702 5.702-1.616 1.615-4.276-4.276-2.851 2.946c1.616 1.615 2.66 2.85 2.946 3.8.285.761.19 1.521-.38 2.092l-.76.76-1.426-1.426c.38-.38.475-.76.19-1.235-.285-.38-1.52-1.71-3.611-3.801l6.082-6.177zM42.529 59.503l-.286.285 1.046 2.851 1.995-1.996-2.755-1.14zm-2.851.285l2.85-2.85 8.268 3.04-1.9 1.9-1.426-.474-3.326 3.326.475 1.425-1.9 1.9-3.041-8.267zm-6.747 6.557c1.52-1.52 2.565-2.28 3.23-2.376.57-.095 1.331.38 2.281 1.426l-1.615 1.615c-.285-.285-.666-.475-.855-.38-.286.095-.856.476-1.521 1.236-.76.76-1.235 1.33-1.235 1.615 0 .285.38.76 1.045 1.426.665.665 1.14 1.045 1.425 1.045.285 0 .76-.38 1.616-1.235.76-.76 1.14-1.236 1.235-1.52.095-.286 0-.571-.38-.951l1.616-1.616c1.045 1.046 1.52 1.806 1.425 2.281-.095.665-.855 1.71-2.47 3.231-1.521 1.52-2.567 2.28-3.232 2.376-.665 0-1.615-.665-2.946-1.996-1.33-1.33-1.995-2.28-1.995-2.946.095-.665.855-1.71 2.376-3.23z" fill="#fff"/><path fill-rule="evenodd" clip-rule="evenodd" d="M31.603 30.707l-9.978 9.978c-3.23-3.706-1.235-8.743 1.806-11.689l2.946-2.946-1.046-1.045 12.07-2.09-3.517 3.515 3.611 3.611-5.892.666zm12.734 6.462L31.223 50.283l-5.227-5.227 5.797-5.796 12.544-2.091zm-8.552-1.423l16.726-3.041s.665.475 1.045 1.14l.76 1.52.76-.094c-1.045-2.28-3.326-6.082-8.932-5.892-5.702.285-10.359 6.367-10.359 6.367z" fill="#fff"/><path fill-rule="evenodd" clip-rule="evenodd" d="M56.028 19.97l.855.854-1.996 1.996c-.095.095-.19.095-.285.19l-.095.095h.095c.095 0 .095 0 .19-.095l3.611-.57 1.426 1.425-2.851 2.851-.855-.855 1.995-1.996s.095-.095.285-.19l.095-.095h-.095c-.095 0-.095 0-.19.095l-3.61.57-1.426-1.425 2.85-2.85zm-4.752-3.327l.76-.76 3.326 3.326-.76.855-1.235-1.235-2.091 2.09-.855-.855 2.09-2.09-1.235-1.331zm-3.706-2.28l1.235 1.235c.095.095.19.19.285.19.095 0 .285-.095.38-.19.095-.095.19-.285.19-.38 0-.095-.095-.19-.19-.286l-1.235-1.235-.665.665zm.475-2.281l2.09 2.09c.476.475.76.855.76 1.045 0 .286-.19.76-.664 1.14-.476.476-.856.666-1.14.666-.286 0-.666-.285-1.141-.76l-1.236-1.236-.57.76-.855-.95 2.756-2.755zm-4.942-2.186c-.38.38-.57.57-.475.76 0 .19.285.475.76.95.476.476.856.76.95.76.096 0 .38-.19.76-.475.381-.38.571-.665.476-.76 0-.095-.285-.475-.76-.95-.475-.475-.855-.76-.95-.76-.095-.095-.38.095-.76.475zm2.851 2.85c-.665.666-1.14 1.046-1.52.951-.285 0-.95-.475-1.806-1.425-.665-.666-1.045-1.14-1.235-1.33-.19-.286-.19-.571-.095-.856.095-.19.38-.57.95-1.046.665-.665 1.14-1.045 1.52-.95.286 0 .95.475 1.806 1.426.855.855 1.33 1.52 1.425 1.805 0 .285-.38.76-1.045 1.426zM22.862 54.752l1.995 1.995-1.805 1.806-2.186-2.186c.095 0 .38-.095.76-.38l1.236-1.235zm-.19-2.091c-1.046 1.045-1.806 1.806-2.281 2.09-.38.286-.665.38-.76.286l-.19-.19-1.331 1.33 1.14 1.14.19-.19c.095-.095.19-.095.19-.095.096 0 .19 0 .286.095l2.28 2.281c.095.095.095.19.095.285 0 .095 0 .19-.095.19l-.19.19 1.14 1.14 1.331-1.33-.285-.285 2.756-2.756-4.276-4.181zm-9.219-1.806l3.707-3.706 3.991 3.991-.855.856-2.851-2.851-.475.475 2.66 2.66-.855.856-2.66-2.66-.476.474 2.851 2.85-1.045.95-3.992-3.896zm-3.23-10.643l-3.707 3.706 1.14 1.14 2.566-2.566.096-.094c.095-.096.095-.19.095-.19h.095v.094c0 .096 0 .096-.095.19l-1.33 4.182.95.95 4.086-1.425s.095 0 .19-.095h.095v.095s-.095 0-.19.095-.19.095-.19.095l-2.566 2.566 1.14 1.14 3.706-3.706-1.9-1.9-3.041 1.14c-.19.095-.285.19-.38.285-.095.095-.19.095-.19.095s0-.095.19-.285c.095-.19.19-.285.19-.285l1.14-3.041-2.09-2.186zm-6.938 3.23L43.008 3.72l20.717 20.62-8.553 8.553-.38-.665 2.661-2.66L37.781 9.99 9.652 38.12 29.23 57.695 52.797 34.13l.285.855-29.08 29.175L3.285 43.442zm117.459-12.927c5.321 0 8.743 4.182 8.743 9.504 0 5.226-3.612 9.503-8.648 9.503-5.132 0-8.743-4.182-8.743-9.503 0-5.227 3.326-9.598 8.648-9.503zm0-6.367c9.313 0 16.915 7.033 16.915 15.776 0 8.742-7.602 15.775-16.915 15.775-9.313 0-16.916-7.032-16.916-15.775 0-8.648 7.603-15.776 16.916-15.776z" fill="#fff"/><path fill-rule="evenodd" clip-rule="evenodd" d="M120.744 30.515c5.321 0 8.743 4.182 8.743 9.504 0 5.226-3.612 9.503-8.648 9.503-5.132 0-8.743-4.182-8.743-9.503 0-5.227 3.326-9.598 8.648-9.503zm0-6.367c9.313 0 16.915 7.033 16.915 15.776 0 8.742-7.602 15.775-16.915 15.775-9.313 0-16.916-7.032-16.916-15.775 0-8.648 7.603-15.776 16.916-15.776z" fill="#970E0B"/><path fill-rule="evenodd" clip-rule="evenodd" d="M156.188 30.99l-6.082-.095v8.458h5.607c5.702-1.045 4.562-7.698.475-8.363zm-11.023-6.082c-1.616.19-2.851 1.045-2.946 2.756v25.468c1.425 3.517 6.652 3.327 7.792 0v-7.697c3.231.095 6.462-.095 9.694-.19 3.896-.76 7.507-3.516 8.077-9.408-.095-8.078-5.987-10.739-10.643-10.834-3.992-.095-7.983-.095-11.974-.095z" fill="#fff"/><path fill-rule="evenodd" clip-rule="evenodd" d="M156.188 30.99l-6.082-.095v8.458h5.607c5.702-1.045 4.562-7.698.475-8.363zm-11.023-6.082c-1.616.19-2.851 1.045-2.946 2.756v25.468c1.425 3.517 6.652 3.327 7.792 0v-7.697c3.231.095 6.462-.095 9.694-.19 3.896-.76 7.507-3.516 8.077-9.408-.095-8.078-5.987-10.739-10.643-10.834-3.992-.095-7.983-.095-11.974-.095z" fill="#970E0B"/><path d="M175.386 31.182h5.322v21.857c.19 1.52 1.995 2.566 3.801 2.47 1.521 0 3.706-.474 3.896-2.47l.095-21.857c2.186 0 4.277-.095 6.462-.095 2.091-.57 2.186-2.091 2.186-3.136 0-.95-.665-2.756-2.566-2.851-6.557 0-12.734.095-19.196 0-2.661-.095-3.136 2.09-3.136 3.04 0 1.046.38 2.852 3.136 3.042z" fill="#fff"/><path d="M175.386 31.182h5.322v21.857c.19 1.52 1.995 2.566 3.801 2.47 1.521 0 3.706-.474 3.896-2.47l.095-21.857c2.186 0 4.277-.095 6.462-.095 2.091-.57 2.186-2.091 2.186-3.136 0-.95-.665-2.756-2.566-2.851-6.557 0-12.734.095-19.196 0-2.661-.095-3.136 2.09-3.136 3.04 0 1.046.38 2.852 3.136 3.042z" fill="#970E0B"/><path fill-rule="evenodd" clip-rule="evenodd" d="M175.386 31.182h5.322v21.857c.19 1.52 1.995 2.566 3.801 2.47 1.521 0 3.706-.474 3.896-2.47l.095-21.857c2.186 0 4.277-.095 6.462-.095 2.091-.57 2.186-2.091 2.186-3.136 0-.95-.665-2.756-2.566-2.851-6.557 0-12.734.095-19.196 0-2.661-.095-3.136 2.09-3.136 3.04 0 1.046.38 2.852 3.136 3.042z" fill="#fff"/><path fill-rule="evenodd" clip-rule="evenodd" d="M175.386 31.182h5.322v21.857c.19 1.52 1.995 2.566 3.801 2.47 1.521 0 3.706-.474 3.896-2.47l.095-21.857c2.186 0 4.277-.095 6.462-.095 2.091-.57 2.186-2.091 2.186-3.136 0-.95-.665-2.756-2.566-2.851-6.557 0-12.734.095-19.196 0-2.661-.095-3.136 2.09-3.136 3.04 0 1.046.38 2.852 3.136 3.042z" fill="#970E0B"/><path d="M209.408 27.475c-.095-2.375-2.755-2.85-4.086-2.85-1.235 0-3.421.57-3.611 2.85V53.23c.57 1.71 2.376 2.186 3.611 2.28 1.236.096 2.661-.38 3.801-1.615l15.3-16.535c0 5.131.095 10.358.095 15.49.476 2.376 2.471 2.566 3.707 2.566 1.235.095 2.946 0 3.991-2.186V27.285c-.855-2.47-2.471-2.66-3.801-2.756-1.236-.095-2.661.57-3.992 2.091l-14.92 16.44c0-5.226-.095-10.358-.095-15.585z" fill="#fff"/><path d="M209.408 27.475c-.095-2.375-2.755-2.85-4.086-2.85-1.235 0-3.421.57-3.611 2.85V53.23c.57 1.71 2.376 2.186 3.611 2.28 1.236.096 2.661-.38 3.801-1.615l15.3-16.535c0 5.131.095 10.358.095 15.49.476 2.376 2.471 2.566 3.707 2.566 1.235.095 2.946 0 3.991-2.186V27.285c-.855-2.47-2.471-2.66-3.801-2.756-1.236-.095-2.661.57-3.992 2.091l-14.92 16.44c0-5.226-.095-10.358-.095-15.585z" fill="#970E0B"/><path fill-rule="evenodd" clip-rule="evenodd" d="M209.408 27.475c-.095-2.375-2.755-2.85-4.086-2.85-1.235 0-3.421.57-3.611 2.85V53.23c.57 1.71 2.376 2.186 3.611 2.28 1.236.096 2.661-.38 3.801-1.615l15.3-16.535c0 5.131.095 10.358.095 15.49.476 2.376 2.471 2.566 3.707 2.566 1.235.095 2.946 0 3.991-2.186V27.285c-.855-2.47-2.471-2.66-3.801-2.756-1.236-.095-2.661.57-3.992 2.091l-14.92 16.44c0-5.226-.095-10.358-.095-15.585z" fill="#fff"/><path fill-rule="evenodd" clip-rule="evenodd" d="M209.408 27.475c-.095-2.375-2.755-2.85-4.086-2.85-1.235 0-3.421.57-3.611 2.85V53.23c.57 1.71 2.376 2.186 3.611 2.28 1.236.096 2.661-.38 3.801-1.615l15.3-16.535c0 5.131.095 10.358.095 15.49.476 2.376 2.471 2.566 3.707 2.566 1.235.095 2.946 0 3.991-2.186V27.285c-.855-2.47-2.471-2.66-3.801-2.756-1.236-.095-2.661.57-3.992 2.091l-14.92 16.44c0-5.226-.095-10.358-.095-15.585z" fill="#970E0B"/><path d="M241.054 28.427c-1.521 7.887-2.851 15.775-4.372 23.662-.19 2.756 2.281 3.421 3.516 3.516 1.331.095 3.517-.475 4.277-3.136l2.756-15.015c1.9 5.227 3.801 10.359 5.702 15.586 1.14 2.47 2.66 2.565 3.991 2.66 1.33.095 3.326-.57 4.181-2.375l5.417-15.87c1.045 5.321 2.091 10.643 3.136 16.06 1.045 2.185 2.471 2.28 3.706 2.185 1.331-.095 3.611-.38 3.992-3.326-1.426-8.267-3.136-15.87-4.657-24.043-.665-2.47-3.231-3.516-4.942-3.516-1.71-.095-3.801.19-5.131 3.136l-5.607 14.825c-1.711-4.751-3.516-9.503-5.227-14.255-2.186-4.18-3.896-3.896-5.702-3.896-1.805 0-4.181.57-5.036 3.802z" fill="#fff"/><path d="M241.054 28.427c-1.521 7.887-2.851 15.775-4.372 23.662-.19 2.756 2.281 3.421 3.516 3.516 1.331.095 3.517-.475 4.277-3.136l2.756-15.015c1.9 5.227 3.801 10.359 5.702 15.586 1.14 2.47 2.66 2.565 3.991 2.66 1.33.095 3.326-.57 4.181-2.375l5.417-15.87c1.045 5.321 2.091 10.643 3.136 16.06 1.045 2.185 2.471 2.28 3.706 2.185 1.331-.095 3.611-.38 3.992-3.326-1.426-8.267-3.136-15.87-4.657-24.043-.665-2.47-3.231-3.516-4.942-3.516-1.71-.095-3.801.19-5.131 3.136l-5.607 14.825c-1.711-4.751-3.516-9.503-5.227-14.255-2.186-4.18-3.896-3.896-5.702-3.896-1.805 0-4.181.57-5.036 3.802z" fill="#970E0B"/><path fill-rule="evenodd" clip-rule="evenodd" d="M241.054 28.427c-1.521 7.887-2.851 15.775-4.372 23.662-.19 2.756 2.281 3.421 3.516 3.516 1.331.095 3.517-.475 4.277-3.136l2.756-15.015c1.9 5.227 3.801 10.359 5.702 15.586 1.14 2.47 2.66 2.565 3.991 2.66 1.33.095 3.326-.57 4.181-2.375l5.417-15.87c1.045 5.321 2.091 10.643 3.136 16.06 1.045 2.185 2.471 2.28 3.706 2.185 1.331-.095 3.611-.38 3.992-3.326-1.426-8.267-3.136-15.87-4.657-24.043-.665-2.47-3.231-3.516-4.942-3.516-1.71-.095-3.801.19-5.131 3.136l-5.607 14.825c-1.711-4.751-3.516-9.503-5.227-14.255-2.186-4.18-3.896-3.896-5.702-3.896-1.805 0-4.181.57-5.036 3.802z" fill="#fff"/><path fill-rule="evenodd" clip-rule="evenodd" d="M241.054 28.427c-1.521 7.887-2.851 15.775-4.372 23.662-.19 2.756 2.281 3.421 3.516 3.516 1.331.095 3.517-.475 4.277-3.136l2.756-15.015c1.9 5.227 3.801 10.359 5.702 15.586 1.14 2.47 2.66 2.565 3.991 2.66 1.33.095 3.326-.57 4.181-2.375l5.417-15.87c1.045 5.321 2.091 10.643 3.136 16.06 1.045 2.185 2.471 2.28 3.706 2.185 1.331-.095 3.611-.38 3.992-3.326-1.426-8.267-3.136-15.87-4.657-24.043-.665-2.47-3.231-3.516-4.942-3.516-1.71-.095-3.801.19-5.131 3.136l-5.607 14.825c-1.711-4.751-3.516-9.503-5.227-14.255-2.186-4.18-3.896-3.896-5.702-3.896-1.805 0-4.181.57-5.036 3.802z" fill="#970E0B"/><path d="M284.959 25.005a2.91 2.91 0 00-2.851 3.04c-.095 8.078-.095 16.156-.19 24.139.38 2.185 1.711 3.04 4.086 3.136 4.562-.096 9.028-.096 13.59-.19 2.376-.666 2.471-2.186 2.471-3.232 0-1.045-.286-2.756-2.471-2.946l-9.979-.095v-5.892h8.648c2.566-.19 3.136-2.185 3.041-3.136-.095-1.14-.095-2.755-2.661-3.136l-9.028-.19.096-5.416c3.326-.096 6.652-.096 9.978-.19 1.805-.286 2.376-2.091 2.186-3.041-.191-1.046-.286-2.852-3.041-3.042-4.752.19-9.123.096-13.875.19z" fill="#fff"/><path d="M284.959 25.005a2.91 2.91 0 00-2.851 3.04c-.095 8.078-.095 16.156-.19 24.139.38 2.185 1.711 3.04 4.086 3.136 4.562-.096 9.028-.096 13.59-.19 2.376-.666 2.471-2.186 2.471-3.232 0-1.045-.286-2.756-2.471-2.946l-9.979-.095v-5.892h8.648c2.566-.19 3.136-2.185 3.041-3.136-.095-1.14-.095-2.755-2.661-3.136l-9.028-.19.096-5.416c3.326-.096 6.652-.096 9.978-.19 1.805-.286 2.376-2.091 2.186-3.041-.191-1.046-.286-2.852-3.041-3.042-4.752.19-9.123.096-13.875.19z" fill="#970E0B"/><path fill-rule="evenodd" clip-rule="evenodd" d="M284.959 25.005a2.91 2.91 0 00-2.851 3.04c-.095 8.078-.095 16.156-.19 24.139.38 2.185 1.711 3.04 4.086 3.136 4.562-.096 9.028-.096 13.59-.19 2.376-.666 2.471-2.186 2.471-3.232 0-1.045-.286-2.756-2.471-2.946l-9.979-.095v-5.892h8.648c2.566-.19 3.136-2.185 3.041-3.136-.095-1.14-.095-2.755-2.661-3.136l-9.028-.19.096-5.416c3.326-.096 6.652-.096 9.978-.19 1.805-.286 2.376-2.091 2.186-3.041-.191-1.046-.286-2.852-3.041-3.042-4.752.19-9.123.096-13.875.19z" fill="#fff"/><path fill-rule="evenodd" clip-rule="evenodd" d="M284.959 25.005a2.91 2.91 0 00-2.851 3.04c-.095 8.078-.095 16.156-.19 24.139.38 2.185 1.711 3.04 4.086 3.136 4.562-.096 9.028-.096 13.59-.19 2.376-.666 2.471-2.186 2.471-3.232 0-1.045-.286-2.756-2.471-2.946l-9.979-.095v-5.892h8.648c2.566-.19 3.136-2.185 3.041-3.136-.095-1.14-.095-2.755-2.661-3.136l-9.028-.19.096-5.416c3.326-.096 6.652-.096 9.978-.19 1.805-.286 2.376-2.091 2.186-3.041-.191-1.046-.286-2.852-3.041-3.042-4.752.19-9.123.096-13.875.19z" fill="#970E0B"/><path d="M320.973 48.573l5.132-12.26 5.132 12.26h-10.264zm-8.552 0h-2.281c-2.851 0-3.421 2.09-3.421 3.23 0 .951.855 3.232 3.231 3.232h31.93c3.326-.38 3.516-2.376 3.516-3.516 0-1.046-.38-2.946-3.611-3.136l-2.28-.095c-3.327-7.223-6.653-14.445-10.074-21.667-.665-1.806-2.471-2.281-3.611-2.281-1.235 0-2.756.475-3.706 2.376l-9.693 21.857z" fill="#fff"/><path d="M320.973 48.573l5.132-12.26 5.132 12.26h-10.264zm-8.552 0h-2.281c-2.851 0-3.421 2.09-3.421 3.23 0 .951.855 3.232 3.231 3.232h31.93c3.326-.38 3.516-2.376 3.516-3.516 0-1.046-.38-2.946-3.611-3.136l-2.28-.095c-3.327-7.223-6.653-14.445-10.074-21.667-.665-1.806-2.471-2.281-3.611-2.281-1.235 0-2.756.475-3.706 2.376l-9.693 21.857z" fill="#970E0B"/><path fill-rule="evenodd" clip-rule="evenodd" d="M320.973 48.573l5.132-12.26 5.132 12.26h-10.264zm-8.552 0h-2.281c-2.851 0-3.421 2.09-3.421 3.23 0 .951.855 3.232 3.231 3.232h31.93c3.326-.38 3.516-2.376 3.516-3.516 0-1.046-.38-2.946-3.611-3.136l-2.28-.095c-3.327-7.223-6.653-14.445-10.074-21.667-.665-1.806-2.471-2.281-3.611-2.281-1.235 0-2.756.475-3.706 2.376l-9.693 21.857z" fill="#fff"/><path fill-rule="evenodd" clip-rule="evenodd" d="M320.973 48.573l5.132-12.26 5.132 12.26h-10.264zm-8.552 0h-2.281c-2.851 0-3.421 2.09-3.421 3.23 0 .951.855 3.232 3.231 3.232h31.93c3.326-.38 3.516-2.376 3.516-3.516 0-1.046-.38-2.946-3.611-3.136l-2.28-.095c-3.327-7.223-6.653-14.445-10.074-21.667-.665-1.806-2.471-2.281-3.611-2.281-1.235 0-2.756.475-3.706 2.376l-9.693 21.857z" fill="#970E0B"/><path d="M368.968 10.845h2.281l-1.14-3.61-1.141 3.61zm-1.235 3.516h-1.996l3.231-9.218h2.186l3.231 9.218h-2.091l-.57-1.9h-3.326l-.665 1.9zm-3.421 0h-1.901V6.76h-2.756V5.143h7.413V6.76h-2.756v7.602zm-8.458-4.941c.57 0 .95-.19 1.14-.475.19-.285.285-.665.285-1.046 0-.475-.095-.76-.38-.95-.285-.19-.665-.285-1.235-.285h-1.521v2.66h1.711v.096zm-1.711 4.941h-1.9V5.143h4.181c.57 0 1.046.096 1.521.38.38.286.76.57.95 1.046.19.475.38.95.38 1.52 0 .38-.095.76-.285 1.236-.19.475-.475.855-.855 1.235-.475.38-1.046.475-1.806.475h-2.186v3.326zm-7.602-1.425c.285 0 .57-.095.855-.19.285-.095.57-.285.76-.475.286-.285.476-.57.571-1.046.19-.38.19-.95.19-1.52 0-.57-.095-1.14-.19-1.52-.19-.38-.381-.76-.571-1.046-.285-.285-.475-.38-.76-.475-.285-.095-.57-.19-.855-.19-.285 0-.57.095-.855.19a2.073 2.073 0 00-.761.475c-.285.285-.475.57-.57.95-.19.38-.19.95-.19 1.521 0 .57.095 1.14.19 1.52.19.38.38.76.57.95.285.286.476.38.761.476.285.38.57.38.855.38zm0-8.078c.38 0 .855.095 1.33.19.475.095.951.38 1.426.666.475.38.855.855 1.14 1.52.285.665.475 1.52.475 2.471 0 1.045-.19 1.806-.475 2.47a3.78 3.78 0 01-1.14 1.521c-.475.38-.951.57-1.426.665-.475.096-.855.19-1.33.19-.38 0-.855-.094-1.331-.19-.475-.095-.95-.38-1.425-.665a3.78 3.78 0 01-1.14-1.52c-.285-.665-.476-1.52-.476-2.471 0-1.045.191-1.806.476-2.47a3.78 3.78 0 011.14-1.521c.475-.38.95-.57 1.425-.666.476-.095.951-.19 1.331-.19zM335.517 6.76v7.602h-1.9V5.143h7.317v9.218h-1.901V6.76h-3.516zm-4.941 1.425c-.095-.475-.285-.855-.571-1.14-.285-.285-.76-.475-1.425-.475-.57 0-1.14.285-1.52.76-.476.475-.666 1.33-.666 2.471 0 .57.095 1.14.19 1.616.19.475.38.855.761 1.14.38.285.76.38 1.235.38.38 0 .665-.095.95-.19.285-.095.475-.285.666-.57.19-.285.285-.57.38-.95h1.9c-.095.665-.38 1.235-.665 1.805-.38.475-.76.95-1.33 1.236-.571.285-1.236.38-1.901.38-.855 0-1.52-.19-2.186-.57a3.355 3.355 0 01-1.425-1.616c-.38-.76-.57-1.616-.57-2.661s.19-1.9.57-2.66c.38-.761.855-1.236 1.52-1.616.666-.38 1.331-.57 2.186-.57.665 0 1.235.094 1.711.285.475.19.855.475 1.235.76.285.285.57.665.76 1.045.19.38.285.76.285 1.14h-2.09zm-24.328 3.327l3.611-6.368h1.996v9.218h-1.806V7.804l-3.706 6.557h-1.901V5.143h1.806v6.368zm-16.631-2.376V6.664h-2.376c-.285 0-.57.095-.76.19-.19.095-.38.285-.475.475-.095.19-.095.38-.095.57 0 .38.095.76.38.95.285.19.57.38 1.14.38h2.186v-.094zm1.901 5.226h-1.901v-3.61h-1.235l-2.281 3.61h-2.376l2.566-3.61c-.665-.096-1.14-.476-1.615-.951-.476-.475-.666-1.14-.666-1.806 0-.475.095-.95.38-1.33.191-.38.571-.76 1.046-1.045.475-.285.95-.38 1.52-.38h4.562v9.122zm-12.829-4.37v2.66h1.52c.57 0 1.045-.095 1.235-.285.286-.19.381-.475.381-.95 0-.38-.095-.666-.285-1.046-.191-.285-.571-.475-1.141-.475h-1.71v.095zm0-1.521h2.185c.761 0 1.331.19 1.806.475.475.38.76.76.855 1.235.19.475.285.855.285 1.236 0 .57-.095 1.14-.38 1.52-.19.475-.57.76-.95 1.045-.38.286-.95.38-1.521.38h-4.181V5.143h1.901V8.47zm-9.028.285h2.185c.38 0 .761-.095.951-.285.285-.19.38-.38.38-.76s-.095-.57-.38-.76c-.19-.191-.571-.191-1.046-.191h-2.185v1.996h.095zm0 3.991h2.375c.951 0 1.426-.475 1.426-1.33 0-.38-.095-.666-.38-.856a1.605 1.605 0 00-.951-.285h-2.375v2.471h-.095zm-1.806-7.603h4.466c.666 0 1.236.096 1.616.38.38.286.76.57.855.95.19.381.285.761.285 1.046 0 .57-.095.95-.285 1.236-.19.285-.475.475-.76.665.95.38 1.426 1.14 1.426 2.186 0 .38-.096.665-.191 1.045-.095.285-.285.57-.57.855-.19.19-.38.38-.57.475-.19.095-.475.19-.855.286-.38.095-.855.095-1.426.095h-3.896v-9.22h-.095zm-5.607 7.793c.285 0 .57-.095.855-.19.286-.095.571-.285.761-.475.285-.285.475-.57.57-1.046.19-.38.19-.95.19-1.52 0-.57-.095-1.14-.19-1.52-.19-.38-.38-.76-.57-1.046-.285-.285-.475-.38-.761-.475-.285-.095-.57-.19-.855-.19-.285 0-.57.095-.855.19-.285.095-.57.285-.76.475-.285.285-.476.57-.571.95-.19.38-.19.95-.19 1.521 0 .57.095 1.14.19 1.52.191.38.381.76.571.95.285.286.475.38.76.476.285.38.57.38.855.38zm0-8.078c.38 0 .855.095 1.331.19.475.095.95.38 1.425.666.475.38.855.855 1.14 1.52.286.665.476 1.52.476 2.471 0 1.045-.19 1.806-.476 2.47a3.78 3.78 0 01-1.14 1.521c-.475.38-.95.57-1.425.665-.476.096-.856.19-1.331.19-.38 0-.855-.094-1.33-.19-.475-.095-.951-.38-1.426-.665a3.78 3.78 0 01-1.14-1.52c-.285-.665-.475-1.52-.475-2.471 0-1.045.19-1.806.475-2.47a3.78 3.78 0 011.14-1.521c.475-.38.951-.57 1.426-.666.475-.095.95-.19 1.33-.19zm-8.553 4.562c.571 0 .951-.19 1.141-.475.19-.285.285-.665.285-1.046 0-.475-.095-.76-.38-.95-.285-.19-.666-.285-1.236-.285h-1.52v2.66h1.71v.096zm-1.71 4.941h-1.901V5.143h4.182c.57 0 1.045.096 1.52.38.38.286.76.57.95 1.046.19.475.38.95.38 1.52 0 .38-.095.76-.285 1.236-.19.475-.475.855-.855 1.235-.475.38-1.045.475-1.805.475h-2.186v3.326zm-7.603-1.425c.285 0 .57-.095.856-.19.285-.095.57-.285.76-.475.285-.285.475-.57.57-1.046.19-.38.19-.95.19-1.52 0-.57-.095-1.14-.19-1.52-.19-.38-.38-.76-.57-1.046-.285-.285-.475-.38-.76-.475-.286-.095-.571-.19-.856-.19-.285 0-.57.095-.855.19-.285.095-.57.285-.76.475-.285.285-.475.57-.57.95-.191.38-.19.95-.19 1.521 0 .57.095 1.14.19 1.52.19.38.38.76.57.95.285.286.475.38.76.476.285.38.57.38.855.38zm0-8.078c.38 0 .856.095 1.331.19s.95.38 1.425.666c.475.38.855.855 1.141 1.52.285.665.475 1.52.475 2.471 0 1.045-.19 1.806-.475 2.47a3.79 3.79 0 01-1.141 1.521c-.475.38-.95.57-1.425.665-.475.096-.856.19-1.331.19-.38 0-.855-.094-1.33-.19-.475-.095-.95-.38-1.426-.665a3.78 3.78 0 01-1.14-1.52c-.285-.665-.475-1.52-.475-2.471 0-1.045.19-1.806.475-2.47a3.78 3.78 0 011.14-1.521c.476-.38.951-.57 1.426-.666.57-.095.95-.19 1.33-.19zm-7.412 7.888V6.759h-2.566v2.946c0 .855-.095 1.52-.19 1.9-.095.38-.285.76-.57 1.046h3.326v.095zm-4.372-3.041V5.143h6.272v7.603h.856v3.326h-1.806v-1.71h-5.037v1.71h-1.805v-3.326c.285 0 .57-.095.76-.285.19-.19.38-.475.475-.95.19-.476.285-1.046.285-1.806zm-3.136-.285c.285 0 .571.19.951.285.285.19.57.475.76.76.19.285.285.665.285 1.14 0 .476-.095.95-.38 1.426-.285.475-.665.76-1.14 1.045-.571.285-1.236.38-2.091.38-.76 0-1.426-.095-1.996-.284-.57-.19-.95-.476-1.235-.76a2.532 2.532 0 01-.57-.951c-.095-.38-.19-.665-.19-1.045h1.805c0 .19.095.475.19.665.095.19.285.38.665.57.285.19.666.285 1.236.285.475 0 .855-.095 1.235-.38.38-.285.475-.57.475-.95 0-.286-.095-.57-.285-.76-.19-.19-.38-.38-.665-.476-.285-.095-.57-.19-.855-.19h-1.426V8.66h1.426c.475 0 .855-.095 1.14-.285.285-.19.475-.476.475-.856 0-.19-.095-.475-.19-.57-.095-.19-.38-.285-.57-.38-.285-.095-.57-.095-.855-.095-.475 0-.856.095-1.141.285-.285.19-.475.38-.475.57-.095.19-.095.38-.095.57h-1.805c0-.475.095-.855.38-1.33.19-.475.57-.855 1.14-1.14.57-.286 1.236-.476 2.091-.476.855 0 1.615.19 2.09.476.571.285.856.665 1.141 1.045.19.38.285.855.285 1.235 0 .57-.19.95-.475 1.236-.38.19-.855.38-1.331.475zm-19.861-.285V6.664h-2.376c-.285 0-.57.095-.76.19-.19.095-.38.285-.475.475-.095.19-.095.38-.095.57 0 .38.095.76.38.95.285.19.57.38 1.14.38h2.186v-.094zm1.9 5.226h-1.9v-3.61h-1.236l-2.28 3.61h-2.376l2.566-3.61c-.665-.096-1.141-.476-1.616-.951-.475-.475-.665-1.14-.665-1.806 0-.475.095-.95.38-1.33.19-.38.57-.76 1.045-1.045.476-.285.951-.38 1.521-.38h4.561v9.122zM198.197 6.76v4.657c0 1.045-.285 1.805-.76 2.375-.475.57-1.236.76-2.186.76v-1.615c.475 0 .76-.095.95-.38.19-.285.286-.665.286-1.045V5.239h6.272v9.218h-1.901V6.854h-2.661V6.76zm-5.607 5.987V6.759h-2.566v2.946c0 .855-.095 1.52-.19 1.9-.095.38-.285.76-.57 1.046h3.326v.095zm-4.371-3.041V5.143h6.272v7.603h.855v3.326h-1.805v-1.71h-5.037v1.71h-1.806v-3.326c.285 0 .57-.095.761-.285.19-.19.38-.475.475-.95.19-.476.285-1.046.285-1.806zm-18.816-.95h2.185c.38 0 .761-.095.951-.285.285-.19.38-.38.38-.76s-.095-.57-.38-.76c-.19-.191-.571-.191-1.046-.191h-2.185v1.996h.095zm0 3.991h2.375c.951 0 1.426-.475 1.426-1.33 0-.38-.095-.666-.38-.856a1.605 1.605 0 00-.951-.285h-2.375v2.471h-.095zm-1.806-7.603h4.466c.666 0 1.236.096 1.616.38.38.286.76.57.855.95.19.381.285.761.285 1.046 0 .57-.095.95-.285 1.236-.19.285-.475.475-.76.665.95.38 1.426 1.14 1.426 2.186 0 .38-.096.665-.191 1.045-.095.285-.285.57-.57.855-.19.19-.38.38-.57.475-.19.095-.475.19-.855.286-.38.095-.855.095-1.426.095h-3.896v-9.22h-.095zm-5.702 7.793c.285 0 .57-.095.855-.19.286-.095.571-.285.761-.475.285-.285.475-.57.57-1.046.19-.38.19-.95.19-1.52 0-.57-.095-1.14-.19-1.52-.19-.38-.38-.76-.57-1.046-.285-.285-.475-.38-.761-.475-.285-.095-.57-.19-.855-.19-.285 0-.57.095-.855.19-.285.095-.57.285-.76.475-.286.285-.476.57-.571.95-.19.38-.19.95-.19 1.521 0 .57.095 1.14.19 1.52.19.38.381.76.571.95.285.286.475.38.76.476.285.38.57.38.855.38zm0-8.078c.38 0 .855.095 1.331.19.475.095.95.38 1.425.666.475.38.855.855 1.14 1.52.286.665.476 1.52.476 2.471 0 1.045-.19 1.806-.476 2.47a3.78 3.78 0 01-1.14 1.521c-.475.38-.95.57-1.425.665-.476.096-.856.19-1.331.19-.38 0-.855-.094-1.33-.19-.475-.095-.951-.38-1.426-.665a3.78 3.78 0 01-1.14-1.52c-.285-.665-.475-1.52-.475-2.471 0-1.045.19-1.806.475-2.47a3.78 3.78 0 011.14-1.521c.475-.38.951-.57 1.426-.666.57-.095.95-.19 1.33-.19zm-11.023 5.322v4.087h-1.901v-9.22h1.901v3.517h3.516V5.048h1.9v9.219h-1.9V10.18h-3.516zm-7.413 2.756c.285 0 .57-.095.855-.19.285-.095.571-.285.761-.475.285-.285.475-.57.57-1.046.19-.38.19-.95.19-1.52 0-.57-.095-1.14-.19-1.52-.19-.38-.38-.76-.57-1.046-.286-.285-.476-.38-.761-.475-.285-.095-.57-.19-.855-.19-.285 0-.57.095-.855.19-.285.095-.57.285-.76.475-.286.285-.476.57-.571.95-.19.38-.19.95-.19 1.521 0 .57.095 1.14.19 1.52.19.38.38.76.571.95.285.286.475.38.76.476.285.38.57.38.855.38zm0-8.078c.38 0 .855.095 1.33.19.476.095.951.38 1.426.666.475.38.855.855 1.14 1.52.285.665.476 1.52.476 2.471 0 1.045-.191 1.806-.476 2.47a3.78 3.78 0 01-1.14 1.521c-.475.38-.95.57-1.426.665-.475.096-.855.19-1.33.19-.38 0-.855-.094-1.33-.19-.476-.095-.951-.38-1.426-.665a3.78 3.78 0 01-1.14-1.52c-.285-.665-.475-1.52-.475-2.471 0-1.045.19-1.806.475-2.47a3.78 3.78 0 011.14-1.521c.475-.38.95-.57 1.426-.666.475-.095.95-.19 1.33-.19zM133.386 6.76v4.657c0 1.045-.285 1.805-.761 2.375-.475.57-1.235.76-2.185.76v-1.615c.475 0 .76-.095.95-.38.19-.285.285-.665.285-1.045V5.239h6.272v9.218h-1.9V6.854h-2.661V6.76zm-8.553 4.086h2.281l-1.141-3.61-1.14 3.61zm-1.14 3.516h-1.996l3.231-9.218h2.186l3.231 9.218h-2.091l-.57-1.9h-3.326l-.665 1.9zm-3.992-6.177c-.095-.475-.285-.855-.57-1.14-.285-.285-.76-.475-1.425-.475-.571 0-1.141.285-1.521.76-.475.475-.665 1.33-.665 2.471 0 .57.095 1.14.19 1.616.19.475.38.855.76 1.14.38.285.76.38 1.236.38.38 0 .665-.095.95-.19.285-.095.475-.285.665-.57.19-.285.285-.57.38-.95h1.901c-.095.665-.38 1.235-.665 1.805-.38.475-.761.95-1.331 1.236-.57.285-1.235.38-1.9.38-.856 0-1.521-.19-2.186-.57a3.357 3.357 0 01-1.426-1.616c-.38-.76-.57-1.616-.57-2.661s.19-1.9.57-2.66c.381-.761.856-1.236 1.521-1.616.665-.38 1.33-.57 2.186-.57.665 0 1.235.094 1.71.285.475.19.855.475 1.236.76.285.285.57.665.76 1.045.19.38.285.76.285 1.14h-2.091zM96.229 9.99v2.661h1.52c.57 0 1.045-.095 1.235-.285.285-.19.38-.475.38-.95 0-.38-.095-.666-.285-1.046-.19-.285-.57-.475-1.14-.475h-1.71v.095zm0-1.52h2.185c.76 0 1.33.19 1.806.475.475.38.76.76.855 1.235.19.475.285.855.285 1.236 0 .57-.095 1.14-.38 1.52-.19.475-.57.76-.95 1.045-.38.286-.95.38-1.52.38h-4.182V5.143h1.9V8.47zm-5.512 5.891h-1.9V6.76H86.06V5.143h7.413V6.76h-2.756v7.602zM85.395 6.76h-4.847v1.9h4.467v1.616h-4.467v2.376h5.037v1.616h-6.937v-9.22H85.3V6.76h.095zm-9.788 1.425c-.095-.475-.285-.855-.57-1.14-.286-.285-.76-.475-1.426-.475-.57 0-1.14.285-1.52.76-.476.475-.666 1.33-.666 2.471 0 .57.095 1.14.19 1.616.19.475.38.855.76 1.14.38.285.76.38 1.236.38.38 0 .665-.095.95-.19.285-.095.475-.285.666-.57.19-.285.285-.57.38-.95h1.9c-.095.665-.38 1.235-.665 1.805-.38.475-.76.95-1.33 1.236-.57.285-1.236.38-1.9.38-.856 0-1.521-.19-2.187-.57A3.355 3.355 0 0170 12.46c-.38-.76-.57-1.616-.57-2.661s.19-1.9.57-2.66c.38-.761.855-1.236 1.52-1.616.666-.38 1.33-.57 2.186-.57.665 0 1.236.094 1.71.285.476.19.856.475 1.236.76.285.285.57.665.76 1.045.19.38.285.76.285 1.14h-2.09z" fill="#fff"/><path d="M368.968 10.845h2.281l-1.14-3.61-1.141 3.61zm-1.235 3.516h-1.996l3.231-9.218h2.186l3.231 9.218h-2.091l-.57-1.9h-3.326l-.665 1.9zm-3.421 0h-1.901V6.76h-2.756V5.143h7.413V6.76h-2.756v7.602zm-8.458-4.941c.57 0 .95-.19 1.14-.475.19-.285.285-.665.285-1.046 0-.475-.095-.76-.38-.95-.285-.19-.665-.285-1.235-.285h-1.521v2.66h1.711v.096zm-1.711 4.941h-1.9V5.143h4.181c.57 0 1.046.096 1.521.38.38.286.76.57.95 1.046.19.475.38.95.38 1.52 0 .38-.095.76-.285 1.236-.19.475-.475.855-.855 1.235-.475.38-1.046.475-1.806.475h-2.186v3.326zm-7.602-1.425c.285 0 .57-.095.855-.19.285-.095.57-.285.76-.475.286-.285.476-.57.571-1.046.19-.38.19-.95.19-1.52 0-.57-.095-1.14-.19-1.52-.19-.38-.381-.76-.571-1.046-.285-.285-.475-.38-.76-.475-.285-.095-.57-.19-.855-.19-.285 0-.57.095-.855.19a2.073 2.073 0 00-.761.475c-.285.285-.475.57-.57.95-.19.38-.19.95-.19 1.521 0 .57.095 1.14.19 1.52.19.38.38.76.57.95.285.286.476.38.761.476.285.38.57.38.855.38zm0-8.078c.38 0 .855.095 1.33.19.475.095.951.38 1.426.666.475.38.855.855 1.14 1.52.285.665.475 1.52.475 2.471 0 1.045-.19 1.806-.475 2.47a3.78 3.78 0 01-1.14 1.521c-.475.38-.951.57-1.426.665-.475.096-.855.19-1.33.19-.38 0-.855-.094-1.331-.19-.475-.095-.95-.38-1.425-.665a3.78 3.78 0 01-1.14-1.52c-.285-.665-.476-1.52-.476-2.471 0-1.045.191-1.806.476-2.47a3.78 3.78 0 011.14-1.521c.475-.38.95-.57 1.425-.666.476-.095.951-.19 1.331-.19zM335.517 6.76v7.602h-1.9V5.143h7.317v9.218h-1.901V6.76h-3.516zm-4.941 1.425c-.095-.475-.285-.855-.571-1.14-.285-.285-.76-.475-1.425-.475-.57 0-1.14.285-1.52.76-.476.475-.666 1.33-.666 2.471 0 .57.095 1.14.19 1.616.19.475.38.855.761 1.14.38.285.76.38 1.235.38.38 0 .665-.095.95-.19.285-.095.475-.285.666-.57.19-.285.285-.57.38-.95h1.9c-.095.665-.38 1.235-.665 1.805-.38.475-.76.95-1.33 1.236-.571.285-1.236.38-1.901.38-.855 0-1.52-.19-2.186-.57a3.355 3.355 0 01-1.425-1.616c-.38-.76-.57-1.616-.57-2.661s.19-1.9.57-2.66c.38-.761.855-1.236 1.52-1.616.666-.38 1.331-.57 2.186-.57.665 0 1.235.094 1.711.285.475.19.855.475 1.235.76.285.285.57.665.76 1.045.19.38.285.76.285 1.14h-2.09zm-24.328 3.327l3.611-6.368h1.996v9.218h-1.806V7.804l-3.706 6.557h-1.901V5.143h1.806v6.368zm-16.631-2.376V6.664h-2.376c-.285 0-.57.095-.76.19-.19.095-.38.285-.475.475-.095.19-.095.38-.095.57 0 .38.095.76.38.95.285.19.57.38 1.14.38h2.186v-.094zm1.901 5.226h-1.901v-3.61h-1.235l-2.281 3.61h-2.376l2.566-3.61c-.665-.096-1.14-.476-1.615-.951-.476-.475-.666-1.14-.666-1.806 0-.475.095-.95.38-1.33.191-.38.571-.76 1.046-1.045.475-.285.95-.38 1.52-.38h4.562v9.122zm-12.829-4.37v2.66h1.52c.57 0 1.045-.095 1.235-.285.286-.19.381-.475.381-.95 0-.38-.095-.666-.285-1.046-.191-.285-.571-.475-1.141-.475h-1.71v.095zm0-1.521h2.185c.761 0 1.331.19 1.806.475.475.38.76.76.855 1.235.19.475.285.855.285 1.236 0 .57-.095 1.14-.38 1.52-.19.475-.57.76-.95 1.045-.38.286-.95.38-1.521.38h-4.181V5.143h1.901V8.47zm-9.028.285h2.185c.38 0 .761-.095.951-.285.285-.19.38-.38.38-.76s-.095-.57-.38-.76c-.19-.191-.571-.191-1.046-.191h-2.185v1.996h.095zm0 3.991h2.375c.951 0 1.426-.475 1.426-1.33 0-.38-.095-.666-.38-.856a1.605 1.605 0 00-.951-.285h-2.375v2.471h-.095zm-1.806-7.603h4.466c.666 0 1.236.096 1.616.38.38.286.76.57.855.95.19.381.285.761.285 1.046 0 .57-.095.95-.285 1.236-.19.285-.475.475-.76.665.95.38 1.426 1.14 1.426 2.186 0 .38-.096.665-.191 1.045-.095.285-.285.57-.57.855-.19.19-.38.38-.57.475-.19.095-.475.19-.855.286-.38.095-.855.095-1.426.095h-3.896v-9.22h-.095zm-5.607 7.793c.285 0 .57-.095.855-.19.286-.095.571-.285.761-.475.285-.285.475-.57.57-1.046.19-.38.19-.95.19-1.52 0-.57-.095-1.14-.19-1.52-.19-.38-.38-.76-.57-1.046-.285-.285-.475-.38-.761-.475-.285-.095-.57-.19-.855-.19-.285 0-.57.095-.855.19-.285.095-.57.285-.76.475-.285.285-.476.57-.571.95-.19.38-.19.95-.19 1.521 0 .57.095 1.14.19 1.52.191.38.381.76.571.95.285.286.475.38.76.476.285.38.57.38.855.38zm0-8.078c.38 0 .855.095 1.331.19.475.095.95.38 1.425.666.475.38.855.855 1.14 1.52.286.665.476 1.52.476 2.471 0 1.045-.19 1.806-.476 2.47a3.78 3.78 0 01-1.14 1.521c-.475.38-.95.57-1.425.665-.476.096-.856.19-1.331.19-.38 0-.855-.094-1.33-.19-.475-.095-.951-.38-1.426-.665a3.78 3.78 0 01-1.14-1.52c-.285-.665-.475-1.52-.475-2.471 0-1.045.19-1.806.475-2.47a3.78 3.78 0 011.14-1.521c.475-.38.951-.57 1.426-.666.475-.095.95-.19 1.33-.19zm-8.553 4.562c.571 0 .951-.19 1.141-.475.19-.285.285-.665.285-1.046 0-.475-.095-.76-.38-.95-.285-.19-.666-.285-1.236-.285h-1.52v2.66h1.71v.096zm-1.71 4.941h-1.901V5.143h4.182c.57 0 1.045.096 1.52.38.38.286.76.57.95 1.046.19.475.38.95.38 1.52 0 .38-.095.76-.285 1.236-.19.475-.475.855-.855 1.235-.475.38-1.045.475-1.805.475h-2.186v3.326zm-7.603-1.425c.285 0 .57-.095.856-.19.285-.095.57-.285.76-.475.285-.285.475-.57.57-1.046.19-.38.19-.95.19-1.52 0-.57-.095-1.14-.19-1.52-.19-.38-.38-.76-.57-1.046-.285-.285-.475-.38-.76-.475-.286-.095-.571-.19-.856-.19-.285 0-.57.095-.855.19-.285.095-.57.285-.76.475-.285.285-.475.57-.57.95-.191.38-.19.95-.19 1.521 0 .57.095 1.14.19 1.52.19.38.38.76.57.95.285.286.475.38.76.476.285.38.57.38.855.38zm0-8.078c.38 0 .856.095 1.331.19s.95.38 1.425.666c.475.38.855.855 1.141 1.52.285.665.475 1.52.475 2.471 0 1.045-.19 1.806-.475 2.47a3.79 3.79 0 01-1.141 1.521c-.475.38-.95.57-1.425.665-.475.096-.856.19-1.331.19-.38 0-.855-.094-1.33-.19-.475-.095-.95-.38-1.426-.665a3.78 3.78 0 01-1.14-1.52c-.285-.665-.475-1.52-.475-2.471 0-1.045.19-1.806.475-2.47a3.78 3.78 0 011.14-1.521c.476-.38.951-.57 1.426-.666.57-.095.95-.19 1.33-.19zm-7.412 7.888V6.759h-2.566v2.946c0 .855-.095 1.52-.19 1.9-.095.38-.285.76-.57 1.046h3.326v.095zm-4.372-3.041V5.143h6.272v7.603h.856v3.326h-1.806v-1.71h-5.037v1.71h-1.805v-3.326c.285 0 .57-.095.76-.285.19-.19.38-.475.475-.95.19-.476.285-1.046.285-1.806zm-3.136-.285c.285 0 .571.19.951.285.285.19.57.475.76.76.19.285.285.665.285 1.14 0 .476-.095.95-.38 1.426-.285.475-.665.76-1.14 1.045-.571.285-1.236.38-2.091.38-.76 0-1.426-.095-1.996-.284-.57-.19-.95-.476-1.235-.76a2.532 2.532 0 01-.57-.951c-.095-.38-.19-.665-.19-1.045h1.805c0 .19.095.475.19.665.095.19.285.38.665.57.285.19.666.285 1.236.285.475 0 .855-.095 1.235-.38.38-.285.475-.57.475-.95 0-.286-.095-.57-.285-.76-.19-.19-.38-.38-.665-.476-.285-.095-.57-.19-.855-.19h-1.426V8.66h1.426c.475 0 .855-.095 1.14-.285.285-.19.475-.476.475-.856 0-.19-.095-.475-.19-.57-.095-.19-.38-.285-.57-.38-.285-.095-.57-.095-.855-.095-.475 0-.856.095-1.141.285-.285.19-.475.38-.475.57-.095.19-.095.38-.095.57h-1.805c0-.475.095-.855.38-1.33.19-.475.57-.855 1.14-1.14.57-.286 1.236-.476 2.091-.476.855 0 1.615.19 2.09.476.571.285.856.665 1.141 1.045.19.38.285.855.285 1.235 0 .57-.19.95-.475 1.236-.38.19-.855.38-1.331.475zm-19.861-.285V6.664h-2.376c-.285 0-.57.095-.76.19-.19.095-.38.285-.475.475-.095.19-.095.38-.095.57 0 .38.095.76.38.95.285.19.57.38 1.14.38h2.186v-.094zm1.9 5.226h-1.9v-3.61h-1.236l-2.28 3.61h-2.376l2.566-3.61c-.665-.096-1.141-.476-1.616-.951-.475-.475-.665-1.14-.665-1.806 0-.475.095-.95.38-1.33.19-.38.57-.76 1.045-1.045.476-.285.951-.38 1.521-.38h4.561v9.122zM198.197 6.76v4.657c0 1.045-.285 1.805-.76 2.375-.475.57-1.236.76-2.186.76v-1.615c.475 0 .76-.095.95-.38.19-.285.286-.665.286-1.045V5.239h6.272v9.218h-1.901V6.854h-2.661V6.76zm-5.607 5.987V6.759h-2.566v2.946c0 .855-.095 1.52-.19 1.9-.095.38-.285.76-.57 1.046h3.326v.095zm-4.371-3.041V5.143h6.272v7.603h.855v3.326h-1.805v-1.71h-5.037v1.71h-1.806v-3.326c.285 0 .57-.095.761-.285.19-.19.38-.475.475-.95.19-.476.285-1.046.285-1.806zm-18.816-.95h2.185c.38 0 .761-.095.951-.285.285-.19.38-.38.38-.76s-.095-.57-.38-.76c-.19-.191-.571-.191-1.046-.191h-2.185v1.996h.095zm0 3.991h2.375c.951 0 1.426-.475 1.426-1.33 0-.38-.095-.666-.38-.856a1.605 1.605 0 00-.951-.285h-2.375v2.471h-.095zm-1.806-7.603h4.466c.666 0 1.236.096 1.616.38.38.286.76.57.855.95.19.381.285.761.285 1.046 0 .57-.095.95-.285 1.236-.19.285-.475.475-.76.665.95.38 1.426 1.14 1.426 2.186 0 .38-.096.665-.191 1.045-.095.285-.285.57-.57.855-.19.19-.38.38-.57.475-.19.095-.475.19-.855.286-.38.095-.855.095-1.426.095h-3.896v-9.22h-.095zm-5.702 7.793c.285 0 .57-.095.855-.19.286-.095.571-.285.761-.475.285-.285.475-.57.57-1.046.19-.38.19-.95.19-1.52 0-.57-.095-1.14-.19-1.52-.19-.38-.38-.76-.57-1.046-.285-.285-.475-.38-.761-.475-.285-.095-.57-.19-.855-.19-.285 0-.57.095-.855.19-.285.095-.57.285-.76.475-.286.285-.476.57-.571.95-.19.38-.19.95-.19 1.521 0 .57.095 1.14.19 1.52.19.38.381.76.571.95.285.286.475.38.76.476.285.38.57.38.855.38zm0-8.078c.38 0 .855.095 1.331.19.475.095.95.38 1.425.666.475.38.855.855 1.14 1.52.286.665.476 1.52.476 2.471 0 1.045-.19 1.806-.476 2.47a3.78 3.78 0 01-1.14 1.521c-.475.38-.95.57-1.425.665-.476.096-.856.19-1.331.19-.38 0-.855-.094-1.33-.19-.475-.095-.951-.38-1.426-.665a3.78 3.78 0 01-1.14-1.52c-.285-.665-.475-1.52-.475-2.471 0-1.045.19-1.806.475-2.47a3.78 3.78 0 011.14-1.521c.475-.38.951-.57 1.426-.666.57-.095.95-.19 1.33-.19zm-11.023 5.322v4.087h-1.901v-9.22h1.901v3.517h3.516V5.048h1.9v9.219h-1.9V10.18h-3.516zm-7.413 2.756c.285 0 .57-.095.855-.19.285-.095.571-.285.761-.475.285-.285.475-.57.57-1.046.19-.38.19-.95.19-1.52 0-.57-.095-1.14-.19-1.52-.19-.38-.38-.76-.57-1.046-.286-.285-.476-.38-.761-.475-.285-.095-.57-.19-.855-.19-.285 0-.57.095-.855.19-.285.095-.57.285-.76.475-.286.285-.476.57-.571.95-.19.38-.19.95-.19 1.521 0 .57.095 1.14.19 1.52.19.38.38.76.571.95.285.286.475.38.76.476.285.38.57.38.855.38zm0-8.078c.38 0 .855.095 1.33.19.476.095.951.38 1.426.666.475.38.855.855 1.14 1.52.285.665.476 1.52.476 2.471 0 1.045-.191 1.806-.476 2.47a3.78 3.78 0 01-1.14 1.521c-.475.38-.95.57-1.426.665-.475.096-.855.19-1.33.19-.38 0-.855-.094-1.33-.19-.476-.095-.951-.38-1.426-.665a3.78 3.78 0 01-1.14-1.52c-.285-.665-.475-1.52-.475-2.471 0-1.045.19-1.806.475-2.47a3.78 3.78 0 011.14-1.521c.475-.38.95-.57 1.426-.666.475-.095.95-.19 1.33-.19zM133.386 6.76v4.657c0 1.045-.285 1.805-.761 2.375-.475.57-1.235.76-2.185.76v-1.615c.475 0 .76-.095.95-.38.19-.285.285-.665.285-1.045V5.239h6.272v9.218h-1.9V6.854h-2.661V6.76zm-8.553 4.086h2.281l-1.141-3.61-1.14 3.61zm-1.14 3.516h-1.996l3.231-9.218h2.186l3.231 9.218h-2.091l-.57-1.9h-3.326l-.665 1.9zm-3.992-6.177c-.095-.475-.285-.855-.57-1.14-.285-.285-.76-.475-1.425-.475-.571 0-1.141.285-1.521.76-.475.475-.665 1.33-.665 2.471 0 .57.095 1.14.19 1.616.19.475.38.855.76 1.14.38.285.76.38 1.236.38.38 0 .665-.095.95-.19.285-.095.475-.285.665-.57.19-.285.285-.57.38-.95h1.901c-.095.665-.38 1.235-.665 1.805-.38.475-.761.95-1.331 1.236-.57.285-1.235.38-1.9.38-.856 0-1.521-.19-2.186-.57a3.357 3.357 0 01-1.426-1.616c-.38-.76-.57-1.616-.57-2.661s.19-1.9.57-2.66c.381-.761.856-1.236 1.521-1.616.665-.38 1.33-.57 2.186-.57.665 0 1.235.094 1.71.285.475.19.855.475 1.236.76.285.285.57.665.76 1.045.19.38.285.76.285 1.14h-2.091zM96.229 9.99v2.661h1.52c.57 0 1.045-.095 1.235-.285.285-.19.38-.475.38-.95 0-.38-.095-.666-.285-1.046-.19-.285-.57-.475-1.14-.475h-1.71v.095zm0-1.52h2.185c.76 0 1.33.19 1.806.475.475.38.76.76.855 1.235.19.475.285.855.285 1.236 0 .57-.095 1.14-.38 1.52-.19.475-.57.76-.95 1.045-.38.286-.95.38-1.52.38h-4.182V5.143h1.9V8.47zm-5.512 5.891h-1.9V6.76H86.06V5.143h7.413V6.76h-2.756v7.602zM85.395 6.76h-4.847v1.9h4.467v1.616h-4.467v2.376h5.037v1.616h-6.937v-9.22H85.3V6.76h.095zm-9.788 1.425c-.095-.475-.285-.855-.57-1.14-.286-.285-.76-.475-1.426-.475-.57 0-1.14.285-1.52.76-.476.475-.666 1.33-.666 2.471 0 .57.095 1.14.19 1.616.19.475.38.855.76 1.14.38.285.76.38 1.236.38.38 0 .665-.095.95-.19.285-.095.475-.285.666-.57.19-.285.285-.57.38-.95h1.9c-.095.665-.38 1.235-.665 1.805-.38.475-.76.95-1.33 1.236-.57.285-1.236.38-1.9.38-.856 0-1.521-.19-2.187-.57A3.355 3.355 0 0170 12.46c-.38-.76-.57-1.616-.57-2.661s.19-1.9.57-2.66c.38-.761.855-1.236 1.52-1.616.666-.38 1.33-.57 2.186-.57.665 0 1.236.094 1.71.285.476.19.856.475 1.236.76.285.285.57.665.76 1.045.19.38.285.76.285 1.14h-2.09z" fill="#970E0B"/><path d="M370.582 73.376h2.28l-1.14-3.612-1.14 3.612zm-1.046 3.516h-1.995l3.136-9.218h2.185l3.136 9.218h-1.995l-.57-1.9h-3.327l-.57 1.9zm-7.507 0h-1.901v-9.218h1.901v3.706l3.421-3.706h2.376l-3.611 3.801 3.801 5.417h-2.376l-2.756-3.992-.855.95v3.042zm-9.313-2.851l3.516-6.367h1.996v9.218h-1.711v-6.557l-3.611 6.557h-1.901v-9.218h1.711v6.367zm-5.417 2.85h-1.901V69.29h-2.661v-1.615h7.223v1.615h-2.661v7.603zm-9.978 0h-1.901v-9.217h1.901v3.706l3.421-3.706h2.376l-3.612 3.801 3.802 5.417h-2.376l-2.756-3.992-.855.95v3.042zm-8.553-3.515h2.281l-1.141-3.612-1.14 3.612zm-1.141 3.516h-1.995l3.136-9.218h2.186l3.136 9.218h-1.996l-.57-1.9h-3.231l-.666 1.9zm-7.412-7.603v4.657c0 1.045-.285 1.805-.76 2.376-.475.57-1.236.76-2.186.76v-1.71c.475 0 .76-.096.95-.38.19-.286.285-.666.285-1.046v-6.272h6.082v9.218h-1.9v-7.603h-2.471zm-9.408 4.752l3.516-6.367h1.996v9.218h-1.711v-6.557l-3.611 6.557h-1.901v-9.218h1.711v6.367zm-8.933.38v-4.276c-.57 0-1.14.19-1.52.475-.476.285-.666.855-.666 1.615s.19 1.33.666 1.616c.38.38.855.57 1.52.57zm1.806-4.276v4.276c.38 0 .665-.095 1.045-.19.38-.095.57-.38.855-.665.19-.285.38-.76.38-1.236 0-.57-.095-.95-.38-1.235-.19-.285-.475-.57-.855-.665-.285-.285-.665-.285-1.045-.285zm0-1.52c.57 0 1.235.094 1.805.38.57.19 1.141.57 1.521 1.14.38.57.665 1.235.665 2.09 0 .665-.095 1.236-.38 1.71-.285.476-.57.856-.951 1.141a3.33 3.33 0 01-1.33.57c-.475.095-.95.19-1.33.19v.95h-1.901v-.95c-.475 0-.855-.095-1.33-.19a3.328 3.328 0 01-1.331-.57 4.05 4.05 0 01-1.045-1.14c-.285-.475-.38-1.046-.38-1.71 0-.666.095-1.236.38-1.711.285-.476.57-.856 1.045-1.14a3.33 3.33 0 011.331-.57c.475-.096.95-.19 1.33-.19v-.951h1.901v.95zm-11.214 6.841c.285 0 .57-.095.855-.19.285-.095.57-.285.76-.475.286-.285.476-.57.571-1.045.19-.38.19-.95.19-1.52a6.62 6.62 0 00-.19-1.521c-.19-.38-.381-.76-.571-1.046-.285-.285-.475-.38-.76-.475-.285-.095-.57-.19-.855-.19-.285 0-.57.095-.855.19a2.073 2.073 0 00-.761.475c-.285.285-.475.57-.57.95-.19.38-.19.951-.19 1.521s.095 1.14.19 1.52c.19.38.38.761.57.951.285.285.476.38.761.475.285.285.57.38.855.38zm0-8.077c.38 0 .855.095 1.235.19.475.095.951.38 1.331.665.475.38.855.855 1.14 1.52.285.666.475 1.521.475 2.471 0 1.046-.19 1.806-.475 2.471a3.78 3.78 0 01-1.14 1.52c-.475.38-.951.57-1.426.666-.475.095-.855.19-1.235.19-.38 0-.76-.095-1.236-.19-.475-.095-.95-.38-1.425-.665a3.78 3.78 0 01-1.14-1.52c-.285-.666-.476-1.521-.476-2.472 0-1.045.191-1.805.476-2.47a3.78 3.78 0 011.14-1.521c.475-.38.95-.57 1.425-.665.476-.095.951-.19 1.331-.19zm-8.553 4.561c.57 0 .95-.19 1.14-.475.191-.285.286-.665.286-1.045 0-.476-.095-.76-.381-.95-.285-.19-.665-.286-1.235-.286h-1.425v2.661h1.615v.095zm-1.71 4.942h-1.901v-9.218h4.086c.57 0 1.046.095 1.426.38.38.285.76.57.95 1.045.19.475.285.95.285 1.52 0 .38-.095.761-.285 1.236-.19.475-.475.855-.855 1.236-.38.38-.951.475-1.711.475h-2.091v3.326h.096zm-9.028-7.603v7.603h-1.901v-9.218h7.127v9.218h-1.9v-7.603h-3.326zm-24.043 2.376v-2.47h-2.281c-.285 0-.57.094-.76.19-.19.094-.38.284-.476.474-.095.19-.095.38-.095.57 0 .38.095.76.381.951.285.19.57.38 1.045.38h2.186v-.095zm1.9 5.227h-1.805V73.28h-1.236l-2.28 3.61h-2.281l2.471-3.61c-.571-.095-1.141-.476-1.616-.95-.475-.476-.665-1.141-.665-1.806 0-.476.095-.95.38-1.33.19-.38.57-.761.95-1.046.38-.285.951-.38 1.426-.38h4.466v9.123h.19zm-14.349-2.851l3.516-6.367h1.995v9.218h-1.71v-6.557l-3.611 6.557h-1.901v-9.218h1.711v6.367zm-4.372 2.85h-6.272v-9.217h1.901v7.602h3.421v-7.602h1.9v7.602h.856v3.326h-1.806v-1.71zm-12.734-3.515h2.281l-1.141-3.612-1.14 3.612zm-1.14 3.516h-1.996l3.136-9.218h2.186l3.136 9.218h-1.996l-.57-1.9h-3.326l-.57 1.9zm-3.707 0h-1.9v-7.603h-2.661v-1.615h7.222v1.615h-2.661v7.603zm-11.023-2.851l3.516-6.367h1.996v9.218h-1.711v-6.557l-3.611 6.557h-1.901v-9.218h1.711v6.367zm-7.793-4.752v4.657c0 1.045-.285 1.805-.76 2.376-.475.57-1.236.76-2.186.76v-1.71c.475 0 .76-.096.95-.38.191-.286.286-.666.286-1.046v-6.272h6.082v9.218h-1.901v-7.603h-2.471zm-9.408 4.752l3.516-6.367h1.996v9.218h-1.711v-6.557l-3.611 6.557h-1.901v-9.218h1.711v6.367zm-8.743-1.236v2.471h2.376c.38 0 .76-.095.95-.285.285-.19.38-.475.38-.855s-.095-.665-.38-.95c-.285-.19-.57-.38-.95-.38h-2.376zm0-1.615h2.376c.57 0 1.14.095 1.615.285.476.19.856.57 1.141.95.285.38.38.95.38 1.52 0 .571-.095 1.046-.38 1.521-.285.38-.665.76-1.141.95-.475.19-1.045.286-1.615.286h-4.086v-9.218h6.652v1.615h-4.942v2.09zm-8.363 2.186h2.281l-1.14-3.612-1.141 3.612zm-1.14 3.516h-1.996l3.136-9.218h2.186l3.136 9.218h-1.995l-.571-1.9h-3.231l-.665 1.9zm-2.946-7.603h-4.752v1.9h4.372v1.617h-4.372v2.375h4.942v1.616h-6.747v-9.218h6.557v1.71zM154.1 71.95c.571 0 .951-.19 1.141-.475.19-.285.285-.665.285-1.045 0-.476-.095-.76-.38-.95-.285-.19-.666-.286-1.236-.286h-1.425v2.661h1.615v.095zm-1.71 4.942h-1.901v-9.218h4.087c.57 0 1.045.095 1.425.38.38.285.76.57.95 1.045.19.475.285.95.285 1.52 0 .38-.095.761-.285 1.236-.19.475-.475.855-.855 1.236-.38.38-.95.475-1.711.475h-2.09v3.326h.095zm-22.142-7.603h-4.752v1.9h4.371v1.617h-4.371v2.375h4.942v1.616h-6.748v-9.218h6.558v1.71zm-13.78 4.752l3.516-6.367h1.996v9.218h-1.806v-6.557l-3.611 6.557h-1.901v-9.218h1.711v6.367h.095zm-8.838-1.33v4.086h-1.901v-9.218h1.901v3.516h3.421v-3.516h1.901v9.218h-1.901V72.71h-3.421zm-3.516-3.422h-4.752v1.9h4.372v1.617h-4.372v2.375h4.942v1.616h-6.747v-9.218h6.557v1.71zm-15.49 1.33v-2.945h1.9v2.946c0 .38.096.76.38.95.286.19.57.285.95.285.381 0 .666-.095 1.046-.19s.76-.285 1.046-.475v-3.516h1.9v9.218h-1.9v-4.087c-.856.476-1.806.76-2.661.76-.76 0-1.426-.19-1.9-.665-.476-.57-.761-1.33-.761-2.28zm-1.616-1.33h-4.751v1.9h4.371v1.617h-4.371v2.375h4.941v1.616h-6.747v-9.218h6.557v1.71zm-12.734 0v4.657c0 1.045-.285 1.805-.76 2.376-.475.57-1.236.76-2.186.76v-1.71c.475 0 .76-.096.95-.38.19-.286.285-.666.285-1.046v-6.272h6.082v9.218h-1.9v-7.603h-2.47z" fill="#fff"/><path d="M370.582 73.376h2.28l-1.14-3.612-1.14 3.612zm-1.046 3.516h-1.995l3.136-9.218h2.185l3.136 9.218h-1.995l-.57-1.9h-3.327l-.57 1.9zm-7.507 0h-1.901v-9.218h1.901v3.706l3.421-3.706h2.376l-3.611 3.801 3.801 5.417h-2.376l-2.756-3.992-.855.95v3.042zm-9.313-2.851l3.516-6.367h1.996v9.218h-1.711v-6.557l-3.611 6.557h-1.901v-9.218h1.711v6.367zm-5.417 2.85h-1.901V69.29h-2.661v-1.615h7.223v1.615h-2.661v7.603zm-9.978 0h-1.901v-9.217h1.901v3.706l3.421-3.706h2.376l-3.612 3.801 3.802 5.417h-2.376l-2.756-3.992-.855.95v3.042zm-8.553-3.515h2.281l-1.141-3.612-1.14 3.612zm-1.141 3.516h-1.995l3.136-9.218h2.186l3.136 9.218h-1.996l-.57-1.9h-3.231l-.666 1.9zm-7.412-7.603v4.657c0 1.045-.285 1.805-.76 2.376-.475.57-1.236.76-2.186.76v-1.71c.475 0 .76-.096.95-.38.19-.286.285-.666.285-1.046v-6.272h6.082v9.218h-1.9v-7.603h-2.471zm-9.408 4.752l3.516-6.367h1.996v9.218h-1.711v-6.557l-3.611 6.557h-1.901v-9.218h1.711v6.367zm-8.933.38v-4.276c-.57 0-1.14.19-1.52.475-.476.285-.666.855-.666 1.615s.19 1.33.666 1.616c.38.38.855.57 1.52.57zm1.806-4.276v4.276c.38 0 .665-.095 1.045-.19.38-.095.57-.38.855-.665.19-.285.38-.76.38-1.236 0-.57-.095-.95-.38-1.235-.19-.285-.475-.57-.855-.665-.285-.285-.665-.285-1.045-.285zm0-1.52c.57 0 1.235.094 1.805.38.57.19 1.141.57 1.521 1.14.38.57.665 1.235.665 2.09 0 .665-.095 1.236-.38 1.71-.285.476-.57.856-.951 1.141a3.33 3.33 0 01-1.33.57c-.475.095-.95.19-1.33.19v.95h-1.901v-.95c-.475 0-.855-.095-1.33-.19a3.328 3.328 0 01-1.331-.57 4.05 4.05 0 01-1.045-1.14c-.285-.475-.38-1.046-.38-1.71 0-.666.095-1.236.38-1.711.285-.476.57-.856 1.045-1.14a3.33 3.33 0 011.331-.57c.475-.096.95-.19 1.33-.19v-.951h1.901v.95zm-11.214 6.841c.285 0 .57-.095.855-.19.285-.095.57-.285.76-.475.286-.285.476-.57.571-1.045.19-.38.19-.95.19-1.52a6.62 6.62 0 00-.19-1.521c-.19-.38-.381-.76-.571-1.046-.285-.285-.475-.38-.76-.475-.285-.095-.57-.19-.855-.19-.285 0-.57.095-.855.19a2.073 2.073 0 00-.761.475c-.285.285-.475.57-.57.95-.19.38-.19.951-.19 1.521s.095 1.14.19 1.52c.19.38.38.761.57.951.285.285.476.38.761.475.285.285.57.38.855.38zm0-8.077c.38 0 .855.095 1.235.19.475.095.951.38 1.331.665.475.38.855.855 1.14 1.52.285.666.475 1.521.475 2.471 0 1.046-.19 1.806-.475 2.471a3.78 3.78 0 01-1.14 1.52c-.475.38-.951.57-1.426.666-.475.095-.855.19-1.235.19-.38 0-.76-.095-1.236-.19-.475-.095-.95-.38-1.425-.665a3.78 3.78 0 01-1.14-1.52c-.285-.666-.476-1.521-.476-2.472 0-1.045.191-1.805.476-2.47a3.78 3.78 0 011.14-1.521c.475-.38.95-.57 1.425-.665.476-.095.951-.19 1.331-.19zm-8.553 4.561c.57 0 .95-.19 1.14-.475.191-.285.286-.665.286-1.045 0-.476-.095-.76-.381-.95-.285-.19-.665-.286-1.235-.286h-1.425v2.661h1.615v.095zm-1.71 4.942h-1.901v-9.218h4.086c.57 0 1.046.095 1.426.38.38.285.76.57.95 1.045.19.475.285.95.285 1.52 0 .38-.095.761-.285 1.236-.19.475-.475.855-.855 1.236-.38.38-.951.475-1.711.475h-2.091v3.326h.096zm-9.028-7.603v7.603h-1.901v-9.218h7.127v9.218h-1.9v-7.603h-3.326zm-24.043 2.376v-2.47h-2.281c-.285 0-.57.094-.76.19-.19.094-.38.284-.476.474-.095.19-.095.38-.095.57 0 .38.095.76.381.951.285.19.57.38 1.045.38h2.186v-.095zm1.9 5.227h-1.805V73.28h-1.236l-2.28 3.61h-2.281l2.471-3.61c-.571-.095-1.141-.476-1.616-.95-.475-.476-.665-1.141-.665-1.806 0-.476.095-.95.38-1.33.19-.38.57-.761.95-1.046.38-.285.951-.38 1.426-.38h4.466v9.123h.19zm-14.349-2.851l3.516-6.367h1.995v9.218h-1.71v-6.557l-3.611 6.557h-1.901v-9.218h1.711v6.367zm-4.372 2.85h-6.272v-9.217h1.901v7.602h3.421v-7.602h1.9v7.602h.856v3.326h-1.806v-1.71zm-12.734-3.515h2.281l-1.141-3.612-1.14 3.612zm-1.14 3.516h-1.996l3.136-9.218h2.186l3.136 9.218h-1.996l-.57-1.9h-3.326l-.57 1.9zm-3.707 0h-1.9v-7.603h-2.661v-1.615h7.222v1.615h-2.661v7.603zm-11.023-2.851l3.516-6.367h1.996v9.218h-1.711v-6.557l-3.611 6.557h-1.901v-9.218h1.711v6.367zm-7.793-4.752v4.657c0 1.045-.285 1.805-.76 2.376-.475.57-1.236.76-2.186.76v-1.71c.475 0 .76-.096.95-.38.191-.286.286-.666.286-1.046v-6.272h6.082v9.218h-1.901v-7.603h-2.471zm-9.408 4.752l3.516-6.367h1.996v9.218h-1.711v-6.557l-3.611 6.557h-1.901v-9.218h1.711v6.367zm-8.743-1.236v2.471h2.376c.38 0 .76-.095.95-.285.285-.19.38-.475.38-.855s-.095-.665-.38-.95c-.285-.19-.57-.38-.95-.38h-2.376zm0-1.615h2.376c.57 0 1.14.095 1.615.285.476.19.856.57 1.141.95.285.38.38.95.38 1.52 0 .571-.095 1.046-.38 1.521-.285.38-.665.76-1.141.95-.475.19-1.045.286-1.615.286h-4.086v-9.218h6.652v1.615h-4.942v2.09zm-8.363 2.186h2.281l-1.14-3.612-1.141 3.612zm-1.14 3.516h-1.996l3.136-9.218h2.186l3.136 9.218h-1.995l-.571-1.9h-3.231l-.665 1.9zm-2.946-7.603h-4.752v1.9h4.372v1.617h-4.372v2.375h4.942v1.616h-6.747v-9.218h6.557v1.71zM154.1 71.95c.571 0 .951-.19 1.141-.475.19-.285.285-.665.285-1.045 0-.476-.095-.76-.38-.95-.285-.19-.666-.286-1.236-.286h-1.425v2.661h1.615v.095zm-1.71 4.942h-1.901v-9.218h4.087c.57 0 1.045.095 1.425.38.38.285.76.57.95 1.045.19.475.285.95.285 1.52 0 .38-.095.761-.285 1.236-.19.475-.475.855-.855 1.236-.38.38-.95.475-1.711.475h-2.09v3.326h.095zm-22.142-7.603h-4.752v1.9h4.371v1.617h-4.371v2.375h4.942v1.616h-6.748v-9.218h6.558v1.71zm-13.78 4.752l3.516-6.367h1.996v9.218h-1.806v-6.557l-3.611 6.557h-1.901v-9.218h1.711v6.367h.095zm-8.838-1.33v4.086h-1.901v-9.218h1.901v3.516h3.421v-3.516h1.901v9.218h-1.901V72.71h-3.421zm-3.516-3.422h-4.752v1.9h4.372v1.617h-4.372v2.375h4.942v1.616h-6.747v-9.218h6.557v1.71zm-15.49 1.33v-2.945h1.9v2.946c0 .38.096.76.38.95.286.19.57.285.95.285.381 0 .666-.095 1.046-.19s.76-.285 1.046-.475v-3.516h1.9v9.218h-1.9v-4.087c-.856.476-1.806.76-2.661.76-.76 0-1.426-.19-1.9-.665-.476-.57-.761-1.33-.761-2.28zm-1.616-1.33h-4.751v1.9h4.371v1.617h-4.371v2.375h4.941v1.616h-6.747v-9.218h6.557v1.71zm-12.734 0v4.657c0 1.045-.285 1.805-.76 2.376-.475.57-1.236.76-2.186.76v-1.71c.475 0 .76-.096.95-.38.19-.286.285-.666.285-1.046v-6.272h6.082v9.218h-1.9v-7.603h-2.47z" fill="#970E0B"/><path fill-rule="evenodd" clip-rule="evenodd" d="M63.535 72.048l2.186-2.186 2.09 2.186-2.09 2.28-2.186-2.28z" fill="#fff"/><path fill-rule="evenodd" clip-rule="evenodd" d="M63.535 72.048l2.186-2.186 2.09 2.186-2.09 2.28-2.186-2.28z" fill="#970E0B"/><path fill-rule="evenodd" clip-rule="evenodd" d="M142.219 72.048l2.09-2.186 2.186 2.186-2.186 2.28-2.09-2.28z" fill="#fff"/><path fill-rule="evenodd" clip-rule="evenodd" d="M142.219 72.048l2.09-2.186 2.186 2.186-2.186 2.28-2.09-2.28z" fill="#970E0B"/><path fill-rule="evenodd" clip-rule="evenodd" d="M262.621 72.048l2.091-2.186 2.186 2.186-2.186 2.28-2.091-2.28z" fill="#fff"/><path fill-rule="evenodd" clip-rule="evenodd" d="M262.621 72.048l2.091-2.186 2.186 2.186-2.186 2.28-2.091-2.28z" fill="#970E0B"/></svg>