<svg width="24" height="20" fill="none" xmlns="http://www.w3.org/2000/svg"><path fill-rule="evenodd" clip-rule="evenodd" d="M7.05 2.05a7 7 0 119.9 9.9 7 7 0 01-9.9-9.9zM12 2a5 5 0 100 10 5 5 0 000-10z" fill="#fff"/><path fill-rule="evenodd" clip-rule="evenodd" d="M7.05 2.05a7 7 0 119.9 9.9 7 7 0 01-9.9-9.9zM12 2a5 5 0 100 10 5 5 0 000-10z" fill="#970E0B"/><path fill-rule="evenodd" clip-rule="evenodd" d="M.175 18.445C3.52 13.639 8.366 12 12 12c3.633 0 8.481 1.639 11.824 6.445.32.46.19 1.08-.289 1.387a1.072 1.072 0 01-1.447-.278C19.17 15.361 15.008 14 12 14c-3.008 0-7.17 1.36-10.087 5.554-.32.46-.968.584-1.447.278a.975.975 0 01-.29-1.387z" fill="#fff"/><path fill-rule="evenodd" clip-rule="evenodd" d="M.175 18.445C3.52 13.639 8.366 12 12 12c3.633 0 8.481 1.639 11.824 6.445.32.46.19 1.08-.289 1.387a1.072 1.072 0 01-1.447-.278C19.17 15.361 15.008 14 12 14c-3.008 0-7.17 1.36-10.087 5.554-.32.46-.968.584-1.447.278a.975.975 0 01-.29-1.387z" fill="#970E0B"/></svg>