<svg width="76" height="77" fill="none" xmlns="http://www.w3.org/2000/svg"><path d="M41.493.582L0 41.996 34.21 76.14l41.493-41.414L41.493.582z" fill="#fff"/><path d="M41.493.582L0 41.996 34.21 76.14l41.493-41.414L41.493.582z" fill="#970E0B"/><path d="M63.05 26.127l-.92.918.277.275.92-.918-.276-.275zm-1.38 2.111l.553-.55 1.288 1.285c.091.092.091.092.091.183l.092.092v-.183l-.367-2.295.92-.918 1.839 1.836-.644.459-1.288-1.286s0-.091-.092-.183l-.092-.092v.184l.368 2.295-.92.918-1.747-1.745zm-3.034 3.122l.551-.551 1.288 1.285c0 .092.092.092.092.184l.092.091v-.183l-.368-2.295.92-.918 1.84 1.836-.552.55-1.38-1.376s0-.092-.092-.184l-.092-.092v.184l.368 2.295-.92.918-1.747-1.744zm-2.852 2.754l.552-.551.644.642.276-.275v-1.285l.828-.826v1.744l2.023-.092-.828.826h-1.471l-.276.276.736.734-.552.55-1.932-1.743zm-1.563 1.56c.552-.55.92-.826 1.104-.826.183 0 .46.092.735.459l-.552.55c-.092-.091-.184-.183-.275-.091-.092 0-.276.184-.552.459s-.46.459-.46.55c0 .093.092.276.368.46.184.184.368.367.46.367.092 0 .276-.183.551-.459.276-.275.368-.459.46-.55 0-.093 0-.184-.092-.276l.552-.551c.368.367.46.55.46.734 0 .184-.276.551-.828 1.102-.552.55-.92.826-1.103.826-.184 0-.552-.183-1.012-.642-.46-.46-.644-.735-.644-.918 0-.276.276-.643.828-1.194zm-1.748 5.508l-1.84-1.836 2.024-2.02.46.46-1.471 1.377.275.275 1.38-1.377.46.46-1.38 1.376.276.276 1.38-1.378.46.46-2.024 1.927zm-3.77.092l.643.643c.092.091.092.091.184.091s.184 0 .184-.091l.828-.827-.92-.918.552-.55 1.84 1.836-.553.55-.46-.459-.827.827c-.276.275-.552.459-.736.459-.276 0-.46-.092-.736-.367l-.644-.643.644-.55zm-3.588 3.58l.552-.55 1.288 1.285c0 .092.092.092.092.183l.092.092v-.183l-.368-2.295.92-.919 1.839 1.837-.552.55-1.288-1.285s0-.092-.091-.184l-.092-.091v.183l.367 2.295-.92.918-1.839-1.836zm-1.655 2.57l1.011-1.01.92.919-1.104 1.102c0-.092-.092-.184-.184-.368-.184-.183-.46-.367-.643-.642zm-1.104.093c.552.55.92.917 1.012 1.101a.568.568 0 01.183.367l-.091.092.643.643.552-.551-.092-.092-.092-.092s0-.091.092-.091l1.104-1.102.092-.092s.092 0 .092.092l.092.092.552-.551-.644-.643-.184.184-1.38-1.377-1.931 2.02zm-.828 4.59l-1.84-1.837 2.024-2.02.46.46-1.472 1.469.276.275 1.38-1.377.46.46-1.38 1.376.276.276 1.38-1.377.46.459-2.024 1.836zm-4.69 1.01l2.39-2.387 1.84 1.836-.552.55-1.38-1.377-1.287 1.286 1.38 1.377-.552.55-1.84-1.836zm-1.38 3.212c.276.276.367.368.46.368.092 0 .275-.184.643-.551.368-.367.46-.551.552-.643 0-.092-.092-.275-.368-.459-.276-.275-.368-.367-.46-.367-.092 0-.275.184-.643.55-.368.368-.46.552-.552.643 0 .092.092.184.368.46zm1.84-1.836c.459.46.643.735.643.918 0 .184-.368.643-.92 1.194-.46.459-.736.734-.92.826-.184.092-.367.184-.551.092-.092-.092-.368-.276-.736-.551-.46-.459-.644-.734-.644-.918 0-.184.368-.643.92-1.193.552-.551 1.011-.918 1.195-.918.276-.092.552.091 1.012.55zm-5.52 4.59l-.46-.459 2.208-2.203.46.46-.828.825 1.38 1.377-.552.551-1.38-1.377-.828.826zm-1.471 2.387l.828-.826c.092-.092.092-.092.092-.184 0-.091 0-.183-.092-.275-.092-.092-.184-.092-.276-.092-.092 0-.092 0-.184.092l-.828.826.46.46zm-1.472-.367l1.38-1.377c.276-.275.552-.459.736-.459.184 0 .46.092.736.367.275.276.46.551.367.735 0 .183-.184.367-.46.734l-.827.826.46.46-.552.55-1.84-1.836zm-1.38 3.213c.277.275.369.367.46.367.093 0 .277-.183.644-.55.368-.368.46-.551.552-.643 0-.092-.092-.276-.368-.46-.276-.275-.368-.366-.46-.366-.091 0-.276.183-.643.55-.368.368-.46.551-.552.643 0 .092.092.184.368.46zm1.84-1.836c.46.459.644.735.644.918 0 .184-.368.643-.92 1.193-.46.46-.736.735-.92.827-.183.091-.367.183-.551.091-.092-.091-.368-.275-.736-.55-.46-.46-.644-.735-.644-.918 0-.184.368-.643.92-1.194.552-.55 1.011-.918 1.195-.918.276-.092.552.092 1.012.551zm33.019-28.55l1.932 1.928 3.403-3.397-1.932-1.928 1.564-1.56 5.518 5.508-1.563 1.56-2.116-2.295-3.403 3.397 2.116 2.111-1.564 1.56-5.519-5.507 1.564-1.377zm-5.243 10.649c.736.734 1.196 1.01 1.472 1.01s.828-.46 1.748-1.377c.92-.918 1.38-1.47 1.471-1.745 0-.275-.276-.734-1.012-1.468-.736-.735-1.195-1.01-1.471-1.01s-.828.55-1.748 1.469c-.92.918-1.38 1.468-1.471 1.744 0 .183.276.734 1.011 1.377zm5.243-5.233c1.288 1.285 2.023 2.295 1.932 2.846-.093.643-.92 1.744-2.576 3.397-1.196 1.193-2.023 1.927-2.483 2.203-.552.367-1.104.367-1.656.092-.368-.184-1.103-.827-2.023-1.745-1.288-1.285-2.024-2.295-1.932-2.845 0-.643.92-1.745 2.575-3.397 1.656-1.652 2.76-2.479 3.404-2.57.46.091 1.38.734 2.759 2.02zm-11.13 5.692l5.52 5.508-1.656 1.469L51 47.975l-2.851 2.846c1.563 1.56 2.575 2.754 2.85 3.672.277.735.185 1.47-.367 2.02l-.736.734-1.38-1.377c.368-.367.46-.734.184-1.193-.276-.367-1.471-1.653-3.495-3.672l5.979-5.967zM41.16 57.523l-.276.275 1.012 2.754 1.932-1.928-2.668-1.101zm-2.759.275l2.76-2.754 8.001 2.938-1.84 1.836-1.379-.46-3.127 3.122.46 1.377-1.84 1.836-3.035-7.895zm-6.53 6.334c1.471-1.469 2.483-2.203 3.127-2.295.552-.092 1.288.367 2.207 1.377l-1.563 1.56c-.276-.275-.644-.458-.828-.366-.276.091-.828.459-1.472 1.193-.736.734-1.195 1.285-1.195 1.56 0 .276.368.735 1.011 1.378.644.642 1.104 1.01 1.38 1.01.276 0 .736-.368 1.564-1.194.736-.734 1.103-1.193 1.195-1.469.092-.275 0-.55-.368-.918l1.564-1.56c1.012 1.01 1.472 1.744 1.38 2.203-.092.642-.828 1.652-2.392 3.121-1.471 1.469-2.483 2.203-3.127 2.295-.644 0-1.564-.642-2.851-1.928-1.288-1.285-1.932-2.203-1.932-2.846.092-.642.828-1.652 2.3-3.12z" fill="#fff"/><path fill-rule="evenodd" clip-rule="evenodd" d="M30.583 29.616l-9.75 9.73c-3.126-3.58-1.195-8.445 1.748-11.291l2.852-2.846-1.012-1.01 11.68-2.02-3.402 3.397 3.495 3.489-5.61.55zm12.325 6.334L30.215 48.617l-5.059-5.05 5.61-5.6 12.142-2.019zm-8.279-1.469l16.188-2.937s.644.459 1.011 1.101l.736 1.47.736-.093c-1.012-2.203-3.219-5.875-8.646-5.691-5.518.367-10.025 6.15-10.025 6.15z" fill="#fff"/><path fill-rule="evenodd" clip-rule="evenodd" d="M54.127 19.335l.828.826-1.932 1.928c-.092.091-.184.091-.276.183l-.092.092h.092c.092 0 .092 0 .184-.092l3.495-.55 1.38 1.377-2.76 2.753-.827-.826L56.15 23.1s.092-.092.276-.184l.092-.092h-.092c-.092 0-.092 0-.184.092l-3.495.55-1.38-1.376 2.76-2.754zm-4.599-3.213l.736-.735 3.219 3.213-.736.735-1.103-1.194-2.024 2.02-.828-.826 2.024-2.02-1.288-1.193zm-3.495-2.295l1.196 1.193c.092.092.184.184.276.184.091 0 .276-.092.367-.184.092-.092.184-.275.184-.367 0-.092-.092-.184-.183-.276l-1.196-1.193-.644.643zm.46-2.204l2.023 2.02c.46.459.736.826.736 1.01 0 .275-.184.734-.644 1.101-.46.46-.827.643-1.103.643s-.644-.275-1.104-.734l-1.196-1.194-.644.643-.736-.735 2.668-2.754zm-4.783-2.02c-.368.368-.552.552-.46.735 0 .184.276.46.736.918.46.46.828.735.92.735.092 0 .368-.184.736-.46.367-.367.551-.642.46-.734 0-.092-.276-.459-.736-.918-.46-.459-.828-.734-.92-.734-.184-.092-.368.092-.736.459zm2.76 2.755c-.645.642-1.104 1.01-1.472.918-.276 0-.92-.46-1.748-1.377-.644-.643-1.012-1.102-1.196-1.285-.184-.276-.184-.551-.092-.827.092-.183.368-.55.92-1.01.644-.642 1.104-1.01 1.472-.917.276 0 .92.459 1.747 1.377.828.826 1.288 1.468 1.38 1.744 0 .275-.368.734-1.012 1.377zM22.118 52.934l1.931 1.928-1.747 1.744-2.116-2.112c.092 0 .368-.091.736-.367.276-.367.736-.734 1.196-1.193zm-.184-2.02c-1.012 1.01-1.747 1.744-2.207 2.02-.368.275-.644.367-.736.275l-.184-.184-1.288 1.286 1.104 1.101.184-.183c.092-.092.184-.092.184-.092.092 0 .184 0 .276.092l2.207 2.203c.092.092.092.183.092.275 0 .092 0 .184-.092.184l-.184.184 1.104 1.101 1.288-1.285-.276-.276 2.667-2.662-4.139-4.039zm-8.922-1.836l3.587-3.58 3.863 3.855-.827.827-2.76-2.754-.46.459 2.576 2.57-.828.826-2.575-2.57-.46.459 2.76 2.754-1.013 1.01-3.863-3.856zm-3.127-10.19L6.3 42.468l1.104 1.102 2.483-2.479.092-.091c.092-.092.092-.184.092-.184h.092v.092c0 .092 0 .092-.092.183l-1.288 4.04.92.918 3.955-1.377s.092 0 .184-.092h.092v.092s-.092 0-.184.091c-.092.092-.184.092-.184.092l-2.483 2.479 1.104 1.101 3.587-3.58-1.84-1.836-2.943 1.102a1.268 1.268 0 00-.368.275c-.092.092-.184.092-.184.092s0-.092.184-.275c.092-.184.184-.276.184-.276L11.91 41l-2.024-2.112zM3.172 42.01L41.618 3.637l20.05 19.92-8.277 8.263-.368-.643 2.575-2.57L36.56 9.695 9.334 36.869l18.948 18.91 22.81-22.766.276.826-28.145 28.183L3.172 42.009z" fill="#fff"/></svg>