<svg width="187" height="188" viewBox="0 0 187 188" fill="none" xmlns="http://www.w3.org/2000/svg">
<path d="M102.39 0.318476L0 102.708L84.4156 187.124L186.806 84.7341L102.39 0.318476Z" fill="white"/>
<path d="M102.39 0.318476L0 102.708L84.4156 187.124L186.806 84.7341L102.39 0.318476Z" fill="#970E0B"/>
<path d="M155.833 63.6593L153.563 65.929L154.244 66.6098L156.514 64.3402L155.833 63.6593ZM152.202 68.6525L153.563 67.2907L156.741 70.4682C156.741 70.6952 156.968 70.6952 156.968 70.9222C156.968 70.9222 156.968 70.9222 157.195 71.1491C157.195 71.1491 157.195 71.1491 157.195 70.9222V70.6952L156.287 65.0211L158.557 62.7515L163.096 67.2907L161.734 68.6525L158.557 65.475C158.557 65.475 158.557 65.2481 158.33 65.0211C158.33 65.0211 158.33 65.0211 158.103 64.7941C158.103 64.7941 158.103 64.7941 158.103 65.0211V65.2481L159.011 70.9222L156.741 73.1918L152.202 68.6525ZM144.712 76.3693L146.074 75.0075L149.251 78.185C149.251 78.412 149.478 78.412 149.478 78.6389C149.478 78.6389 149.478 78.6389 149.705 78.8659C149.705 78.8659 149.705 78.8659 149.705 78.6389V78.412L148.57 72.5109L150.84 70.2413L155.379 74.7805L154.017 76.1423L150.84 72.9648C150.84 72.9648 150.84 72.7379 150.613 72.5109C150.613 72.5109 150.613 72.5109 150.386 72.2839C150.386 72.2839 150.386 72.2839 150.386 72.5109V72.7379L151.294 78.412L149.024 80.6816L144.712 76.3693ZM137.903 83.1782L139.265 81.8164L140.854 83.4051L141.534 82.7243V79.5468L143.35 77.7311V82.0434L148.343 81.8164L146.301 83.8591H142.669L141.988 84.54L143.804 86.3557L142.442 87.7175L137.903 83.1782ZM133.818 87.0366C135.179 85.6748 136.087 84.9939 136.541 84.9939C136.995 84.9939 137.676 85.2209 138.357 86.1287L136.995 87.4905C136.768 87.2635 136.541 87.0366 136.314 87.2635C136.087 87.2635 135.633 87.7175 134.952 88.3983C134.272 89.0792 133.818 89.5332 133.818 89.7601C133.818 89.9871 134.045 90.441 134.725 90.895C135.179 91.3489 135.633 91.8028 135.86 91.8028C136.087 91.8028 136.541 91.3489 137.222 90.668C137.903 89.9871 138.13 89.5332 138.357 89.3062C138.357 89.0792 138.357 88.8523 138.13 88.6253L139.492 87.2635C140.4 88.1714 140.627 88.6253 140.627 89.0792C140.627 89.5332 139.946 90.441 138.584 91.8028C137.222 93.1646 136.314 93.8455 135.86 93.8455C135.406 93.8455 134.499 93.3916 133.364 92.2567C132.229 91.1219 131.775 90.441 131.775 89.9871C131.775 89.3062 132.456 88.3984 133.818 87.0366ZM129.505 100.654L124.966 96.1151L129.959 91.1219L131.094 92.2567L127.463 95.6612L128.144 96.3421L131.548 92.9376L132.683 94.0724L129.278 97.4769L129.959 98.1578L133.364 94.7533L134.499 95.8881L129.505 100.654ZM120.2 100.881L121.789 102.47C122.016 102.697 122.016 102.697 122.243 102.697C122.469 102.697 122.696 102.697 122.696 102.47L124.739 100.427L122.469 98.1578L123.831 96.796L128.371 101.335L127.009 102.697L125.874 101.562L123.831 103.605C123.15 104.286 122.469 104.74 122.016 104.74C121.335 104.74 120.881 104.513 120.2 103.832L118.611 102.243L120.2 100.881ZM111.348 109.733L112.71 108.371L115.888 111.549C115.888 111.776 116.114 111.776 116.114 112.003C116.114 112.003 116.114 112.003 116.341 112.23C116.341 112.23 116.341 112.23 116.341 112.003V111.776L115.434 106.102L117.703 103.832L122.243 108.371L120.881 109.733L117.703 106.555C117.703 106.555 117.703 106.328 117.476 106.102C117.476 106.102 117.476 106.102 117.249 105.875C117.249 105.875 117.249 105.875 117.249 106.102V106.328L118.157 112.003L115.888 114.272L111.348 109.733ZM107.263 116.088L109.76 113.591L112.029 115.861L109.306 118.585C109.306 118.358 109.079 118.131 108.852 117.677C108.398 117.223 107.944 116.769 107.263 116.088ZM104.766 116.315C106.128 117.677 107.036 118.585 107.263 119.038C107.717 119.492 107.717 119.946 107.717 119.946L107.49 120.173L109.079 121.762L110.44 120.4L110.213 120.173L109.986 119.946C109.986 119.946 109.986 119.719 110.213 119.719L112.937 116.996L113.164 116.769C113.164 116.769 113.391 116.769 113.391 116.996L113.618 117.223L114.98 115.861L113.391 114.272L112.937 114.726L109.986 111.095L104.766 116.315ZM102.497 127.663L97.9574 123.124L102.951 118.131L104.085 119.265L100.454 122.897L101.135 123.578L104.539 120.173L105.674 121.308L102.27 124.713L102.951 125.393L106.355 121.989L107.49 123.124L102.497 127.663ZM90.9215 130.16L96.8226 124.259L101.362 128.798L100 130.16L96.5956 126.755L93.4181 129.933L96.8226 133.337L95.4608 134.699L90.9215 130.16ZM87.5171 138.103C88.198 138.784 88.4249 139.011 88.6519 139.011C88.8788 139.011 89.3328 138.557 90.2406 137.649C91.1485 136.742 91.3755 136.288 91.6024 136.061C91.6024 135.834 91.3755 135.38 90.6946 134.926C90.0137 134.245 89.7867 134.018 89.5597 134.018C89.3328 134.018 88.8789 134.472 87.971 135.38C87.0631 136.288 86.8362 136.742 86.6092 136.969C86.6092 137.196 86.8362 137.649 87.5171 138.103ZM92.0563 133.564C93.1912 134.699 93.6451 135.38 93.6451 135.834C93.6451 136.288 92.7372 137.422 91.3755 138.784C90.2406 139.919 89.5597 140.6 89.1058 140.827C88.6519 141.054 88.198 141.281 87.744 141.054C87.5171 140.827 86.8362 140.373 85.9283 139.692C84.7935 138.557 84.3396 137.876 84.3396 137.422C84.3396 136.969 85.2474 135.834 86.6092 134.472C87.971 133.11 89.1058 132.202 89.5597 132.202C90.2406 131.975 90.9215 132.429 92.0563 133.564ZM78.6655 144.912L77.5307 143.777L82.9778 138.33L84.1126 139.465L82.0699 141.508L85.4744 144.912L84.1126 146.274L80.4812 142.87L78.6655 144.912ZM74.8071 150.813L76.8498 148.771C77.0767 148.544 77.0767 148.544 77.0767 148.317C77.0767 148.09 77.0767 147.863 76.8498 147.636C76.6228 147.409 76.3959 147.409 76.1689 147.409C75.9419 147.409 75.9419 147.409 75.715 147.636L73.6723 149.679L74.8071 150.813ZM71.1757 149.905L74.5802 146.501C75.261 145.82 75.9419 145.366 76.3959 145.366C76.8498 145.366 77.5307 145.593 78.2116 146.274C78.8925 146.955 79.3464 147.636 79.1194 148.09C79.1194 148.544 78.6655 148.998 77.9846 149.905L75.9419 151.948L77.0767 153.083L75.715 154.445L71.1757 149.905ZM67.7712 157.849C68.4521 158.53 68.6791 158.757 68.9061 158.757C69.133 158.757 69.5869 158.303 70.4948 157.395C71.4027 156.487 71.6296 156.034 71.8566 155.807C71.8566 155.58 71.6296 155.126 70.9487 154.672C70.2678 153.991 70.0409 153.764 69.8139 153.764C69.5869 153.764 69.133 154.218 68.2252 155.126C67.3173 156.033 67.0903 156.487 66.8634 156.714C66.8634 156.941 67.0904 157.395 67.7712 157.849ZM72.3105 153.31C73.4453 154.445 73.8993 155.126 73.8993 155.58C73.8993 156.034 72.9914 157.168 71.6296 158.53C70.4948 159.665 69.8139 160.346 69.36 160.573C68.9061 160.8 68.4521 161.027 67.9982 160.8C67.7712 160.573 67.0904 160.119 66.1825 159.438C65.0477 158.303 64.5938 157.622 64.5938 157.168C64.5938 156.714 65.5016 155.58 66.8634 154.218C68.2252 152.856 69.36 151.948 69.8139 151.948C70.4948 151.721 71.1757 152.175 72.3105 153.31Z" fill="white"/>
<path d="M153.772 82.7292L158.538 87.4954L166.936 79.0978L162.169 74.3315L166.028 70.4731L179.646 84.091L175.787 87.7224L170.567 82.5022L162.169 90.8999L167.39 96.12L163.531 99.9784L149.913 86.3606L153.772 82.7292ZM140.835 109.057C142.65 110.873 143.785 111.554 144.466 111.554C145.147 111.554 146.509 110.419 148.778 108.149C151.048 105.879 152.183 104.518 152.41 103.837C152.41 103.156 151.729 102.021 149.913 100.205C148.098 98.3897 146.963 97.7088 146.282 97.7088C145.601 97.7088 144.239 99.0706 141.97 101.34C139.7 103.61 138.565 104.972 138.338 105.653C138.338 106.106 139.019 107.468 140.835 109.057ZM153.772 96.347C156.949 99.5245 158.765 102.021 158.538 103.383C158.311 104.972 156.268 107.695 152.183 111.781C149.232 114.731 147.19 116.547 146.055 117.228C144.693 118.135 143.331 118.135 141.97 117.455C141.062 117.001 139.246 115.412 136.976 113.142C133.799 109.965 131.983 107.468 132.21 106.106C132.21 104.518 134.48 101.794 138.565 97.7088C142.65 93.6234 145.374 91.5808 146.963 91.3538C148.098 91.3538 150.367 92.9425 153.772 96.347ZM126.309 110.192L139.927 123.81L136.069 127.668L125.855 117.455L119.046 124.49C122.905 128.349 125.401 131.299 126.082 133.569C126.763 135.385 126.536 137.2 125.174 138.562L123.359 140.378L119.954 136.973C120.862 136.066 121.089 135.158 120.408 134.023C119.727 133.115 116.777 129.938 111.783 124.944L126.309 110.192ZM101.57 141.059L100.889 141.74L103.386 148.549L108.152 143.782L101.57 141.059ZM94.7612 141.74L101.57 134.931L121.316 142.194L116.777 146.733L113.372 145.598L105.428 153.542L106.563 156.946L102.024 161.486L94.7612 141.74ZM78.6467 157.4C82.2782 153.769 84.7748 151.953 86.3635 151.726C87.7253 151.499 89.541 152.634 91.8106 155.131L87.9522 158.989C87.2714 158.308 86.3635 157.854 85.9096 158.081C85.2287 158.308 83.8669 159.216 82.2782 161.032C80.4625 162.847 79.3276 164.209 79.3276 164.89C79.3276 165.571 80.2355 166.706 81.8242 168.294C83.413 169.883 84.5478 170.791 85.2287 170.791C85.9096 170.791 87.0444 169.883 89.0871 167.841C90.9028 166.025 91.8106 164.89 92.0376 164.209C92.2646 163.528 92.0376 162.847 91.1297 161.939L94.9881 158.081C97.4847 160.578 98.6195 162.393 98.3926 163.528C98.1656 165.117 96.3499 167.614 92.4915 171.245C88.8601 174.876 86.3635 176.692 84.7748 176.919C83.186 176.919 80.9164 175.33 77.7389 172.153C74.5614 168.975 72.9727 166.706 72.9727 165.117C73.1996 163.528 75.0153 161.032 78.6467 157.4Z" fill="white"/>
<path fill-rule="evenodd" clip-rule="evenodd" d="M75.481 72.2839L51.6498 96.115C43.933 87.2635 48.6993 75.2344 55.9621 68.1985C57.0969 67.0637 62.998 61.1626 62.998 61.1626L60.5014 58.6661L89.3258 53.6729L80.9281 62.0705L89.5527 70.6951L75.481 72.2839Z" fill="white"/>
<path fill-rule="evenodd" clip-rule="evenodd" d="M105.89 87.7188L74.5689 119.04L62.0859 106.557L75.9307 92.712L105.89 87.7188Z" fill="white"/>
<path fill-rule="evenodd" clip-rule="evenodd" d="M85.4688 84.3201L125.414 77.0573C125.414 77.0573 127.003 78.1921 127.911 79.7809C128.819 81.5966 129.727 83.4123 129.727 83.4123L131.542 83.1853C129.046 77.7382 123.599 68.6596 110.208 69.1136C96.59 69.7945 85.4688 84.3201 85.4688 84.3201Z" fill="white"/>
<path fill-rule="evenodd" clip-rule="evenodd" d="M133.812 46.6399L135.855 48.6825L131.089 53.4488C130.862 53.6757 130.635 53.6757 130.408 53.9027L130.181 54.1297H130.408C130.635 54.1297 130.635 54.1297 130.862 53.9027L139.487 52.5409L142.891 55.9454L136.082 62.7543L134.039 60.7116L138.806 55.9454C138.806 55.9454 139.033 55.7184 139.487 55.4915L139.714 55.2645H139.487C139.26 55.2645 139.26 55.2645 139.033 55.4915L130.408 56.8532L127.004 53.4488L133.812 46.6399ZM122.464 38.6961L124.28 36.8804L132.224 44.8242L130.408 46.8668L127.457 43.9163L122.464 48.9095L120.422 46.8668L125.415 41.8736L122.464 38.6961ZM113.613 33.249L116.563 36.1995C116.79 36.4265 117.017 36.6535 117.244 36.6535C117.471 36.6535 117.925 36.4265 118.152 36.1995C118.379 35.9726 118.606 35.5187 118.606 35.2917C118.606 35.0647 118.379 34.8378 118.152 34.6108L115.201 31.6603L113.613 33.249ZM114.748 27.8019L119.741 32.7951C120.876 33.9299 121.556 34.8378 121.556 35.2917C121.556 35.9726 121.102 37.1074 119.968 38.0153C118.833 39.1501 117.925 39.604 117.244 39.604C116.563 39.604 115.655 38.9231 114.521 37.7883L111.57 34.8378L110.208 36.6535L108.166 34.3838L114.748 27.8019ZM102.945 22.5817C102.038 23.4896 101.584 23.9435 101.811 24.3974C101.811 24.8514 102.491 25.5323 103.626 26.6671C104.761 27.8019 105.669 28.4828 105.896 28.4828C106.123 28.4828 106.804 28.0289 107.712 27.348C108.619 26.4401 109.073 25.7592 108.846 25.5323C108.846 25.3053 108.166 24.3974 107.031 23.2626C105.896 22.1278 104.988 21.4469 104.761 21.4469C104.534 21.22 103.853 21.6739 102.945 22.5817ZM109.754 29.3906C108.166 30.9794 107.031 31.8872 106.123 31.6603C105.442 31.6603 103.853 30.5255 101.811 28.2558C100.222 26.6671 99.314 25.5323 98.8601 25.0783C98.4061 24.3974 98.4061 23.7166 98.6331 23.0357C98.8601 22.5817 99.5409 21.6739 100.903 20.5391C102.491 18.9503 103.626 18.0425 104.534 18.2694C105.215 18.2694 106.804 19.4042 108.846 21.6739C110.889 23.7166 112.024 25.3053 112.251 25.9862C112.251 26.6671 111.343 27.8019 109.754 29.3906ZM54.6022 129.709L59.3684 134.475L55.0561 138.787L49.8359 133.567C50.0629 133.567 50.7438 133.34 51.6516 132.659C52.5595 131.751 53.4673 130.843 54.6022 129.709ZM54.1482 124.715C51.6516 127.212 49.8359 129.028 48.7011 129.709C47.7932 130.389 47.1124 130.616 46.8854 130.389L46.4315 129.936L43.254 133.113L45.9775 135.837L46.4315 135.383C46.6584 135.156 46.8854 135.156 46.8854 135.156C47.1124 135.156 47.3393 135.156 47.5663 135.383L53.0134 140.83C53.2404 141.057 53.2404 141.284 53.2404 141.511C53.2404 141.738 53.2404 141.965 53.0134 141.965L52.5595 142.419L55.2831 145.142L58.4605 141.965L57.7796 141.284L64.3616 134.702L54.1482 124.715ZM32.1328 120.403L40.9843 111.551L50.5168 121.084L48.4741 123.127L41.6652 116.318L40.5304 117.453L46.8854 123.808L44.8427 125.85L38.4877 119.495L37.3529 120.63L44.1618 127.439L41.6652 129.709L32.1328 120.403ZM24.416 94.9831L15.5644 103.835L18.288 106.558L24.416 100.43L24.643 100.203C24.8699 99.9763 24.8699 99.7494 24.8699 99.7494C24.8699 99.7494 24.8699 99.7494 25.0969 99.7494C25.0969 99.7494 25.0969 99.7494 25.0969 99.9763C25.0969 100.203 25.0969 100.203 24.8699 100.43L21.6924 110.417L23.9621 112.686L33.7215 109.282C33.7215 109.282 33.9485 109.282 34.1754 109.055C34.4024 109.055 34.4024 109.055 34.4024 109.055C34.4024 109.055 34.4024 109.055 34.4024 109.282C34.4024 109.282 34.1754 109.282 33.9485 109.509C33.7215 109.736 33.4945 109.736 33.4945 109.736L27.3665 115.864L30.0901 118.587L38.9417 109.736L34.4024 105.196L27.1396 107.92C26.6856 108.147 26.4587 108.374 26.2317 108.601C26.0047 108.828 25.7778 108.828 25.7778 108.828C25.7778 108.828 25.7778 108.601 26.2317 108.147C26.4587 107.693 26.6856 107.466 26.6856 107.466L29.4092 100.203L24.416 94.9831ZM7.84766 102.7L102.718 7.8291L152.197 57.0802L131.77 77.5069L130.862 75.9182L137.217 69.5632L90.2354 22.8087L23.0542 89.9899L69.8087 136.744L126.096 80.4575L126.777 82.5001L57.3257 152.178L7.84766 102.7Z" fill="white"/>
</svg>
