<svg width="747" height="177" viewBox="0 0 747 177" fill="none" xmlns="http://www.w3.org/2000/svg">
<path fill-rule="evenodd" clip-rule="evenodd" d="M137.372 61.8267C150.082 61.8267 158.253 71.8131 158.253 84.523C158.253 97.006 149.628 107.219 137.599 107.219C125.343 107.219 116.718 97.233 116.718 84.523C116.718 72.04 124.662 61.5997 137.372 61.8267ZM137.372 46.6201C159.615 46.6201 177.772 63.4154 177.772 84.2961C177.772 105.177 159.615 121.972 137.372 121.972C115.13 121.972 96.9727 105.177 96.9727 84.2961C96.9727 63.6424 115.13 46.6201 137.372 46.6201Z" fill="white"/>
<path fill-rule="evenodd" clip-rule="evenodd" d="M137.372 61.8267C150.082 61.8267 158.253 71.8131 158.253 84.523C158.253 97.006 149.628 107.219 137.599 107.219C125.343 107.219 116.718 97.233 116.718 84.523C116.718 72.04 124.662 61.5997 137.372 61.8267ZM137.372 46.6201C159.615 46.6201 177.772 63.4154 177.772 84.2961C177.772 105.177 159.615 121.972 137.372 121.972C115.13 121.972 96.9727 105.177 96.9727 84.2961C96.9727 63.6424 115.13 46.6201 137.372 46.6201Z" fill="#970E0B"/>
<path fill-rule="evenodd" clip-rule="evenodd" d="M222.028 62.9607L207.502 62.7338V82.9335C212.268 82.9335 216.127 82.9335 220.893 82.9335C234.511 80.4369 231.787 64.5495 222.028 62.9607ZM195.7 48.4351C191.842 48.889 188.891 50.9317 188.664 55.017C188.664 75.2168 188.664 95.6435 188.664 115.843C192.069 124.241 204.552 123.787 207.275 115.843V97.4592C214.992 97.6862 222.709 97.2322 230.425 97.0053C239.731 95.1896 248.356 88.6076 249.717 74.5359C249.49 55.244 235.419 48.889 224.297 48.662C214.765 48.4351 205.232 48.4351 195.7 48.4351Z" fill="white"/>
<path fill-rule="evenodd" clip-rule="evenodd" d="M222.028 62.9607L207.502 62.7338V82.9335C212.268 82.9335 216.127 82.9335 220.893 82.9335C234.511 80.4369 231.787 64.5495 222.028 62.9607ZM195.7 48.4351C191.842 48.889 188.891 50.9317 188.664 55.017C188.664 75.2168 188.664 95.6435 188.664 115.843C192.069 124.241 204.552 123.787 207.275 115.843V97.4592C214.992 97.6862 222.709 97.2322 230.425 97.0053C239.731 95.1896 248.356 88.6076 249.717 74.5359C249.49 55.244 235.419 48.889 224.297 48.662C214.765 48.4351 205.232 48.4351 195.7 48.4351Z" fill="#970E0B"/>
<path d="M267.873 63.4171H280.583C280.583 80.8933 280.583 98.1425 280.583 115.619C281.036 119.25 285.349 121.747 289.661 121.52C293.293 121.52 298.513 120.385 298.967 115.619L299.194 63.4171C304.414 63.4171 309.407 63.1902 314.627 63.1902C319.62 61.8284 319.847 58.197 319.847 55.7004C319.847 53.4307 318.259 49.1184 313.719 48.8914C298.059 48.8914 283.306 49.1184 267.873 48.8914C261.518 48.6645 260.383 53.8846 260.383 56.1543C260.383 58.6509 261.291 62.9632 267.873 63.4171Z" fill="white"/>
<path d="M267.873 63.4171H280.583C280.583 80.8933 280.583 98.1425 280.583 115.619C281.036 119.25 285.349 121.747 289.661 121.52C293.293 121.52 298.513 120.385 298.967 115.619L299.194 63.4171C304.414 63.4171 309.407 63.1902 314.627 63.1902C319.62 61.8284 319.847 58.197 319.847 55.7004C319.847 53.4307 318.259 49.1184 313.719 48.8914C298.059 48.8914 283.306 49.1184 267.873 48.8914C261.518 48.6645 260.383 53.8846 260.383 56.1543C260.383 58.6509 261.291 62.9632 267.873 63.4171Z" fill="#970E0B"/>
<path fill-rule="evenodd" clip-rule="evenodd" d="M267.873 63.4171H280.583C280.583 80.8933 280.583 98.1425 280.583 115.619C281.036 119.25 285.349 121.747 289.661 121.52C293.293 121.52 298.513 120.385 298.967 115.619L299.194 63.4171C304.414 63.4171 309.407 63.1902 314.627 63.1902C319.62 61.8284 319.847 58.197 319.847 55.7004C319.847 53.4307 318.259 49.1184 313.719 48.8914C298.059 48.8914 283.306 49.1184 267.873 48.8914C261.518 48.6645 260.383 53.8846 260.383 56.1543C260.383 58.6509 261.291 62.9632 267.873 63.4171Z" fill="white"/>
<path fill-rule="evenodd" clip-rule="evenodd" d="M267.873 63.4171H280.583C280.583 80.8933 280.583 98.1425 280.583 115.619C281.036 119.25 285.349 121.747 289.661 121.52C293.293 121.52 298.513 120.385 298.967 115.619L299.194 63.4171C304.414 63.4171 309.407 63.1902 314.627 63.1902C319.62 61.8284 319.847 58.197 319.847 55.7004C319.847 53.4307 318.259 49.1184 313.719 48.8914C298.059 48.8914 283.306 49.1184 267.873 48.8914C261.518 48.6645 260.383 53.8846 260.383 56.1543C260.383 58.6509 261.291 62.9632 267.873 63.4171Z" fill="#970E0B"/>
<path d="M349.134 54.5654C348.907 48.8913 342.552 47.7565 339.375 47.7565C336.424 47.7565 331.204 49.1183 330.75 54.5654C330.75 74.9921 330.75 95.6458 330.75 116.073C332.112 120.158 336.424 121.293 339.375 121.52C342.325 121.747 345.73 120.612 348.453 117.661L384.994 78.1696C384.994 90.4256 385.221 102.909 385.221 115.165C386.356 120.839 391.122 121.293 394.073 121.293C397.023 121.52 401.109 121.293 403.605 116.073C403.605 95.4188 403.605 74.7652 403.605 54.1115C401.563 48.2104 397.704 47.7565 394.527 47.5295C391.576 47.3026 388.172 48.8913 384.994 52.5227L349.361 91.7874C349.361 79.3044 349.134 67.0484 349.134 54.5654Z" fill="white"/>
<path d="M349.134 54.5654C348.907 48.8913 342.552 47.7565 339.375 47.7565C336.424 47.7565 331.204 49.1183 330.75 54.5654C330.75 74.9921 330.75 95.6458 330.75 116.073C332.112 120.158 336.424 121.293 339.375 121.52C342.325 121.747 345.73 120.612 348.453 117.661L384.994 78.1696C384.994 90.4256 385.221 102.909 385.221 115.165C386.356 120.839 391.122 121.293 394.073 121.293C397.023 121.52 401.109 121.293 403.605 116.073C403.605 95.4188 403.605 74.7652 403.605 54.1115C401.563 48.2104 397.704 47.7565 394.527 47.5295C391.576 47.3026 388.172 48.8913 384.994 52.5227L349.361 91.7874C349.361 79.3044 349.134 67.0484 349.134 54.5654Z" fill="#970E0B"/>
<path fill-rule="evenodd" clip-rule="evenodd" d="M349.134 54.5654C348.907 48.8913 342.552 47.7565 339.375 47.7565C336.424 47.7565 331.204 49.1183 330.75 54.5654C330.75 74.9921 330.75 95.6458 330.75 116.073C332.112 120.158 336.424 121.293 339.375 121.52C342.325 121.747 345.73 120.612 348.453 117.661L384.994 78.1696C384.994 90.4256 385.221 102.909 385.221 115.165C386.356 120.839 391.122 121.293 394.073 121.293C397.023 121.52 401.109 121.293 403.605 116.073C403.605 95.4188 403.605 74.7652 403.605 54.1115C401.563 48.2104 397.704 47.7565 394.527 47.5295C391.576 47.3026 388.172 48.8913 384.994 52.5227L349.361 91.7874C349.361 79.3044 349.134 67.0484 349.134 54.5654Z" fill="white"/>
<path fill-rule="evenodd" clip-rule="evenodd" d="M349.134 54.5654C348.907 48.8913 342.552 47.7565 339.375 47.7565C336.424 47.7565 331.204 49.1183 330.75 54.5654C330.75 74.9921 330.75 95.6458 330.75 116.073C332.112 120.158 336.424 121.293 339.375 121.52C342.325 121.747 345.73 120.612 348.453 117.661L384.994 78.1696C384.994 90.4256 385.221 102.909 385.221 115.165C386.356 120.839 391.122 121.293 394.073 121.293C397.023 121.52 401.109 121.293 403.605 116.073C403.605 95.4188 403.605 74.7652 403.605 54.1115C401.563 48.2104 397.704 47.7565 394.527 47.5295C391.576 47.3026 388.172 48.8913 384.994 52.5227L349.361 91.7874C349.361 79.3044 349.134 67.0484 349.134 54.5654Z" fill="#970E0B"/>
<path d="M424.711 56.8374C421.08 75.6754 417.902 94.5133 414.271 113.351C413.817 119.933 419.718 121.522 422.668 121.749C425.846 121.976 431.066 120.614 432.882 114.259L439.464 78.3989C444.003 90.8819 448.542 103.138 453.082 115.621C455.805 121.522 459.437 121.749 462.614 121.976C465.792 122.203 470.558 120.614 472.6 116.302L485.537 78.3989C488.034 91.1089 490.531 103.819 493.027 116.756C495.524 121.976 498.928 122.203 501.879 121.976C505.056 121.749 510.503 121.068 511.411 114.032C508.007 94.2864 503.921 76.1293 500.29 56.6104C498.701 50.7094 492.573 48.2128 488.488 48.2128C484.403 47.9858 479.409 48.6667 476.232 55.7026L462.841 91.1089C458.756 79.7607 454.443 68.4125 450.358 57.0643C445.138 47.0779 441.053 47.7588 436.74 47.7588C432.428 47.7588 426.754 49.1206 424.711 56.8374Z" fill="white"/>
<path d="M424.711 56.8374C421.08 75.6754 417.902 94.5133 414.271 113.351C413.817 119.933 419.718 121.522 422.668 121.749C425.846 121.976 431.066 120.614 432.882 114.259L439.464 78.3989C444.003 90.8819 448.542 103.138 453.082 115.621C455.805 121.522 459.437 121.749 462.614 121.976C465.792 122.203 470.558 120.614 472.6 116.302L485.537 78.3989C488.034 91.1089 490.531 103.819 493.027 116.756C495.524 121.976 498.928 122.203 501.879 121.976C505.056 121.749 510.503 121.068 511.411 114.032C508.007 94.2864 503.921 76.1293 500.29 56.6104C498.701 50.7094 492.573 48.2128 488.488 48.2128C484.403 47.9858 479.409 48.6667 476.232 55.7026L462.841 91.1089C458.756 79.7607 454.443 68.4125 450.358 57.0643C445.138 47.0779 441.053 47.7588 436.74 47.7588C432.428 47.7588 426.754 49.1206 424.711 56.8374Z" fill="#970E0B"/>
<path fill-rule="evenodd" clip-rule="evenodd" d="M424.711 56.8374C421.08 75.6754 417.902 94.5133 414.271 113.351C413.817 119.933 419.718 121.522 422.668 121.749C425.846 121.976 431.066 120.614 432.882 114.259L439.464 78.3989C444.003 90.8819 448.542 103.138 453.082 115.621C455.805 121.522 459.437 121.749 462.614 121.976C465.792 122.203 470.558 120.614 472.6 116.302L485.537 78.3989C488.034 91.1089 490.531 103.819 493.027 116.756C495.524 121.976 498.928 122.203 501.879 121.976C505.056 121.749 510.503 121.068 511.411 114.032C508.007 94.2864 503.921 76.1293 500.29 56.6104C498.701 50.7094 492.573 48.2128 488.488 48.2128C484.403 47.9858 479.409 48.6667 476.232 55.7026L462.841 91.1089C458.756 79.7607 454.443 68.4125 450.358 57.0643C445.138 47.0779 441.053 47.7588 436.74 47.7588C432.428 47.7588 426.754 49.1206 424.711 56.8374Z" fill="white"/>
<path fill-rule="evenodd" clip-rule="evenodd" d="M424.711 56.8374C421.08 75.6754 417.902 94.5133 414.271 113.351C413.817 119.933 419.718 121.522 422.668 121.749C425.846 121.976 431.066 120.614 432.882 114.259L439.464 78.3989C444.003 90.8819 448.542 103.138 453.082 115.621C455.805 121.522 459.437 121.749 462.614 121.976C465.792 122.203 470.558 120.614 472.6 116.302L485.537 78.3989C488.034 91.1089 490.531 103.819 493.027 116.756C495.524 121.976 498.928 122.203 501.879 121.976C505.056 121.749 510.503 121.068 511.411 114.032C508.007 94.2864 503.921 76.1293 500.29 56.6104C498.701 50.7094 492.573 48.2128 488.488 48.2128C484.403 47.9858 479.409 48.6667 476.232 55.7026L462.841 91.1089C458.756 79.7607 454.443 68.4125 450.358 57.0643C445.138 47.0779 441.053 47.7588 436.74 47.7588C432.428 47.7588 426.754 49.1206 424.711 56.8374Z" fill="#970E0B"/>
<path d="M529.564 48.6644C524.57 48.8913 522.528 53.2037 522.755 55.9272C522.528 75.2191 522.528 94.511 522.301 113.576C523.209 118.796 526.386 120.839 532.06 121.066C542.954 120.839 553.622 120.839 564.516 120.612C570.19 119.023 570.417 115.392 570.417 112.895C570.417 110.398 569.736 106.313 564.516 105.859L540.685 105.632V91.5605C548.402 91.5605 553.849 91.5605 561.338 91.5605C567.466 91.1066 568.828 86.3403 568.601 84.0707C568.374 81.3471 568.374 77.4888 562.246 76.5809L540.685 76.127L540.912 63.19C548.855 62.9631 556.799 62.9631 564.743 62.7361C569.055 62.0552 570.417 57.7429 569.963 55.4733C569.509 52.9767 569.282 48.6644 562.7 48.2104C551.352 48.6644 540.912 48.4374 529.564 48.6644Z" fill="white"/>
<path d="M529.564 48.6644C524.57 48.8913 522.528 53.2037 522.755 55.9272C522.528 75.2191 522.528 94.511 522.301 113.576C523.209 118.796 526.386 120.839 532.06 121.066C542.954 120.839 553.622 120.839 564.516 120.612C570.19 119.023 570.417 115.392 570.417 112.895C570.417 110.398 569.736 106.313 564.516 105.859L540.685 105.632V91.5605C548.402 91.5605 553.849 91.5605 561.338 91.5605C567.466 91.1066 568.828 86.3403 568.601 84.0707C568.374 81.3471 568.374 77.4888 562.246 76.5809L540.685 76.127L540.912 63.19C548.855 62.9631 556.799 62.9631 564.743 62.7361C569.055 62.0552 570.417 57.7429 569.963 55.4733C569.509 52.9767 569.282 48.6644 562.7 48.2104C551.352 48.6644 540.912 48.4374 529.564 48.6644Z" fill="#970E0B"/>
<path fill-rule="evenodd" clip-rule="evenodd" d="M529.564 48.6644C524.57 48.8913 522.528 53.2037 522.755 55.9272C522.528 75.2191 522.528 94.511 522.301 113.576C523.209 118.796 526.386 120.839 532.06 121.066C542.954 120.839 553.622 120.839 564.516 120.612C570.19 119.023 570.417 115.392 570.417 112.895C570.417 110.398 569.736 106.313 564.516 105.859L540.685 105.632V91.5605C548.402 91.5605 553.849 91.5605 561.338 91.5605C567.466 91.1066 568.828 86.3403 568.601 84.0707C568.374 81.3471 568.374 77.4888 562.246 76.5809L540.685 76.127L540.912 63.19C548.855 62.9631 556.799 62.9631 564.743 62.7361C569.055 62.0552 570.417 57.7429 569.963 55.4733C569.509 52.9767 569.282 48.6644 562.7 48.2104C551.352 48.6644 540.912 48.4374 529.564 48.6644Z" fill="white"/>
<path fill-rule="evenodd" clip-rule="evenodd" d="M529.564 48.6644C524.57 48.8913 522.528 53.2037 522.755 55.9272C522.528 75.2191 522.528 94.511 522.301 113.576C523.209 118.796 526.386 120.839 532.06 121.066C542.954 120.839 553.622 120.839 564.516 120.612C570.19 119.023 570.417 115.392 570.417 112.895C570.417 110.398 569.736 106.313 564.516 105.859L540.685 105.632V91.5605C548.402 91.5605 553.849 91.5605 561.338 91.5605C567.466 91.1066 568.828 86.3403 568.601 84.0707C568.374 81.3471 568.374 77.4888 562.246 76.5809L540.685 76.127L540.912 63.19C548.855 62.9631 556.799 62.9631 564.743 62.7361C569.055 62.0552 570.417 57.7429 569.963 55.4733C569.509 52.9767 569.282 48.6644 562.7 48.2104C551.352 48.6644 540.912 48.4374 529.564 48.6644Z" fill="#970E0B"/>
<path d="M615.58 104.952L627.836 75.6741L640.092 104.952H615.58ZM595.153 104.952C593.337 104.952 591.522 104.952 589.706 104.952C582.897 104.952 581.535 109.946 581.535 112.669C581.535 114.939 583.578 120.386 589.252 120.386C614.672 120.386 640.092 120.386 665.512 120.386C673.455 119.478 673.909 114.712 673.909 111.988C673.909 109.492 673.002 104.952 665.285 104.498L659.838 104.271C651.894 87.0223 643.95 69.773 635.78 52.5238C634.191 48.2115 629.878 47.0767 627.155 47.0767C624.204 47.0767 620.573 48.2115 618.303 52.7508L595.153 104.952Z" fill="white"/>
<path d="M615.58 104.952L627.836 75.6741L640.092 104.952H615.58ZM595.153 104.952C593.337 104.952 591.522 104.952 589.706 104.952C582.897 104.952 581.535 109.946 581.535 112.669C581.535 114.939 583.578 120.386 589.252 120.386C614.672 120.386 640.092 120.386 665.512 120.386C673.455 119.478 673.909 114.712 673.909 111.988C673.909 109.492 673.002 104.952 665.285 104.498L659.838 104.271C651.894 87.0223 643.95 69.773 635.78 52.5238C634.191 48.2115 629.878 47.0767 627.155 47.0767C624.204 47.0767 620.573 48.2115 618.303 52.7508L595.153 104.952Z" fill="#970E0B"/>
<path fill-rule="evenodd" clip-rule="evenodd" d="M615.58 104.952L627.836 75.6741L640.092 104.952H615.58ZM595.153 104.952C593.337 104.952 591.522 104.952 589.706 104.952C582.897 104.952 581.535 109.946 581.535 112.669C581.535 114.939 583.578 120.386 589.252 120.386C614.672 120.386 640.092 120.386 665.512 120.386C673.455 119.478 673.909 114.712 673.909 111.988C673.909 109.492 673.002 104.952 665.285 104.498L659.838 104.271C651.894 87.0223 643.95 69.773 635.78 52.5238C634.191 48.2115 629.878 47.0767 627.155 47.0767C624.204 47.0767 620.573 48.2115 618.303 52.7508L595.153 104.952Z" fill="white"/>
<path fill-rule="evenodd" clip-rule="evenodd" d="M615.58 104.952L627.836 75.6741L640.092 104.952H615.58ZM595.153 104.952C593.337 104.952 591.522 104.952 589.706 104.952C582.897 104.952 581.535 109.946 581.535 112.669C581.535 114.939 583.578 120.386 589.252 120.386C614.672 120.386 640.092 120.386 665.512 120.386C673.455 119.478 673.909 114.712 673.909 111.988C673.909 109.492 673.002 104.952 665.285 104.498L659.838 104.271C651.894 87.0223 643.95 69.773 635.78 52.5238C634.191 48.2115 629.878 47.0767 627.155 47.0767C624.204 47.0767 620.573 48.2115 618.303 52.7508L595.153 104.952Z" fill="#970E0B"/>
<path d="M730.213 14.8485H735.661L732.937 6.22389L730.213 14.8485ZM727.263 23.2462H722.497L730.213 1.2307H735.434L743.15 23.2462H738.157L736.795 18.7069H728.852L727.263 23.2462ZM719.092 23.2462H714.553V5.08908H707.971V1.2307H725.674V5.08908H719.092V23.2462ZM698.892 11.4441C700.254 11.4441 701.162 10.9901 701.616 10.3092C702.07 9.62835 702.297 8.72049 702.297 7.81264C702.297 6.67782 702.07 5.99693 701.389 5.543C700.708 5.08908 699.8 4.86211 698.439 4.86211H694.807V11.2171H698.892V11.4441ZM694.807 23.2462H690.268V1.2307H700.254C701.616 1.2307 702.751 1.45766 703.886 2.13855C704.794 2.81944 705.701 3.50033 706.155 4.63515C706.609 5.76997 707.063 6.90478 707.063 8.26657C707.063 9.17442 706.836 10.0823 706.382 11.2171C705.928 12.3519 705.247 13.2598 704.34 14.1676C703.205 15.0755 701.843 15.3024 700.027 15.3024H694.807V23.2462ZM676.65 19.8417C677.331 19.8417 678.012 19.6147 678.693 19.3878C679.374 19.1608 680.055 18.7069 680.508 18.253C681.189 17.5721 681.643 16.8912 681.87 15.7564C682.324 14.8485 682.324 13.4867 682.324 12.1249C682.324 10.7632 682.097 9.40138 681.87 8.49353C681.416 7.58568 680.962 6.67782 680.508 5.99693C679.828 5.31604 679.374 5.08908 678.693 4.86211C678.012 4.63515 677.331 4.40819 676.65 4.40819C675.969 4.40819 675.288 4.63515 674.607 4.86211C673.926 5.08908 673.246 5.543 672.792 5.99693C672.111 6.67782 671.657 7.35871 671.43 8.26657C670.976 9.17442 670.976 10.5362 670.976 11.898C670.976 13.2598 671.203 14.6215 671.43 15.5294C671.884 16.4373 672.338 17.3451 672.792 17.799C673.473 18.4799 673.926 18.7069 674.607 18.9339C675.288 19.8417 675.969 19.8417 676.65 19.8417ZM676.65 0.549805C677.558 0.549805 678.693 0.776768 679.828 1.00373C680.962 1.2307 682.097 1.91159 683.232 2.59248C684.367 3.50033 685.275 4.63515 685.956 6.22389C686.636 7.81264 687.09 9.85531 687.09 12.1249C687.09 14.6215 686.636 16.4373 685.956 18.026C685.275 19.6147 684.367 20.7496 683.232 21.6574C682.097 22.5653 680.962 23.0192 679.828 23.2462C678.693 23.4731 677.785 23.7001 676.65 23.7001C675.742 23.7001 674.607 23.4731 673.473 23.2462C672.338 23.0192 671.203 22.3383 670.068 21.6574C668.933 20.7496 668.025 19.6147 667.345 18.026C666.664 16.4373 666.21 14.3946 666.21 12.1249C666.21 9.62835 666.664 7.81264 667.345 6.22389C668.025 4.63515 668.933 3.50033 670.068 2.59248C671.203 1.68462 672.338 1.2307 673.473 1.00373C674.607 0.776768 675.742 0.549805 676.65 0.549805ZM650.322 5.08908V23.2462H645.783V1.2307H663.259V23.2462H658.72V5.08908H650.322ZM638.52 8.49353C638.293 7.35871 637.839 6.45086 637.158 5.76997C636.477 5.08908 635.343 4.63515 633.754 4.63515C632.392 4.63515 631.03 5.31604 630.123 6.45086C628.988 7.58568 628.534 9.62835 628.534 12.3519C628.534 13.7137 628.761 15.0755 628.988 16.2103C629.442 17.3451 629.896 18.253 630.803 18.9339C631.711 19.6147 632.619 19.8417 633.754 19.8417C634.662 19.8417 635.343 19.6147 636.023 19.3878C636.704 19.1608 637.158 18.7069 637.612 18.026C638.066 17.3451 638.293 16.6642 638.52 15.7564H643.059C642.832 17.3451 642.152 18.7069 641.471 20.0687C640.563 21.2035 639.655 22.3383 638.293 23.0192C636.931 23.7001 635.343 23.9271 633.754 23.9271C631.711 23.9271 630.122 23.4731 628.534 22.5653C626.945 21.6574 625.81 20.2956 625.129 18.7069C624.221 16.8912 623.768 14.8485 623.768 12.3519C623.768 9.85531 624.221 7.81264 625.129 5.99693C626.037 4.18122 627.172 3.0464 628.761 2.13855C630.349 1.2307 631.938 0.776769 633.981 0.776769C635.57 0.776769 636.931 1.00373 638.066 1.45766C639.201 1.91159 640.109 2.59248 641.017 3.27337C641.698 3.95426 642.378 4.86211 642.832 5.76997C643.286 6.67782 643.513 7.58568 643.513 8.49353H638.52ZM580.417 16.4373L589.042 1.2307H593.808V23.2462H589.496V7.58568L580.644 23.2462H576.105V1.2307H580.417V16.4373ZM540.699 10.7632V4.86211H535.025C534.344 4.86211 533.663 5.08908 533.209 5.31604C532.755 5.543 532.301 5.99693 532.074 6.45086C531.847 6.90479 531.847 7.35871 531.847 7.81264C531.847 8.72049 532.074 9.62835 532.755 10.0823C533.436 10.5362 534.117 10.9901 535.479 10.9901H540.699V10.7632ZM545.238 23.2462H540.699V14.6215H537.748L532.301 23.2462H526.627L532.755 14.6215C531.166 14.3946 530.032 13.4867 528.897 12.3519C527.762 11.2171 527.308 9.62835 527.308 8.0396C527.308 6.90479 527.535 5.76997 528.216 4.86211C528.67 3.95426 529.578 3.0464 530.712 2.36551C531.847 1.68462 532.982 1.45766 534.344 1.45766H545.238V23.2462ZM514.598 12.8058V19.1608H518.229C519.591 19.1608 520.726 18.9339 521.18 18.4799C521.861 18.026 522.088 17.3451 522.088 16.2103C522.088 15.3024 521.861 14.6215 521.407 13.7137C520.953 13.0328 520.045 12.5789 518.683 12.5789H514.598V12.8058ZM514.598 9.17442H519.818C521.634 9.17442 522.996 9.62835 524.13 10.3092C525.265 11.2171 525.946 12.1249 526.173 13.2598C526.627 14.3946 526.854 15.3024 526.854 16.2103C526.854 17.5721 526.627 18.9339 525.946 19.8417C525.492 20.9765 524.584 21.6574 523.677 22.3383C522.769 23.0192 521.407 23.2462 520.045 23.2462H510.059V1.2307H514.598V9.17442ZM493.036 9.85531H498.257C499.165 9.85531 500.072 9.62835 500.526 9.17442C501.207 8.72049 501.434 8.26657 501.434 7.35871C501.434 6.45086 501.207 5.99693 500.526 5.543C500.072 5.08908 499.165 5.08908 498.03 5.08908H492.81V9.85531H493.036ZM493.036 19.3878H498.711C500.98 19.3878 502.115 18.253 502.115 16.2103C502.115 15.3024 501.888 14.6215 501.207 14.1676C500.526 13.7137 499.845 13.4867 498.938 13.4867H493.263V19.3878H493.036ZM488.724 1.2307H499.391C500.98 1.2307 502.342 1.45766 503.25 2.13855C504.158 2.81944 505.066 3.50033 505.293 4.40819C505.746 5.31604 505.973 6.2239 505.973 6.90479C505.973 8.26657 505.746 9.17442 505.293 9.85531C504.839 10.5362 504.158 10.9901 503.477 11.4441C505.746 12.3519 506.881 14.1676 506.881 16.6642C506.881 17.5721 506.654 18.253 506.427 19.1608C506.2 19.8417 505.746 20.5226 505.066 21.2035C504.612 21.6574 504.158 22.1113 503.704 22.3383C503.25 22.5653 502.569 22.7922 501.661 23.0192C500.753 23.2462 499.618 23.2462 498.257 23.2462H488.951V1.2307H488.724ZM475.333 19.8417C476.014 19.8417 476.695 19.6147 477.376 19.3878C478.057 19.1608 478.738 18.7069 479.192 18.253C479.873 17.5721 480.327 16.8912 480.553 15.7564C481.007 14.8485 481.007 13.4867 481.007 12.1249C481.007 10.7632 480.78 9.40138 480.553 8.49353C480.1 7.58568 479.646 6.67782 479.192 5.99693C478.511 5.31604 478.057 5.08908 477.376 4.86211C476.695 4.63515 476.014 4.40819 475.333 4.40819C474.652 4.40819 473.972 4.63515 473.291 4.86211C472.61 5.08908 471.929 5.543 471.475 5.99693C470.794 6.67782 470.34 7.35871 470.113 8.26657C469.659 9.17442 469.659 10.5362 469.659 11.898C469.659 13.2598 469.886 14.6215 470.113 15.5294C470.567 16.4373 471.021 17.3451 471.475 17.799C472.156 18.4799 472.61 18.7069 473.291 18.9339C473.972 19.8417 474.652 19.8417 475.333 19.8417ZM475.333 0.549805C476.241 0.549805 477.376 0.776768 478.511 1.00373C479.646 1.2307 480.78 1.91159 481.915 2.59248C483.05 3.50033 483.958 4.63515 484.639 6.22389C485.32 7.81264 485.774 9.85531 485.774 12.1249C485.774 14.6215 485.32 16.4373 484.639 18.026C483.958 19.6147 483.05 20.7496 481.915 21.6574C480.78 22.5653 479.646 23.0192 478.511 23.2462C477.376 23.4731 476.468 23.7001 475.333 23.7001C474.425 23.7001 473.291 23.4731 472.156 23.2462C471.021 23.0192 469.886 22.3383 468.751 21.6574C467.617 20.7496 466.709 19.6147 466.028 18.026C465.347 16.4373 464.893 14.3946 464.893 12.1249C464.893 9.62835 465.347 7.81264 466.028 6.22389C466.709 4.63515 467.617 3.50033 468.751 2.59248C469.886 1.68462 471.021 1.2307 472.156 1.00373C473.291 0.776768 474.425 0.549805 475.333 0.549805ZM454.907 11.4441C456.268 11.4441 457.176 10.9901 457.63 10.3092C458.084 9.62835 458.311 8.72049 458.311 7.81264C458.311 6.67782 458.084 5.99693 457.403 5.543C456.722 5.08908 455.814 4.86211 454.453 4.86211H450.821V11.2171H454.907V11.4441ZM450.821 23.2462H446.282V1.2307H456.268C457.63 1.2307 458.765 1.45766 459.9 2.13855C460.808 2.81944 461.716 3.50033 462.169 4.63515C462.623 5.76997 463.077 6.90478 463.077 8.26657C463.077 9.17442 462.85 10.0823 462.396 11.2171C461.942 12.3519 461.262 13.2598 460.354 14.1676C459.219 15.0755 457.857 15.3024 456.041 15.3024H450.821V23.2462ZM432.664 19.8417C433.345 19.8417 434.026 19.6147 434.707 19.3878C435.388 19.1608 436.069 18.7069 436.523 18.253C437.203 17.5721 437.657 16.8912 437.884 15.7564C438.338 14.8485 438.338 13.4867 438.338 12.1249C438.338 10.7632 438.111 9.40138 437.884 8.49353C437.43 7.58568 436.976 6.67782 436.523 5.99693C435.842 5.31604 435.388 5.08908 434.707 4.86211C434.026 4.63515 433.345 4.40819 432.664 4.40819C431.983 4.40819 431.302 4.63515 430.621 4.86211C429.941 5.08908 429.26 5.543 428.806 5.99693C428.125 6.67782 427.671 7.35871 427.444 8.26657C426.99 9.17442 426.99 10.5362 426.99 11.898C426.99 13.2598 427.217 14.6215 427.444 15.5294C427.898 16.4373 428.352 17.3451 428.806 17.799C429.487 18.4799 429.941 18.7069 430.621 18.9339C431.302 19.8417 431.983 19.8417 432.664 19.8417ZM432.664 0.549805C433.572 0.549805 434.707 0.776768 435.842 1.00373C436.977 1.2307 438.111 1.91159 439.246 2.59248C440.381 3.50033 441.289 4.63515 441.97 6.22389C442.651 7.81264 443.104 9.85531 443.104 12.1249C443.104 14.6215 442.651 16.4373 441.97 18.026C441.289 19.6147 440.381 20.7496 439.246 21.6574C438.111 22.5653 436.977 23.0192 435.842 23.2462C434.707 23.4731 433.799 23.7001 432.664 23.7001C431.756 23.7001 430.621 23.4731 429.487 23.2462C428.352 23.0192 427.217 22.3383 426.082 21.6574C424.947 20.7496 424.04 19.6147 423.359 18.026C422.678 16.4373 422.224 14.3946 422.224 12.1249C422.224 9.62835 422.678 7.81264 423.359 6.22389C424.04 4.63515 424.947 3.50033 426.082 2.59248C427.217 1.68462 428.352 1.2307 429.487 1.00373C430.848 0.776768 431.756 0.549805 432.664 0.549805ZM414.961 19.3878V5.08908H408.833V12.1249C408.833 14.1676 408.606 15.7564 408.379 16.6642C408.152 17.5721 407.698 18.4799 407.017 19.1608H414.961V19.3878ZM404.521 12.1249V1.2307H419.5V19.3878H421.543V27.3315H417.231V23.2462H405.202V27.3315H400.889V19.3878C401.57 19.3878 402.251 19.1608 402.705 18.7069C403.159 18.253 403.613 17.5721 403.84 16.4373C404.294 15.3024 404.521 13.9407 404.521 12.1249ZM397.031 11.4441C397.712 11.4441 398.393 11.898 399.301 12.1249C399.981 12.5789 400.662 13.2598 401.116 13.9407C401.57 14.6215 401.797 15.5294 401.797 16.6642C401.797 17.799 401.57 18.9339 400.889 20.0687C400.208 21.2035 399.301 21.8844 398.166 22.5653C396.804 23.2462 395.215 23.4731 393.173 23.4731C391.357 23.4731 389.768 23.2462 388.406 22.7922C387.045 22.3383 386.137 21.6574 385.456 20.9765C384.775 20.2956 384.321 19.3878 384.094 18.7069C383.867 17.799 383.64 17.1181 383.64 16.2103H387.952C387.952 16.6642 388.179 17.3451 388.406 17.799C388.633 18.253 389.087 18.7069 389.995 19.1608C390.676 19.6147 391.584 19.8417 392.946 19.8417C394.08 19.8417 394.988 19.6147 395.896 18.9339C396.804 18.253 397.031 17.5721 397.031 16.6642C397.031 15.9833 396.804 15.3024 396.35 14.8485C395.896 14.3946 395.442 13.9407 394.761 13.7137C394.08 13.4867 393.399 13.2598 392.719 13.2598H389.314V9.62835H392.719C393.853 9.62835 394.761 9.40139 395.442 8.94746C396.123 8.49353 396.577 7.81264 396.577 6.90479C396.577 6.45086 396.35 5.76997 396.123 5.543C395.896 5.08908 395.215 4.86211 394.761 4.63515C394.08 4.40819 393.399 4.40819 392.719 4.40819C391.584 4.40819 390.676 4.63515 389.995 5.08908C389.314 5.543 388.86 5.99693 388.86 6.45086C388.633 6.90479 388.633 7.35871 388.633 7.81264H384.321C384.321 6.67782 384.548 5.76997 385.229 4.63515C385.683 3.50033 386.591 2.59248 387.952 1.91159C389.314 1.2307 390.903 0.776769 392.946 0.776769C394.988 0.776769 396.804 1.2307 397.939 1.91159C399.301 2.59248 399.981 3.50033 400.662 4.40819C401.116 5.31604 401.343 6.45086 401.343 7.35871C401.343 8.72049 400.889 9.62835 400.208 10.3092C399.301 10.7632 398.166 11.2171 397.031 11.4441ZM349.596 10.7632V4.86211H343.921C343.241 4.86211 342.56 5.08908 342.106 5.31604C341.652 5.543 341.198 5.99693 340.971 6.45086C340.744 6.90479 340.744 7.35871 340.744 7.81264C340.744 8.72049 340.971 9.62835 341.652 10.0823C342.333 10.5362 343.014 10.9901 344.375 10.9901H349.596V10.7632ZM354.135 23.2462H349.596V14.6215H346.645L341.198 23.2462H335.524L341.652 14.6215C340.063 14.3946 338.928 13.4867 337.793 12.3519C336.659 11.2171 336.205 9.62835 336.205 8.0396C336.205 6.90479 336.432 5.76997 337.113 4.86211C337.566 3.95426 338.474 3.0464 339.609 2.36551C340.744 1.68462 341.879 1.45766 343.241 1.45766H354.135V23.2462ZM322.36 5.08908V16.2103C322.36 18.7069 321.679 20.5226 320.544 21.8844C319.409 23.2462 317.594 23.7001 315.324 23.7001V19.8417C316.459 19.8417 317.14 19.6147 317.594 18.9339C318.048 18.253 318.275 17.3451 318.275 16.4373V1.45766H333.254V23.4731H328.715V5.31604H322.36V5.08908ZM308.969 19.3878V5.08908H302.841V12.1249C302.841 14.1676 302.614 15.7564 302.387 16.6642C302.16 17.5721 301.706 18.4799 301.025 19.1608H308.969V19.3878ZM298.529 12.1249V1.2307H313.508V19.3878H315.551V27.3315H311.239V23.2462H299.21V27.3315H294.897V19.3878C295.578 19.3878 296.259 19.1608 296.713 18.7069C297.167 18.253 297.621 17.5721 297.848 16.4373C298.302 15.3024 298.529 13.9407 298.529 12.1249ZM253.59 9.85531H258.81C259.718 9.85531 260.626 9.62835 261.08 9.17442C261.761 8.72049 261.988 8.26657 261.988 7.35871C261.988 6.45086 261.761 5.99693 261.08 5.543C260.626 5.08908 259.718 5.08908 258.583 5.08908H253.363V9.85531H253.59ZM253.59 19.3878H259.264C261.534 19.3878 262.668 18.253 262.668 16.2103C262.668 15.3024 262.441 14.6215 261.761 14.1676C261.08 13.7137 260.399 13.4867 259.491 13.4867H253.817V19.3878H253.59ZM249.278 1.2307H259.945C261.534 1.2307 262.895 1.45766 263.803 2.13855C264.711 2.81944 265.619 3.50033 265.846 4.40819C266.3 5.31604 266.527 6.2239 266.527 6.90479C266.527 8.26657 266.3 9.17442 265.846 9.85531C265.392 10.5362 264.711 10.9901 264.03 11.4441C266.3 12.3519 267.435 14.1676 267.435 16.6642C267.435 17.5721 267.208 18.253 266.981 19.1608C266.754 19.8417 266.3 20.5226 265.619 21.2035C265.165 21.6574 264.711 22.1113 264.257 22.3383C263.803 22.5653 263.122 22.7922 262.215 23.0192C261.307 23.2462 260.172 23.2462 258.81 23.2462H249.505V1.2307H249.278ZM235.66 19.8417C236.341 19.8417 237.022 19.6147 237.702 19.3878C238.383 19.1608 239.064 18.7069 239.518 18.253C240.199 17.5721 240.653 16.8912 240.88 15.7564C241.334 14.8485 241.334 13.4867 241.334 12.1249C241.334 10.7632 241.107 9.40138 240.88 8.49353C240.426 7.58568 239.972 6.67782 239.518 5.99693C238.837 5.31604 238.383 5.08908 237.702 4.86211C237.022 4.63515 236.341 4.40819 235.66 4.40819C234.979 4.40819 234.298 4.63515 233.617 4.86211C232.936 5.08908 232.255 5.543 231.801 5.99693C231.121 6.67782 230.667 7.35871 230.44 8.26657C229.986 9.17442 229.986 10.5362 229.986 11.898C229.986 13.2598 230.213 14.6215 230.44 15.5294C230.894 16.4373 231.347 17.3451 231.801 17.799C232.482 18.4799 232.936 18.7069 233.617 18.9339C234.298 19.8417 234.979 19.8417 235.66 19.8417ZM235.66 0.549805C236.568 0.549805 237.702 0.776768 238.837 1.00373C239.972 1.2307 241.107 1.91159 242.242 2.59248C243.377 3.50033 244.284 4.63515 244.965 6.22389C245.646 7.81264 246.1 9.85531 246.1 12.1249C246.1 14.6215 245.646 16.4373 244.965 18.026C244.284 19.6147 243.377 20.7496 242.242 21.6574C241.107 22.5653 239.972 23.0192 238.837 23.2462C237.702 23.4731 236.795 23.7001 235.66 23.7001C234.752 23.7001 233.617 23.4731 232.482 23.2462C231.347 23.0192 230.213 22.3383 229.078 21.6574C227.943 20.7496 227.035 19.6147 226.354 18.026C225.673 16.4373 225.219 14.3946 225.219 12.1249C225.219 9.62835 225.673 7.81264 226.354 6.22389C227.035 4.63515 227.943 3.50033 229.078 2.59248C230.213 1.68462 231.347 1.2307 232.482 1.00373C233.844 0.776768 234.752 0.549805 235.66 0.549805ZM209.332 13.2598V23.0192H204.793V1.00373H209.332V9.40138H217.73V1.00373H222.269V23.0192H217.73V13.2598H209.332ZM191.629 19.8417C192.31 19.8417 192.991 19.6147 193.672 19.3878C194.352 19.1608 195.033 18.7069 195.487 18.253C196.168 17.5721 196.622 16.8912 196.849 15.7564C197.303 14.8485 197.303 13.4867 197.303 12.1249C197.303 10.7632 197.076 9.40138 196.849 8.49353C196.395 7.58568 195.941 6.67782 195.487 5.99693C194.806 5.31604 194.352 5.08908 193.672 4.86211C192.991 4.63515 192.31 4.40819 191.629 4.40819C190.948 4.40819 190.267 4.63515 189.586 4.86211C188.905 5.08908 188.224 5.543 187.77 5.99693C187.09 6.67782 186.636 7.35871 186.409 8.26657C185.955 9.17442 185.955 10.5362 185.955 11.898C185.955 13.2598 186.182 14.6215 186.409 15.5294C186.863 16.4373 187.317 17.3451 187.77 17.799C188.451 18.4799 188.905 18.7069 189.586 18.9339C190.267 19.8417 190.948 19.8417 191.629 19.8417ZM191.629 0.549805C192.537 0.549805 193.672 0.776768 194.806 1.00373C195.941 1.2307 197.076 1.91159 198.211 2.59248C199.346 3.50033 200.253 4.63515 200.934 6.22389C201.615 7.81264 202.069 9.85531 202.069 12.1249C202.069 14.6215 201.615 16.4373 200.934 18.026C200.253 19.6147 199.346 20.7496 198.211 21.6574C197.076 22.5653 195.941 23.0192 194.806 23.2462C193.672 23.4731 192.764 23.7001 191.629 23.7001C190.721 23.7001 189.586 23.4731 188.451 23.2462C187.317 23.0192 186.182 22.3383 185.047 21.6574C183.912 20.7496 183.004 19.6147 182.323 18.026C181.642 16.4373 181.189 14.3946 181.189 12.1249C181.189 9.62835 181.642 7.81264 182.323 6.22389C183.004 4.63515 183.912 3.50033 185.047 2.59248C186.182 1.68462 187.317 1.2307 188.451 1.00373C189.586 0.776768 190.721 0.549805 191.629 0.549805ZM167.571 5.08908V16.2103C167.571 18.7069 166.89 20.5226 165.755 21.8844C164.62 23.2462 162.804 23.7001 160.535 23.7001V19.8417C161.67 19.8417 162.351 19.6147 162.804 18.9339C163.258 18.253 163.485 17.3451 163.485 16.4373V1.45766H178.465V23.4731H173.926V5.31604H167.571V5.08908ZM147.144 14.8485H152.591L149.868 6.22389L147.144 14.8485ZM144.42 23.2462H139.654L147.371 1.2307H152.591L160.308 23.2462H155.315L153.953 18.7069H146.009L144.42 23.2462ZM134.888 8.49353C134.661 7.35871 134.207 6.45086 133.526 5.76997C132.845 5.08908 131.71 4.63515 130.122 4.63515C128.76 4.63515 127.398 5.31604 126.49 6.45086C125.355 7.58568 124.902 9.62835 124.902 12.3519C124.902 13.7137 125.129 15.0755 125.355 16.2103C125.809 17.3451 126.263 18.253 127.171 18.9339C128.079 19.6147 128.987 19.8417 130.122 19.8417C131.03 19.8417 131.71 19.6147 132.391 19.3878C133.072 19.1608 133.526 18.7069 133.98 18.026C134.434 17.3451 134.661 16.6642 134.888 15.7564H139.427C139.2 17.3451 138.519 18.7069 137.838 20.0687C136.931 21.2035 136.023 22.3383 134.661 23.0192C133.299 23.7001 131.71 23.9271 130.122 23.9271C128.079 23.9271 126.49 23.4731 124.902 22.5653C123.313 21.6574 122.178 20.2956 121.497 18.7069C120.589 16.8912 120.135 14.8485 120.135 12.3519C120.135 9.85531 120.589 7.81264 121.497 5.99693C122.405 4.18122 123.54 3.0464 125.129 2.13855C126.717 1.2307 128.306 0.776769 130.349 0.776769C131.937 0.776769 133.299 1.00373 134.434 1.45766C135.569 1.91159 136.477 2.59248 137.385 3.27337C138.065 3.95426 138.746 4.86211 139.2 5.76997C139.654 6.67782 139.881 7.58568 139.881 8.49353H134.888ZM78.828 12.8058V19.1608H82.4594C83.8212 19.1608 84.956 18.9339 85.4099 18.4799C86.0908 18.026 86.3177 17.3451 86.3177 16.2103C86.3177 15.3024 86.0908 14.6215 85.6369 13.7137C85.1829 13.0328 84.2751 12.5789 82.9133 12.5789H78.828V12.8058ZM78.828 9.17442H84.0481C85.8638 9.17442 87.2256 9.62835 88.3604 10.3092C89.4952 11.2171 90.1761 12.1249 90.4031 13.2598C90.857 14.3946 91.084 15.3024 91.084 16.2103C91.084 17.5721 90.857 18.9339 90.1761 19.8417C89.7222 20.9765 88.8144 21.6574 87.9065 22.3383C86.9986 23.0192 85.6369 23.2462 84.2751 23.2462H74.2887V1.2307H78.828V9.17442ZM65.6641 23.2462H61.1248V5.08908H54.5428V1.2307H72.246V5.08908H65.6641V23.2462ZM52.9541 5.08908H41.379V9.62835H52.0462V13.4867H41.379V19.1608H53.408V23.0192H36.8397V1.00373H52.7271V5.08908H52.9541ZM29.5769 8.49353C29.3499 7.35871 28.896 6.45086 28.2151 5.76997C27.5342 5.08908 26.3994 4.63515 24.8106 4.63515C23.4488 4.63515 22.0871 5.31604 21.1792 6.45086C20.0444 7.58568 19.5905 9.62835 19.5905 12.3519C19.5905 13.7137 19.8174 15.0755 20.0444 16.2103C20.4983 17.3451 20.9522 18.253 21.8601 18.9339C22.7679 19.6147 23.6758 19.8417 24.8106 19.8417C25.7185 19.8417 26.3994 19.6147 27.0803 19.3878C27.7611 19.1608 28.2151 18.7069 28.669 18.026C29.1229 17.3451 29.3499 16.6642 29.5769 15.7564H34.1161C33.8892 17.3451 33.2083 18.7069 32.5274 20.0687C31.6195 21.2035 30.7117 22.3383 29.3499 23.0192C27.9881 23.7001 26.3994 23.9271 24.8106 23.9271C22.7679 23.9271 21.1792 23.4731 19.5905 22.5653C18.0017 21.6574 16.8669 20.2956 16.186 18.7069C15.2781 16.8912 14.8242 14.8485 14.8242 12.3519C14.8242 9.85531 15.2781 7.81264 16.186 5.99693C17.0939 4.18122 18.2287 3.0464 19.8174 2.13855C21.4062 1.2307 22.9949 0.776769 25.0376 0.776769C26.6263 0.776769 27.9881 1.00373 29.1229 1.45766C30.2577 1.91159 31.1656 2.59248 32.0734 3.27337C32.7543 3.95426 33.4352 4.86211 33.8892 5.76997C34.3431 6.67782 34.5701 7.58568 34.5701 8.49353H29.5769Z" fill="white"/>
<path d="M730.213 14.8485H735.661L732.937 6.22389L730.213 14.8485ZM727.263 23.2462H722.497L730.213 1.2307H735.434L743.15 23.2462H738.157L736.795 18.7069H728.852L727.263 23.2462ZM719.092 23.2462H714.553V5.08908H707.971V1.2307H725.674V5.08908H719.092V23.2462ZM698.892 11.4441C700.254 11.4441 701.162 10.9901 701.616 10.3092C702.07 9.62835 702.297 8.72049 702.297 7.81264C702.297 6.67782 702.07 5.99693 701.389 5.543C700.708 5.08908 699.8 4.86211 698.439 4.86211H694.807V11.2171H698.892V11.4441ZM694.807 23.2462H690.268V1.2307H700.254C701.616 1.2307 702.751 1.45766 703.886 2.13855C704.794 2.81944 705.701 3.50033 706.155 4.63515C706.609 5.76997 707.063 6.90478 707.063 8.26657C707.063 9.17442 706.836 10.0823 706.382 11.2171C705.928 12.3519 705.247 13.2598 704.34 14.1676C703.205 15.0755 701.843 15.3024 700.027 15.3024H694.807V23.2462ZM676.65 19.8417C677.331 19.8417 678.012 19.6147 678.693 19.3878C679.374 19.1608 680.055 18.7069 680.508 18.253C681.189 17.5721 681.643 16.8912 681.87 15.7564C682.324 14.8485 682.324 13.4867 682.324 12.1249C682.324 10.7632 682.097 9.40138 681.87 8.49353C681.416 7.58568 680.962 6.67782 680.508 5.99693C679.828 5.31604 679.374 5.08908 678.693 4.86211C678.012 4.63515 677.331 4.40819 676.65 4.40819C675.969 4.40819 675.288 4.63515 674.607 4.86211C673.926 5.08908 673.246 5.543 672.792 5.99693C672.111 6.67782 671.657 7.35871 671.43 8.26657C670.976 9.17442 670.976 10.5362 670.976 11.898C670.976 13.2598 671.203 14.6215 671.43 15.5294C671.884 16.4373 672.338 17.3451 672.792 17.799C673.473 18.4799 673.926 18.7069 674.607 18.9339C675.288 19.8417 675.969 19.8417 676.65 19.8417ZM676.65 0.549805C677.558 0.549805 678.693 0.776768 679.828 1.00373C680.962 1.2307 682.097 1.91159 683.232 2.59248C684.367 3.50033 685.275 4.63515 685.956 6.22389C686.636 7.81264 687.09 9.85531 687.09 12.1249C687.09 14.6215 686.636 16.4373 685.956 18.026C685.275 19.6147 684.367 20.7496 683.232 21.6574C682.097 22.5653 680.962 23.0192 679.828 23.2462C678.693 23.4731 677.785 23.7001 676.65 23.7001C675.742 23.7001 674.607 23.4731 673.473 23.2462C672.338 23.0192 671.203 22.3383 670.068 21.6574C668.933 20.7496 668.025 19.6147 667.345 18.026C666.664 16.4373 666.21 14.3946 666.21 12.1249C666.21 9.62835 666.664 7.81264 667.345 6.22389C668.025 4.63515 668.933 3.50033 670.068 2.59248C671.203 1.68462 672.338 1.2307 673.473 1.00373C674.607 0.776768 675.742 0.549805 676.65 0.549805ZM650.322 5.08908V23.2462H645.783V1.2307H663.259V23.2462H658.72V5.08908H650.322ZM638.52 8.49353C638.293 7.35871 637.839 6.45086 637.158 5.76997C636.477 5.08908 635.343 4.63515 633.754 4.63515C632.392 4.63515 631.03 5.31604 630.123 6.45086C628.988 7.58568 628.534 9.62835 628.534 12.3519C628.534 13.7137 628.761 15.0755 628.988 16.2103C629.442 17.3451 629.896 18.253 630.803 18.9339C631.711 19.6147 632.619 19.8417 633.754 19.8417C634.662 19.8417 635.343 19.6147 636.023 19.3878C636.704 19.1608 637.158 18.7069 637.612 18.026C638.066 17.3451 638.293 16.6642 638.52 15.7564H643.059C642.832 17.3451 642.152 18.7069 641.471 20.0687C640.563 21.2035 639.655 22.3383 638.293 23.0192C636.931 23.7001 635.343 23.9271 633.754 23.9271C631.711 23.9271 630.122 23.4731 628.534 22.5653C626.945 21.6574 625.81 20.2956 625.129 18.7069C624.221 16.8912 623.768 14.8485 623.768 12.3519C623.768 9.85531 624.221 7.81264 625.129 5.99693C626.037 4.18122 627.172 3.0464 628.761 2.13855C630.349 1.2307 631.938 0.776769 633.981 0.776769C635.57 0.776769 636.931 1.00373 638.066 1.45766C639.201 1.91159 640.109 2.59248 641.017 3.27337C641.698 3.95426 642.378 4.86211 642.832 5.76997C643.286 6.67782 643.513 7.58568 643.513 8.49353H638.52ZM580.417 16.4373L589.042 1.2307H593.808V23.2462H589.496V7.58568L580.644 23.2462H576.105V1.2307H580.417V16.4373ZM540.699 10.7632V4.86211H535.025C534.344 4.86211 533.663 5.08908 533.209 5.31604C532.755 5.543 532.301 5.99693 532.074 6.45086C531.847 6.90479 531.847 7.35871 531.847 7.81264C531.847 8.72049 532.074 9.62835 532.755 10.0823C533.436 10.5362 534.117 10.9901 535.479 10.9901H540.699V10.7632ZM545.238 23.2462H540.699V14.6215H537.748L532.301 23.2462H526.627L532.755 14.6215C531.166 14.3946 530.032 13.4867 528.897 12.3519C527.762 11.2171 527.308 9.62835 527.308 8.0396C527.308 6.90479 527.535 5.76997 528.216 4.86211C528.67 3.95426 529.578 3.0464 530.712 2.36551C531.847 1.68462 532.982 1.45766 534.344 1.45766H545.238V23.2462ZM514.598 12.8058V19.1608H518.229C519.591 19.1608 520.726 18.9339 521.18 18.4799C521.861 18.026 522.088 17.3451 522.088 16.2103C522.088 15.3024 521.861 14.6215 521.407 13.7137C520.953 13.0328 520.045 12.5789 518.683 12.5789H514.598V12.8058ZM514.598 9.17442H519.818C521.634 9.17442 522.996 9.62835 524.13 10.3092C525.265 11.2171 525.946 12.1249 526.173 13.2598C526.627 14.3946 526.854 15.3024 526.854 16.2103C526.854 17.5721 526.627 18.9339 525.946 19.8417C525.492 20.9765 524.584 21.6574 523.677 22.3383C522.769 23.0192 521.407 23.2462 520.045 23.2462H510.059V1.2307H514.598V9.17442ZM493.036 9.85531H498.257C499.165 9.85531 500.072 9.62835 500.526 9.17442C501.207 8.72049 501.434 8.26657 501.434 7.35871C501.434 6.45086 501.207 5.99693 500.526 5.543C500.072 5.08908 499.165 5.08908 498.03 5.08908H492.81V9.85531H493.036ZM493.036 19.3878H498.711C500.98 19.3878 502.115 18.253 502.115 16.2103C502.115 15.3024 501.888 14.6215 501.207 14.1676C500.526 13.7137 499.845 13.4867 498.938 13.4867H493.263V19.3878H493.036ZM488.724 1.2307H499.391C500.98 1.2307 502.342 1.45766 503.25 2.13855C504.158 2.81944 505.066 3.50033 505.293 4.40819C505.746 5.31604 505.973 6.2239 505.973 6.90479C505.973 8.26657 505.746 9.17442 505.293 9.85531C504.839 10.5362 504.158 10.9901 503.477 11.4441C505.746 12.3519 506.881 14.1676 506.881 16.6642C506.881 17.5721 506.654 18.253 506.427 19.1608C506.2 19.8417 505.746 20.5226 505.066 21.2035C504.612 21.6574 504.158 22.1113 503.704 22.3383C503.25 22.5653 502.569 22.7922 501.661 23.0192C500.753 23.2462 499.618 23.2462 498.257 23.2462H488.951V1.2307H488.724ZM475.333 19.8417C476.014 19.8417 476.695 19.6147 477.376 19.3878C478.057 19.1608 478.738 18.7069 479.192 18.253C479.873 17.5721 480.327 16.8912 480.553 15.7564C481.007 14.8485 481.007 13.4867 481.007 12.1249C481.007 10.7632 480.78 9.40138 480.553 8.49353C480.1 7.58568 479.646 6.67782 479.192 5.99693C478.511 5.31604 478.057 5.08908 477.376 4.86211C476.695 4.63515 476.014 4.40819 475.333 4.40819C474.652 4.40819 473.972 4.63515 473.291 4.86211C472.61 5.08908 471.929 5.543 471.475 5.99693C470.794 6.67782 470.34 7.35871 470.113 8.26657C469.659 9.17442 469.659 10.5362 469.659 11.898C469.659 13.2598 469.886 14.6215 470.113 15.5294C470.567 16.4373 471.021 17.3451 471.475 17.799C472.156 18.4799 472.61 18.7069 473.291 18.9339C473.972 19.8417 474.652 19.8417 475.333 19.8417ZM475.333 0.549805C476.241 0.549805 477.376 0.776768 478.511 1.00373C479.646 1.2307 480.78 1.91159 481.915 2.59248C483.05 3.50033 483.958 4.63515 484.639 6.22389C485.32 7.81264 485.774 9.85531 485.774 12.1249C485.774 14.6215 485.32 16.4373 484.639 18.026C483.958 19.6147 483.05 20.7496 481.915 21.6574C480.78 22.5653 479.646 23.0192 478.511 23.2462C477.376 23.4731 476.468 23.7001 475.333 23.7001C474.425 23.7001 473.291 23.4731 472.156 23.2462C471.021 23.0192 469.886 22.3383 468.751 21.6574C467.617 20.7496 466.709 19.6147 466.028 18.026C465.347 16.4373 464.893 14.3946 464.893 12.1249C464.893 9.62835 465.347 7.81264 466.028 6.22389C466.709 4.63515 467.617 3.50033 468.751 2.59248C469.886 1.68462 471.021 1.2307 472.156 1.00373C473.291 0.776768 474.425 0.549805 475.333 0.549805ZM454.907 11.4441C456.268 11.4441 457.176 10.9901 457.63 10.3092C458.084 9.62835 458.311 8.72049 458.311 7.81264C458.311 6.67782 458.084 5.99693 457.403 5.543C456.722 5.08908 455.814 4.86211 454.453 4.86211H450.821V11.2171H454.907V11.4441ZM450.821 23.2462H446.282V1.2307H456.268C457.63 1.2307 458.765 1.45766 459.9 2.13855C460.808 2.81944 461.716 3.50033 462.169 4.63515C462.623 5.76997 463.077 6.90478 463.077 8.26657C463.077 9.17442 462.85 10.0823 462.396 11.2171C461.942 12.3519 461.262 13.2598 460.354 14.1676C459.219 15.0755 457.857 15.3024 456.041 15.3024H450.821V23.2462ZM432.664 19.8417C433.345 19.8417 434.026 19.6147 434.707 19.3878C435.388 19.1608 436.069 18.7069 436.523 18.253C437.203 17.5721 437.657 16.8912 437.884 15.7564C438.338 14.8485 438.338 13.4867 438.338 12.1249C438.338 10.7632 438.111 9.40138 437.884 8.49353C437.43 7.58568 436.976 6.67782 436.523 5.99693C435.842 5.31604 435.388 5.08908 434.707 4.86211C434.026 4.63515 433.345 4.40819 432.664 4.40819C431.983 4.40819 431.302 4.63515 430.621 4.86211C429.941 5.08908 429.26 5.543 428.806 5.99693C428.125 6.67782 427.671 7.35871 427.444 8.26657C426.99 9.17442 426.99 10.5362 426.99 11.898C426.99 13.2598 427.217 14.6215 427.444 15.5294C427.898 16.4373 428.352 17.3451 428.806 17.799C429.487 18.4799 429.941 18.7069 430.621 18.9339C431.302 19.8417 431.983 19.8417 432.664 19.8417ZM432.664 0.549805C433.572 0.549805 434.707 0.776768 435.842 1.00373C436.977 1.2307 438.111 1.91159 439.246 2.59248C440.381 3.50033 441.289 4.63515 441.97 6.22389C442.651 7.81264 443.104 9.85531 443.104 12.1249C443.104 14.6215 442.651 16.4373 441.97 18.026C441.289 19.6147 440.381 20.7496 439.246 21.6574C438.111 22.5653 436.977 23.0192 435.842 23.2462C434.707 23.4731 433.799 23.7001 432.664 23.7001C431.756 23.7001 430.621 23.4731 429.487 23.2462C428.352 23.0192 427.217 22.3383 426.082 21.6574C424.947 20.7496 424.04 19.6147 423.359 18.026C422.678 16.4373 422.224 14.3946 422.224 12.1249C422.224 9.62835 422.678 7.81264 423.359 6.22389C424.04 4.63515 424.947 3.50033 426.082 2.59248C427.217 1.68462 428.352 1.2307 429.487 1.00373C430.848 0.776768 431.756 0.549805 432.664 0.549805ZM414.961 19.3878V5.08908H408.833V12.1249C408.833 14.1676 408.606 15.7564 408.379 16.6642C408.152 17.5721 407.698 18.4799 407.017 19.1608H414.961V19.3878ZM404.521 12.1249V1.2307H419.5V19.3878H421.543V27.3315H417.231V23.2462H405.202V27.3315H400.889V19.3878C401.57 19.3878 402.251 19.1608 402.705 18.7069C403.159 18.253 403.613 17.5721 403.84 16.4373C404.294 15.3024 404.521 13.9407 404.521 12.1249ZM397.031 11.4441C397.712 11.4441 398.393 11.898 399.301 12.1249C399.981 12.5789 400.662 13.2598 401.116 13.9407C401.57 14.6215 401.797 15.5294 401.797 16.6642C401.797 17.799 401.57 18.9339 400.889 20.0687C400.208 21.2035 399.301 21.8844 398.166 22.5653C396.804 23.2462 395.215 23.4731 393.173 23.4731C391.357 23.4731 389.768 23.2462 388.406 22.7922C387.045 22.3383 386.137 21.6574 385.456 20.9765C384.775 20.2956 384.321 19.3878 384.094 18.7069C383.867 17.799 383.64 17.1181 383.64 16.2103H387.952C387.952 16.6642 388.179 17.3451 388.406 17.799C388.633 18.253 389.087 18.7069 389.995 19.1608C390.676 19.6147 391.584 19.8417 392.946 19.8417C394.08 19.8417 394.988 19.6147 395.896 18.9339C396.804 18.253 397.031 17.5721 397.031 16.6642C397.031 15.9833 396.804 15.3024 396.35 14.8485C395.896 14.3946 395.442 13.9407 394.761 13.7137C394.08 13.4867 393.399 13.2598 392.719 13.2598H389.314V9.62835H392.719C393.853 9.62835 394.761 9.40139 395.442 8.94746C396.123 8.49353 396.577 7.81264 396.577 6.90479C396.577 6.45086 396.35 5.76997 396.123 5.543C395.896 5.08908 395.215 4.86211 394.761 4.63515C394.08 4.40819 393.399 4.40819 392.719 4.40819C391.584 4.40819 390.676 4.63515 389.995 5.08908C389.314 5.543 388.86 5.99693 388.86 6.45086C388.633 6.90479 388.633 7.35871 388.633 7.81264H384.321C384.321 6.67782 384.548 5.76997 385.229 4.63515C385.683 3.50033 386.591 2.59248 387.952 1.91159C389.314 1.2307 390.903 0.776769 392.946 0.776769C394.988 0.776769 396.804 1.2307 397.939 1.91159C399.301 2.59248 399.981 3.50033 400.662 4.40819C401.116 5.31604 401.343 6.45086 401.343 7.35871C401.343 8.72049 400.889 9.62835 400.208 10.3092C399.301 10.7632 398.166 11.2171 397.031 11.4441ZM349.596 10.7632V4.86211H343.921C343.241 4.86211 342.56 5.08908 342.106 5.31604C341.652 5.543 341.198 5.99693 340.971 6.45086C340.744 6.90479 340.744 7.35871 340.744 7.81264C340.744 8.72049 340.971 9.62835 341.652 10.0823C342.333 10.5362 343.014 10.9901 344.375 10.9901H349.596V10.7632ZM354.135 23.2462H349.596V14.6215H346.645L341.198 23.2462H335.524L341.652 14.6215C340.063 14.3946 338.928 13.4867 337.793 12.3519C336.659 11.2171 336.205 9.62835 336.205 8.0396C336.205 6.90479 336.432 5.76997 337.113 4.86211C337.566 3.95426 338.474 3.0464 339.609 2.36551C340.744 1.68462 341.879 1.45766 343.241 1.45766H354.135V23.2462ZM322.36 5.08908V16.2103C322.36 18.7069 321.679 20.5226 320.544 21.8844C319.409 23.2462 317.594 23.7001 315.324 23.7001V19.8417C316.459 19.8417 317.14 19.6147 317.594 18.9339C318.048 18.253 318.275 17.3451 318.275 16.4373V1.45766H333.254V23.4731H328.715V5.31604H322.36V5.08908ZM308.969 19.3878V5.08908H302.841V12.1249C302.841 14.1676 302.614 15.7564 302.387 16.6642C302.16 17.5721 301.706 18.4799 301.025 19.1608H308.969V19.3878ZM298.529 12.1249V1.2307H313.508V19.3878H315.551V27.3315H311.239V23.2462H299.21V27.3315H294.897V19.3878C295.578 19.3878 296.259 19.1608 296.713 18.7069C297.167 18.253 297.621 17.5721 297.848 16.4373C298.302 15.3024 298.529 13.9407 298.529 12.1249ZM253.59 9.85531H258.81C259.718 9.85531 260.626 9.62835 261.08 9.17442C261.761 8.72049 261.988 8.26657 261.988 7.35871C261.988 6.45086 261.761 5.99693 261.08 5.543C260.626 5.08908 259.718 5.08908 258.583 5.08908H253.363V9.85531H253.59ZM253.59 19.3878H259.264C261.534 19.3878 262.668 18.253 262.668 16.2103C262.668 15.3024 262.441 14.6215 261.761 14.1676C261.08 13.7137 260.399 13.4867 259.491 13.4867H253.817V19.3878H253.59ZM249.278 1.2307H259.945C261.534 1.2307 262.895 1.45766 263.803 2.13855C264.711 2.81944 265.619 3.50033 265.846 4.40819C266.3 5.31604 266.527 6.2239 266.527 6.90479C266.527 8.26657 266.3 9.17442 265.846 9.85531C265.392 10.5362 264.711 10.9901 264.03 11.4441C266.3 12.3519 267.435 14.1676 267.435 16.6642C267.435 17.5721 267.208 18.253 266.981 19.1608C266.754 19.8417 266.3 20.5226 265.619 21.2035C265.165 21.6574 264.711 22.1113 264.257 22.3383C263.803 22.5653 263.122 22.7922 262.215 23.0192C261.307 23.2462 260.172 23.2462 258.81 23.2462H249.505V1.2307H249.278ZM235.66 19.8417C236.341 19.8417 237.022 19.6147 237.702 19.3878C238.383 19.1608 239.064 18.7069 239.518 18.253C240.199 17.5721 240.653 16.8912 240.88 15.7564C241.334 14.8485 241.334 13.4867 241.334 12.1249C241.334 10.7632 241.107 9.40138 240.88 8.49353C240.426 7.58568 239.972 6.67782 239.518 5.99693C238.837 5.31604 238.383 5.08908 237.702 4.86211C237.022 4.63515 236.341 4.40819 235.66 4.40819C234.979 4.40819 234.298 4.63515 233.617 4.86211C232.936 5.08908 232.255 5.543 231.801 5.99693C231.121 6.67782 230.667 7.35871 230.44 8.26657C229.986 9.17442 229.986 10.5362 229.986 11.898C229.986 13.2598 230.213 14.6215 230.44 15.5294C230.894 16.4373 231.347 17.3451 231.801 17.799C232.482 18.4799 232.936 18.7069 233.617 18.9339C234.298 19.8417 234.979 19.8417 235.66 19.8417ZM235.66 0.549805C236.568 0.549805 237.702 0.776768 238.837 1.00373C239.972 1.2307 241.107 1.91159 242.242 2.59248C243.377 3.50033 244.284 4.63515 244.965 6.22389C245.646 7.81264 246.1 9.85531 246.1 12.1249C246.1 14.6215 245.646 16.4373 244.965 18.026C244.284 19.6147 243.377 20.7496 242.242 21.6574C241.107 22.5653 239.972 23.0192 238.837 23.2462C237.702 23.4731 236.795 23.7001 235.66 23.7001C234.752 23.7001 233.617 23.4731 232.482 23.2462C231.347 23.0192 230.213 22.3383 229.078 21.6574C227.943 20.7496 227.035 19.6147 226.354 18.026C225.673 16.4373 225.219 14.3946 225.219 12.1249C225.219 9.62835 225.673 7.81264 226.354 6.22389C227.035 4.63515 227.943 3.50033 229.078 2.59248C230.213 1.68462 231.347 1.2307 232.482 1.00373C233.844 0.776768 234.752 0.549805 235.66 0.549805ZM209.332 13.2598V23.0192H204.793V1.00373H209.332V9.40138H217.73V1.00373H222.269V23.0192H217.73V13.2598H209.332ZM191.629 19.8417C192.31 19.8417 192.991 19.6147 193.672 19.3878C194.352 19.1608 195.033 18.7069 195.487 18.253C196.168 17.5721 196.622 16.8912 196.849 15.7564C197.303 14.8485 197.303 13.4867 197.303 12.1249C197.303 10.7632 197.076 9.40138 196.849 8.49353C196.395 7.58568 195.941 6.67782 195.487 5.99693C194.806 5.31604 194.352 5.08908 193.672 4.86211C192.991 4.63515 192.31 4.40819 191.629 4.40819C190.948 4.40819 190.267 4.63515 189.586 4.86211C188.905 5.08908 188.224 5.543 187.77 5.99693C187.09 6.67782 186.636 7.35871 186.409 8.26657C185.955 9.17442 185.955 10.5362 185.955 11.898C185.955 13.2598 186.182 14.6215 186.409 15.5294C186.863 16.4373 187.317 17.3451 187.77 17.799C188.451 18.4799 188.905 18.7069 189.586 18.9339C190.267 19.8417 190.948 19.8417 191.629 19.8417ZM191.629 0.549805C192.537 0.549805 193.672 0.776768 194.806 1.00373C195.941 1.2307 197.076 1.91159 198.211 2.59248C199.346 3.50033 200.253 4.63515 200.934 6.22389C201.615 7.81264 202.069 9.85531 202.069 12.1249C202.069 14.6215 201.615 16.4373 200.934 18.026C200.253 19.6147 199.346 20.7496 198.211 21.6574C197.076 22.5653 195.941 23.0192 194.806 23.2462C193.672 23.4731 192.764 23.7001 191.629 23.7001C190.721 23.7001 189.586 23.4731 188.451 23.2462C187.317 23.0192 186.182 22.3383 185.047 21.6574C183.912 20.7496 183.004 19.6147 182.323 18.026C181.642 16.4373 181.189 14.3946 181.189 12.1249C181.189 9.62835 181.642 7.81264 182.323 6.22389C183.004 4.63515 183.912 3.50033 185.047 2.59248C186.182 1.68462 187.317 1.2307 188.451 1.00373C189.586 0.776768 190.721 0.549805 191.629 0.549805ZM167.571 5.08908V16.2103C167.571 18.7069 166.89 20.5226 165.755 21.8844C164.62 23.2462 162.804 23.7001 160.535 23.7001V19.8417C161.67 19.8417 162.351 19.6147 162.804 18.9339C163.258 18.253 163.485 17.3451 163.485 16.4373V1.45766H178.465V23.4731H173.926V5.31604H167.571V5.08908ZM147.144 14.8485H152.591L149.868 6.22389L147.144 14.8485ZM144.42 23.2462H139.654L147.371 1.2307H152.591L160.308 23.2462H155.315L153.953 18.7069H146.009L144.42 23.2462ZM134.888 8.49353C134.661 7.35871 134.207 6.45086 133.526 5.76997C132.845 5.08908 131.71 4.63515 130.122 4.63515C128.76 4.63515 127.398 5.31604 126.49 6.45086C125.355 7.58568 124.902 9.62835 124.902 12.3519C124.902 13.7137 125.129 15.0755 125.355 16.2103C125.809 17.3451 126.263 18.253 127.171 18.9339C128.079 19.6147 128.987 19.8417 130.122 19.8417C131.03 19.8417 131.71 19.6147 132.391 19.3878C133.072 19.1608 133.526 18.7069 133.98 18.026C134.434 17.3451 134.661 16.6642 134.888 15.7564H139.427C139.2 17.3451 138.519 18.7069 137.838 20.0687C136.931 21.2035 136.023 22.3383 134.661 23.0192C133.299 23.7001 131.71 23.9271 130.122 23.9271C128.079 23.9271 126.49 23.4731 124.902 22.5653C123.313 21.6574 122.178 20.2956 121.497 18.7069C120.589 16.8912 120.135 14.8485 120.135 12.3519C120.135 9.85531 120.589 7.81264 121.497 5.99693C122.405 4.18122 123.54 3.0464 125.129 2.13855C126.717 1.2307 128.306 0.776769 130.349 0.776769C131.937 0.776769 133.299 1.00373 134.434 1.45766C135.569 1.91159 136.477 2.59248 137.385 3.27337C138.065 3.95426 138.746 4.86211 139.2 5.76997C139.654 6.67782 139.881 7.58568 139.881 8.49353H134.888ZM78.828 12.8058V19.1608H82.4594C83.8212 19.1608 84.956 18.9339 85.4099 18.4799C86.0908 18.026 86.3177 17.3451 86.3177 16.2103C86.3177 15.3024 86.0908 14.6215 85.6369 13.7137C85.1829 13.0328 84.2751 12.5789 82.9133 12.5789H78.828V12.8058ZM78.828 9.17442H84.0481C85.8638 9.17442 87.2256 9.62835 88.3604 10.3092C89.4952 11.2171 90.1761 12.1249 90.4031 13.2598C90.857 14.3946 91.084 15.3024 91.084 16.2103C91.084 17.5721 90.857 18.9339 90.1761 19.8417C89.7222 20.9765 88.8144 21.6574 87.9065 22.3383C86.9986 23.0192 85.6369 23.2462 84.2751 23.2462H74.2887V1.2307H78.828V9.17442ZM65.6641 23.2462H61.1248V5.08908H54.5428V1.2307H72.246V5.08908H65.6641V23.2462ZM52.9541 5.08908H41.379V9.62835H52.0462V13.4867H41.379V19.1608H53.408V23.0192H36.8397V1.00373H52.7271V5.08908H52.9541ZM29.5769 8.49353C29.3499 7.35871 28.896 6.45086 28.2151 5.76997C27.5342 5.08908 26.3994 4.63515 24.8106 4.63515C23.4488 4.63515 22.0871 5.31604 21.1792 6.45086C20.0444 7.58568 19.5905 9.62835 19.5905 12.3519C19.5905 13.7137 19.8174 15.0755 20.0444 16.2103C20.4983 17.3451 20.9522 18.253 21.8601 18.9339C22.7679 19.6147 23.6758 19.8417 24.8106 19.8417C25.7185 19.8417 26.3994 19.6147 27.0803 19.3878C27.7611 19.1608 28.2151 18.7069 28.669 18.026C29.1229 17.3451 29.3499 16.6642 29.5769 15.7564H34.1161C33.8892 17.3451 33.2083 18.7069 32.5274 20.0687C31.6195 21.2035 30.7117 22.3383 29.3499 23.0192C27.9881 23.7001 26.3994 23.9271 24.8106 23.9271C22.7679 23.9271 21.1792 23.4731 19.5905 22.5653C18.0017 21.6574 16.8669 20.2956 16.186 18.7069C15.2781 16.8912 14.8242 14.8485 14.8242 12.3519C14.8242 9.85531 15.2781 7.81264 16.186 5.99693C17.0939 4.18122 18.2287 3.0464 19.8174 2.13855C21.4062 1.2307 22.9949 0.776769 25.0376 0.776769C26.6263 0.776769 27.9881 1.00373 29.1229 1.45766C30.2577 1.91159 31.1656 2.59248 32.0734 3.27337C32.7543 3.95426 33.4352 4.86211 33.8892 5.76997C34.3431 6.67782 34.5701 7.58568 34.5701 8.49353H29.5769Z" fill="#970E0B"/>
<path d="M734.064 164.19H739.511L736.787 155.565L734.064 164.19ZM731.567 172.587H726.801L734.291 150.572H739.511L747.001 172.587H742.234L740.873 168.048H732.929L731.567 172.587ZM713.637 172.587H709.098V150.572H713.637V159.424L721.808 150.572H727.482L718.857 159.651L727.936 172.587H722.262L715.68 163.055L713.637 165.325V172.587ZM691.395 165.779L699.792 150.572H704.559V172.587H700.473V156.927L691.849 172.587H687.309V150.572H691.395V165.779ZM678.458 172.587H673.918V154.43H667.563V150.572H684.813V154.43H678.458V172.587ZM654.627 172.587H650.087V150.572H654.627V159.424L662.797 150.572H668.471L659.847 159.651L668.925 172.587H663.251L656.669 163.055L654.627 165.325V172.587ZM634.2 164.19H639.647L636.923 155.565L634.2 164.19ZM631.476 172.587H626.71L634.2 150.572H639.42L646.91 172.587H642.144L640.782 168.048H633.065L631.476 172.587ZM613.773 154.43V165.552C613.773 168.048 613.092 169.864 611.957 171.226C610.823 172.587 609.007 173.041 606.737 173.041V168.956C607.872 168.956 608.553 168.729 609.007 168.048C609.461 167.367 609.688 166.459 609.688 165.552V150.572H624.213V172.587H619.674V154.43H613.773ZM591.304 165.779L599.701 150.572H604.468V172.587H600.382V156.927L591.758 172.587H587.218V150.572H591.304V165.779ZM569.969 166.686V156.473C568.607 156.473 567.246 156.927 566.338 157.608C565.203 158.289 564.749 159.651 564.749 161.466C564.749 163.282 565.203 164.644 566.338 165.325C567.246 166.232 568.38 166.686 569.969 166.686ZM574.281 156.473V166.686C575.189 166.686 575.87 166.459 576.778 166.232C577.686 166.006 578.14 165.325 578.821 164.644C579.275 163.963 579.729 162.828 579.729 161.693C579.729 160.331 579.502 159.424 578.821 158.743C578.367 158.062 577.686 157.381 576.778 157.154C576.097 156.473 575.189 156.473 574.281 156.473ZM574.281 152.842C575.643 152.842 577.232 153.069 578.594 153.749C579.956 154.203 581.317 155.111 582.225 156.473C583.133 157.835 583.814 159.424 583.814 161.466C583.814 163.055 583.587 164.417 582.906 165.552C582.225 166.686 581.544 167.594 580.636 168.275C579.729 168.956 578.594 169.41 577.459 169.637C576.324 169.864 575.189 170.091 574.281 170.091V172.36H569.742V170.091C568.607 170.091 567.7 169.864 566.565 169.637C565.43 169.41 564.295 168.956 563.387 168.275C562.479 167.594 561.572 166.686 560.891 165.552C560.21 164.417 559.983 163.055 559.983 161.466C559.983 159.878 560.21 158.516 560.891 157.381C561.572 156.246 562.252 155.338 563.387 154.657C564.295 153.976 565.43 153.523 566.565 153.296C567.7 153.069 568.834 152.842 569.742 152.842V150.572H574.281V152.842ZM547.5 169.183C548.181 169.183 548.862 168.956 549.542 168.729C550.223 168.502 550.904 168.048 551.358 167.594C552.039 166.913 552.493 166.232 552.72 165.098C553.174 164.19 553.174 162.828 553.174 161.466C553.174 160.104 552.947 158.743 552.72 157.835C552.266 156.927 551.812 156.019 551.358 155.338C550.677 154.657 550.223 154.43 549.542 154.203C548.862 153.976 548.181 153.749 547.5 153.749C546.819 153.749 546.138 153.976 545.457 154.203C544.776 154.43 544.095 154.884 543.641 155.338C542.96 156.019 542.507 156.7 542.28 157.608C541.826 158.516 541.826 159.878 541.826 161.239C541.826 162.601 542.053 163.963 542.28 164.871C542.734 165.779 543.187 166.686 543.641 167.14C544.322 167.821 544.776 168.048 545.457 168.275C546.138 168.956 546.819 169.183 547.5 169.183ZM547.5 149.891C548.408 149.891 549.542 150.118 550.45 150.345C551.585 150.572 552.72 151.253 553.628 151.934C554.763 152.842 555.67 153.976 556.351 155.565C557.032 157.154 557.486 159.197 557.486 161.466C557.486 163.963 557.032 165.779 556.351 167.367C555.67 168.956 554.763 170.091 553.628 170.999C552.493 171.907 551.358 172.361 550.223 172.587C549.089 172.814 548.181 173.041 547.273 173.041C546.365 173.041 545.457 172.814 544.322 172.587C543.187 172.361 542.053 171.68 540.918 170.999C539.783 170.091 538.875 168.956 538.194 167.367C537.513 165.779 537.059 163.736 537.059 161.466C537.059 158.97 537.513 157.154 538.194 155.565C538.875 153.976 539.783 152.842 540.918 151.934C542.053 151.026 543.187 150.572 544.322 150.345C545.457 150.118 546.592 149.891 547.5 149.891ZM527.073 160.785C528.435 160.785 529.343 160.331 529.797 159.651C530.25 158.97 530.477 158.062 530.477 157.154C530.477 156.019 530.25 155.338 529.57 154.884C528.889 154.43 527.981 154.203 526.619 154.203H523.215V160.558H527.073V160.785ZM522.988 172.587H518.448V150.572H528.208C529.57 150.572 530.704 150.799 531.612 151.48C532.52 152.161 533.428 152.842 533.882 153.976C534.336 155.111 534.563 156.246 534.563 157.608C534.563 158.516 534.336 159.424 533.882 160.558C533.428 161.693 532.747 162.601 531.839 163.509C530.931 164.417 529.57 164.644 527.754 164.644H522.761V172.587H522.988ZM501.426 154.43V172.587H496.887V150.572H513.909V172.587H509.37V154.43H501.426ZM444.004 160.104V154.203H438.557C437.876 154.203 437.195 154.43 436.741 154.657C436.288 154.884 435.834 155.338 435.607 155.792C435.38 156.246 435.38 156.7 435.38 157.154C435.38 158.062 435.607 158.97 436.288 159.424C436.968 159.878 437.649 160.331 438.784 160.331H444.004V160.104ZM448.544 172.587H444.231V163.963H441.281L435.834 172.587H430.387L436.288 163.963C434.926 163.736 433.564 162.828 432.429 161.693C431.294 160.558 430.84 158.97 430.84 157.381C430.84 156.246 431.067 155.111 431.748 154.203C432.202 153.296 433.11 152.388 434.018 151.707C434.926 151.026 436.288 150.799 437.422 150.799H448.09V172.587H448.544ZM414.272 165.779L422.67 150.572H427.436V172.587H423.351V156.927L414.726 172.587H410.187V150.572H414.272V165.779ZM403.832 172.587H388.852V150.572H393.391V168.729H401.562V150.572H406.101V168.729H408.144V176.673H403.832V172.587ZM373.419 164.19H378.866L376.142 155.565L373.419 164.19ZM370.695 172.587H365.929L373.419 150.572H378.639L386.129 172.587H381.362L380.001 168.048H372.057L370.695 172.587ZM361.844 172.587H357.304V154.43H350.949V150.572H368.199V154.43H361.844V172.587ZM335.516 165.779L343.913 150.572H348.68V172.587H344.594V156.927L335.97 172.587H331.43V150.572H335.516V165.779ZM316.905 154.43V165.552C316.905 168.048 316.224 169.864 315.089 171.226C313.954 172.587 312.138 173.041 309.869 173.041V168.956C311.004 168.956 311.685 168.729 312.138 168.048C312.592 167.367 312.819 166.459 312.819 165.552V150.572H327.345V172.587H322.806V154.43H316.905ZM294.435 165.779L302.833 150.572H307.599V172.587H303.514V156.927L294.889 172.587H290.35V150.572H294.435V165.779ZM273.555 162.828V168.729H279.229C280.137 168.729 281.044 168.502 281.498 168.048C282.179 167.594 282.406 166.913 282.406 166.006C282.406 165.098 282.179 164.417 281.498 163.736C280.818 163.282 280.137 162.828 279.229 162.828H273.555ZM273.555 158.97H279.229C280.591 158.97 281.952 159.197 283.087 159.651C284.222 160.104 285.13 161.012 285.811 161.92C286.492 162.828 286.719 164.19 286.719 165.552C286.719 166.913 286.492 168.048 285.811 169.183C285.13 170.091 284.222 170.999 283.087 171.453C281.952 171.907 280.591 172.134 279.229 172.134H269.469V150.118H285.357V153.976H273.555V158.97ZM253.582 164.19H259.029L256.305 155.565L253.582 164.19ZM250.858 172.587H246.092L253.582 150.572H258.802L266.292 172.587H261.526L260.164 168.048H252.447L250.858 172.587ZM243.822 154.43H232.474V158.97H242.915V162.828H232.474V168.502H244.276V172.36H228.162V150.345H243.822V154.43ZM217.041 160.785C218.403 160.785 219.31 160.331 219.764 159.651C220.218 158.97 220.445 158.062 220.445 157.154C220.445 156.019 220.218 155.338 219.537 154.884C218.856 154.43 217.949 154.203 216.587 154.203H213.182V160.558H217.041V160.785ZM212.955 172.587H208.416V150.572H218.176C219.537 150.572 220.672 150.799 221.58 151.48C222.488 152.161 223.396 152.842 223.85 153.976C224.304 155.111 224.531 156.246 224.531 157.608C224.531 158.516 224.304 159.424 223.85 160.558C223.396 161.693 222.715 162.601 221.807 163.509C220.899 164.417 219.537 164.644 217.722 164.644H212.728V172.587H212.955ZM160.073 154.43H148.725V158.97H159.165V162.828H148.725V168.502H160.527V172.36H144.412V150.345H160.073V154.43ZM127.163 165.779L135.561 150.572H140.327V172.587H136.015V156.927L127.39 172.587H122.851V150.572H126.936V165.779H127.163ZM106.056 162.601V172.36H101.516V150.345H106.056V158.743H114.226V150.345H118.766V172.36H114.226V162.601H106.056ZM97.6579 154.43H86.3097V158.97H96.7501V162.828H86.3097V168.502H98.1118V172.36H81.9974V150.345H97.6579V154.43ZM60.6629 157.608V150.572H65.2021V157.608C65.2021 158.516 65.4291 159.424 66.11 159.877C66.7909 160.331 67.4717 160.558 68.3796 160.558C69.2875 160.558 69.9684 160.331 70.8762 160.104C71.7841 159.878 72.6919 159.424 73.3728 158.97V150.572H77.9121V172.587H73.3728V162.828C71.3301 163.963 69.0605 164.644 67.0178 164.644C65.2021 164.644 63.6134 164.19 62.4785 163.055C61.3437 161.693 60.6629 159.877 60.6629 157.608ZM56.8045 154.43H45.4563V158.97H55.8966V162.828H45.4563V168.502H57.2584V172.36H41.144V150.345H56.8045V154.43ZM26.3913 154.43V165.552C26.3913 168.048 25.7105 169.864 24.5756 171.226C23.4408 172.587 21.6251 173.041 19.3555 173.041V168.956C20.4903 168.956 21.1712 168.729 21.6251 168.048C22.079 167.367 22.306 166.459 22.306 165.552V150.572H36.8317V172.587H32.2924V154.43H26.3913Z" fill="white"/>
<path d="M734.064 164.19H739.511L736.787 155.565L734.064 164.19ZM731.567 172.587H726.801L734.291 150.572H739.511L747.001 172.587H742.234L740.873 168.048H732.929L731.567 172.587ZM713.637 172.587H709.098V150.572H713.637V159.424L721.808 150.572H727.482L718.857 159.651L727.936 172.587H722.262L715.68 163.055L713.637 165.325V172.587ZM691.395 165.779L699.792 150.572H704.559V172.587H700.473V156.927L691.849 172.587H687.309V150.572H691.395V165.779ZM678.458 172.587H673.918V154.43H667.563V150.572H684.813V154.43H678.458V172.587ZM654.627 172.587H650.087V150.572H654.627V159.424L662.797 150.572H668.471L659.847 159.651L668.925 172.587H663.251L656.669 163.055L654.627 165.325V172.587ZM634.2 164.19H639.647L636.923 155.565L634.2 164.19ZM631.476 172.587H626.71L634.2 150.572H639.42L646.91 172.587H642.144L640.782 168.048H633.065L631.476 172.587ZM613.773 154.43V165.552C613.773 168.048 613.092 169.864 611.957 171.226C610.823 172.587 609.007 173.041 606.737 173.041V168.956C607.872 168.956 608.553 168.729 609.007 168.048C609.461 167.367 609.688 166.459 609.688 165.552V150.572H624.213V172.587H619.674V154.43H613.773ZM591.304 165.779L599.701 150.572H604.468V172.587H600.382V156.927L591.758 172.587H587.218V150.572H591.304V165.779ZM569.969 166.686V156.473C568.607 156.473 567.246 156.927 566.338 157.608C565.203 158.289 564.749 159.651 564.749 161.466C564.749 163.282 565.203 164.644 566.338 165.325C567.246 166.232 568.38 166.686 569.969 166.686ZM574.281 156.473V166.686C575.189 166.686 575.87 166.459 576.778 166.232C577.686 166.006 578.14 165.325 578.821 164.644C579.275 163.963 579.729 162.828 579.729 161.693C579.729 160.331 579.502 159.424 578.821 158.743C578.367 158.062 577.686 157.381 576.778 157.154C576.097 156.473 575.189 156.473 574.281 156.473ZM574.281 152.842C575.643 152.842 577.232 153.069 578.594 153.749C579.956 154.203 581.317 155.111 582.225 156.473C583.133 157.835 583.814 159.424 583.814 161.466C583.814 163.055 583.587 164.417 582.906 165.552C582.225 166.686 581.544 167.594 580.636 168.275C579.729 168.956 578.594 169.41 577.459 169.637C576.324 169.864 575.189 170.091 574.281 170.091V172.36H569.742V170.091C568.607 170.091 567.7 169.864 566.565 169.637C565.43 169.41 564.295 168.956 563.387 168.275C562.479 167.594 561.572 166.686 560.891 165.552C560.21 164.417 559.983 163.055 559.983 161.466C559.983 159.878 560.21 158.516 560.891 157.381C561.572 156.246 562.252 155.338 563.387 154.657C564.295 153.976 565.43 153.523 566.565 153.296C567.7 153.069 568.834 152.842 569.742 152.842V150.572H574.281V152.842ZM547.5 169.183C548.181 169.183 548.862 168.956 549.542 168.729C550.223 168.502 550.904 168.048 551.358 167.594C552.039 166.913 552.493 166.232 552.72 165.098C553.174 164.19 553.174 162.828 553.174 161.466C553.174 160.104 552.947 158.743 552.72 157.835C552.266 156.927 551.812 156.019 551.358 155.338C550.677 154.657 550.223 154.43 549.542 154.203C548.862 153.976 548.181 153.749 547.5 153.749C546.819 153.749 546.138 153.976 545.457 154.203C544.776 154.43 544.095 154.884 543.641 155.338C542.96 156.019 542.507 156.7 542.28 157.608C541.826 158.516 541.826 159.878 541.826 161.239C541.826 162.601 542.053 163.963 542.28 164.871C542.734 165.779 543.187 166.686 543.641 167.14C544.322 167.821 544.776 168.048 545.457 168.275C546.138 168.956 546.819 169.183 547.5 169.183ZM547.5 149.891C548.408 149.891 549.542 150.118 550.45 150.345C551.585 150.572 552.72 151.253 553.628 151.934C554.763 152.842 555.67 153.976 556.351 155.565C557.032 157.154 557.486 159.197 557.486 161.466C557.486 163.963 557.032 165.779 556.351 167.367C555.67 168.956 554.763 170.091 553.628 170.999C552.493 171.907 551.358 172.361 550.223 172.587C549.089 172.814 548.181 173.041 547.273 173.041C546.365 173.041 545.457 172.814 544.322 172.587C543.187 172.361 542.053 171.68 540.918 170.999C539.783 170.091 538.875 168.956 538.194 167.367C537.513 165.779 537.059 163.736 537.059 161.466C537.059 158.97 537.513 157.154 538.194 155.565C538.875 153.976 539.783 152.842 540.918 151.934C542.053 151.026 543.187 150.572 544.322 150.345C545.457 150.118 546.592 149.891 547.5 149.891ZM527.073 160.785C528.435 160.785 529.343 160.331 529.797 159.651C530.25 158.97 530.477 158.062 530.477 157.154C530.477 156.019 530.25 155.338 529.57 154.884C528.889 154.43 527.981 154.203 526.619 154.203H523.215V160.558H527.073V160.785ZM522.988 172.587H518.448V150.572H528.208C529.57 150.572 530.704 150.799 531.612 151.48C532.52 152.161 533.428 152.842 533.882 153.976C534.336 155.111 534.563 156.246 534.563 157.608C534.563 158.516 534.336 159.424 533.882 160.558C533.428 161.693 532.747 162.601 531.839 163.509C530.931 164.417 529.57 164.644 527.754 164.644H522.761V172.587H522.988ZM501.426 154.43V172.587H496.887V150.572H513.909V172.587H509.37V154.43H501.426ZM444.004 160.104V154.203H438.557C437.876 154.203 437.195 154.43 436.741 154.657C436.288 154.884 435.834 155.338 435.607 155.792C435.38 156.246 435.38 156.7 435.38 157.154C435.38 158.062 435.607 158.97 436.288 159.424C436.968 159.878 437.649 160.331 438.784 160.331H444.004V160.104ZM448.544 172.587H444.231V163.963H441.281L435.834 172.587H430.387L436.288 163.963C434.926 163.736 433.564 162.828 432.429 161.693C431.294 160.558 430.84 158.97 430.84 157.381C430.84 156.246 431.067 155.111 431.748 154.203C432.202 153.296 433.11 152.388 434.018 151.707C434.926 151.026 436.288 150.799 437.422 150.799H448.09V172.587H448.544ZM414.272 165.779L422.67 150.572H427.436V172.587H423.351V156.927L414.726 172.587H410.187V150.572H414.272V165.779ZM403.832 172.587H388.852V150.572H393.391V168.729H401.562V150.572H406.101V168.729H408.144V176.673H403.832V172.587ZM373.419 164.19H378.866L376.142 155.565L373.419 164.19ZM370.695 172.587H365.929L373.419 150.572H378.639L386.129 172.587H381.362L380.001 168.048H372.057L370.695 172.587ZM361.844 172.587H357.304V154.43H350.949V150.572H368.199V154.43H361.844V172.587ZM335.516 165.779L343.913 150.572H348.68V172.587H344.594V156.927L335.97 172.587H331.43V150.572H335.516V165.779ZM316.905 154.43V165.552C316.905 168.048 316.224 169.864 315.089 171.226C313.954 172.587 312.138 173.041 309.869 173.041V168.956C311.004 168.956 311.685 168.729 312.138 168.048C312.592 167.367 312.819 166.459 312.819 165.552V150.572H327.345V172.587H322.806V154.43H316.905ZM294.435 165.779L302.833 150.572H307.599V172.587H303.514V156.927L294.889 172.587H290.35V150.572H294.435V165.779ZM273.555 162.828V168.729H279.229C280.137 168.729 281.044 168.502 281.498 168.048C282.179 167.594 282.406 166.913 282.406 166.006C282.406 165.098 282.179 164.417 281.498 163.736C280.818 163.282 280.137 162.828 279.229 162.828H273.555ZM273.555 158.97H279.229C280.591 158.97 281.952 159.197 283.087 159.651C284.222 160.104 285.13 161.012 285.811 161.92C286.492 162.828 286.719 164.19 286.719 165.552C286.719 166.913 286.492 168.048 285.811 169.183C285.13 170.091 284.222 170.999 283.087 171.453C281.952 171.907 280.591 172.134 279.229 172.134H269.469V150.118H285.357V153.976H273.555V158.97ZM253.582 164.19H259.029L256.305 155.565L253.582 164.19ZM250.858 172.587H246.092L253.582 150.572H258.802L266.292 172.587H261.526L260.164 168.048H252.447L250.858 172.587ZM243.822 154.43H232.474V158.97H242.915V162.828H232.474V168.502H244.276V172.36H228.162V150.345H243.822V154.43ZM217.041 160.785C218.403 160.785 219.31 160.331 219.764 159.651C220.218 158.97 220.445 158.062 220.445 157.154C220.445 156.019 220.218 155.338 219.537 154.884C218.856 154.43 217.949 154.203 216.587 154.203H213.182V160.558H217.041V160.785ZM212.955 172.587H208.416V150.572H218.176C219.537 150.572 220.672 150.799 221.58 151.48C222.488 152.161 223.396 152.842 223.85 153.976C224.304 155.111 224.531 156.246 224.531 157.608C224.531 158.516 224.304 159.424 223.85 160.558C223.396 161.693 222.715 162.601 221.807 163.509C220.899 164.417 219.537 164.644 217.722 164.644H212.728V172.587H212.955ZM160.073 154.43H148.725V158.97H159.165V162.828H148.725V168.502H160.527V172.36H144.412V150.345H160.073V154.43ZM127.163 165.779L135.561 150.572H140.327V172.587H136.015V156.927L127.39 172.587H122.851V150.572H126.936V165.779H127.163ZM106.056 162.601V172.36H101.516V150.345H106.056V158.743H114.226V150.345H118.766V172.36H114.226V162.601H106.056ZM97.6579 154.43H86.3097V158.97H96.7501V162.828H86.3097V168.502H98.1118V172.36H81.9974V150.345H97.6579V154.43ZM60.6629 157.608V150.572H65.2021V157.608C65.2021 158.516 65.4291 159.424 66.11 159.877C66.7909 160.331 67.4717 160.558 68.3796 160.558C69.2875 160.558 69.9684 160.331 70.8762 160.104C71.7841 159.878 72.6919 159.424 73.3728 158.97V150.572H77.9121V172.587H73.3728V162.828C71.3301 163.963 69.0605 164.644 67.0178 164.644C65.2021 164.644 63.6134 164.19 62.4785 163.055C61.3437 161.693 60.6629 159.877 60.6629 157.608ZM56.8045 154.43H45.4563V158.97H55.8966V162.828H45.4563V168.502H57.2584V172.36H41.144V150.345H56.8045V154.43ZM26.3913 154.43V165.552C26.3913 168.048 25.7105 169.864 24.5756 171.226C23.4408 172.587 21.6251 173.041 19.3555 173.041V168.956C20.4903 168.956 21.1712 168.729 21.6251 168.048C22.079 167.367 22.306 166.459 22.306 165.552V150.572H36.8317V172.587H32.2924V154.43H26.3913Z" fill="#970E0B"/>
<path fill-rule="evenodd" clip-rule="evenodd" d="M0.738281 161.02L5.95843 155.8L10.9516 161.02L5.95843 166.467L0.738281 161.02Z" fill="white"/>
<path fill-rule="evenodd" clip-rule="evenodd" d="M0.738281 161.02L5.95843 155.8L10.9516 161.02L5.95843 166.467L0.738281 161.02Z" fill="#970E0B"/>
<path fill-rule="evenodd" clip-rule="evenodd" d="M188.66 161.02L193.653 155.8L198.874 161.02L193.653 166.467L188.66 161.02Z" fill="white"/>
<path fill-rule="evenodd" clip-rule="evenodd" d="M188.66 161.02L193.653 155.8L198.874 161.02L193.653 166.467L188.66 161.02Z" fill="#970E0B"/>
<path fill-rule="evenodd" clip-rule="evenodd" d="M476.219 161.02L481.212 155.8L486.432 161.02L481.212 166.467L476.219 161.02Z" fill="white"/>
<path fill-rule="evenodd" clip-rule="evenodd" d="M476.219 161.02L481.212 155.8L486.432 161.02L481.212 166.467L476.219 161.02Z" fill="#970E0B"/>
</svg>
