<svg width="12" height="16" fill="none" xmlns="http://www.w3.org/2000/svg"><path fill-rule="evenodd" clip-rule="evenodd" d="M2.089.153S4.42-.73 5.819 1.75c1.396 2.479-.966 3.309-.966 3.309s-2.8-.592-.365 3.729c2.435 4.32 3.386 1.632 3.386 1.632s2.35-.851 3.688 1.523c1.338 2.374-.817 3.573-.817 3.573S6.748 18.4 2.073 10.105C-2.6 1.809 2.09.154 2.09.154z" fill="#fff"/><path fill-rule="evenodd" clip-rule="evenodd" d="M2.089.153S4.42-.73 5.819 1.75c1.396 2.479-.966 3.309-.966 3.309s-2.8-.592-.365 3.729c2.435 4.32 3.386 1.632 3.386 1.632s2.35-.851 3.688 1.523c1.338 2.374-.817 3.573-.817 3.573S6.748 18.4 2.073 10.105C-2.6 1.809 2.09.154 2.09.154z" fill="#970E0B"/></svg>