<svg width="20" height="20" fill="none" xmlns="http://www.w3.org/2000/svg"><path fill-rule="evenodd" clip-rule="evenodd" d="M15.54 14.17A8.724 8.724 0 002.556 2.556a8.723 8.723 0 000 12.338 8.727 8.727 0 0011.615.648l4.193 4.193a.91.91 0 001.286 0l.085-.085a.91.91 0 000-1.286L15.54 14.17zM13.609 3.842a6.906 6.906 0 11-9.767 9.763 6.906 6.906 0 019.767-9.763z" fill="#fff"/><path fill-rule="evenodd" clip-rule="evenodd" d="M15.54 14.17A8.724 8.724 0 002.556 2.556a8.723 8.723 0 000 12.338 8.727 8.727 0 0011.615.648l4.193 4.193a.91.91 0 001.286 0l.085-.085a.91.91 0 000-1.286L15.54 14.17zM13.609 3.842a6.906 6.906 0 11-9.767 9.763 6.906 6.906 0 019.767-9.763z" fill="#970E0B"/></svg>