<svg width="36" height="36" fill="none" xmlns="http://www.w3.org/2000/svg"><path d="M28.098 20.172c.928.916 1.909 1.777 2.742 2.787.369.446.717.908.981 1.427.378.74.037 1.553-.62 1.597h-4.078c-1.053.088-1.891-.342-2.598-1.069-.563-.58-1.087-1.198-1.63-1.797a3.81 3.81 0 00-.735-.66c-.556-.365-1.038-.253-1.357.333-.325.597-.4 1.258-.43 1.922-.044.971-.334 1.225-1.3 1.271-2.061.097-4.017-.22-5.835-1.268-1.604-.926-2.845-2.233-3.927-3.712-2.106-2.883-3.72-6.049-5.17-9.304-.326-.734-.086-1.126.714-1.142 1.331-.024 2.662-.024 3.993 0 .542.008.9.321 1.109.837.719 1.786 1.6 3.488 2.706 5.064.294.42.594.839 1.023 1.135.472.328.832.22 1.054-.313.143-.338.206-.7.236-1.063.106-1.243.118-2.485-.065-3.722-.114-.775-.545-1.275-1.31-1.421-.39-.075-.332-.22-.143-.445.33-.388.637-.628 1.252-.628L19.318 10c.726.144.889.473.988 1.211l.003 5.171c-.008.285.142 1.133.651 1.32.408.136.676-.194.92-.454 1.104-1.184 1.892-2.582 2.597-4.029.311-.637.58-1.297.84-1.959.194-.489.495-.729 1.042-.72l4.436.005c.131 0 .265 0 .394.023.747.13.952.454.72 1.191-.363 1.157-1.07 2.12-1.762 3.088-.741 1.035-1.53 2.033-2.265 3.072-.675.95-.622 1.428.216 2.253z" fill="#242424" fill-opacity=".7"/></svg>